%TF.GenerationSoftware,KiCad,Pcbnew,10.0.6*%
%TF.CreationDate,2026-09-21T09:08:01-07:00*%
%TF.ProjectId,baybasi-ctrl,62617962-6173-4692-9d63-74726c2e6b69,rev?*%
%TF.SameCoordinates,Original*%
%TF.FileFunction,Drillmap*%
%TF.FilePolarity,Positive*%
%FSLAX45Y45*%
G04 Gerber Fmt 4.5, Leading zero omitted, Abs format (unit mm)*
G04 Created by KiCad (PCBNEW 10.0.6) date 2026-09-21 09:08:01*
%MOMM*%
%LPD*%
G01*
G04 APERTURE LIST*
%ADD10C,0.100000*%
%ADD11C,0.200000*%
%ADD12C,0.120000*%
%ADD13C,0.130000*%
%ADD14C,0.320000*%
G04 APERTURE END LIST*
D10*
X10000000Y-5000000D02*
X20000000Y-5000000D01*
X10000000Y-14500000D02*
X10000000Y-5000000D01*
X20000000Y-5000000D02*
X20000000Y-14500000D01*
X20000000Y-14500000D02*
X10000000Y-14500000D01*
D11*
D10*
X10388990Y-9600970D02*
X10418990Y-9630970D01*
X10418990Y-9600970D02*
X10388990Y-9630970D01*
X10561700Y-9637090D02*
X10591700Y-9667090D01*
X10591700Y-9637090D02*
X10561700Y-9667090D01*
X10638460Y-10478750D02*
X10668460Y-10508750D01*
X10668460Y-10478750D02*
X10638460Y-10508750D01*
X10785000Y-8335000D02*
X10815000Y-8365000D01*
X10815000Y-8335000D02*
X10785000Y-8365000D01*
X10785000Y-12585000D02*
X10815000Y-12615000D01*
X10815000Y-12585000D02*
X10785000Y-12615000D01*
X10785000Y-13435000D02*
X10815000Y-13465000D01*
X10815000Y-13435000D02*
X10785000Y-13465000D01*
X11560000Y-8529000D02*
X11590000Y-8559000D01*
X11590000Y-8529000D02*
X11560000Y-8559000D01*
X11635000Y-5785000D02*
X11665000Y-5815000D01*
X11665000Y-5785000D02*
X11635000Y-5815000D01*
X11635000Y-6635000D02*
X11665000Y-6665000D01*
X11665000Y-6635000D02*
X11635000Y-6665000D01*
X11635000Y-7485000D02*
X11665000Y-7515000D01*
X11665000Y-7485000D02*
X11635000Y-7515000D01*
X11635000Y-8335000D02*
X11665000Y-8365000D01*
X11665000Y-8335000D02*
X11635000Y-8365000D01*
X11635000Y-11735000D02*
X11665000Y-11765000D01*
X11665000Y-11735000D02*
X11635000Y-11765000D01*
X11635000Y-12585000D02*
X11665000Y-12615000D01*
X11665000Y-12585000D02*
X11635000Y-12615000D01*
X11985490Y-9745160D02*
X12015490Y-9775160D01*
X12015490Y-9745160D02*
X11985490Y-9775160D01*
X12485000Y-5785000D02*
X12515000Y-5815000D01*
X12515000Y-5785000D02*
X12485000Y-5815000D01*
X12485000Y-8335000D02*
X12515000Y-8365000D01*
X12515000Y-8335000D02*
X12485000Y-8365000D01*
X12485000Y-10885000D02*
X12515000Y-10915000D01*
X12515000Y-10885000D02*
X12485000Y-10915000D01*
X12485000Y-13435000D02*
X12515000Y-13465000D01*
X12515000Y-13435000D02*
X12485000Y-13465000D01*
X12844200Y-10058000D02*
X12874200Y-10088000D01*
X12874200Y-10058000D02*
X12844200Y-10088000D01*
X12850000Y-8873000D02*
X12880000Y-8903000D01*
X12880000Y-8873000D02*
X12850000Y-8903000D01*
X12850000Y-9269000D02*
X12880000Y-9299000D01*
X12880000Y-9269000D02*
X12850000Y-9299000D01*
X12850000Y-9665000D02*
X12880000Y-9695000D01*
X12880000Y-9665000D02*
X12850000Y-9695000D01*
X12984790Y-10567810D02*
X13014790Y-10597810D01*
X13014790Y-10567810D02*
X12984790Y-10597810D01*
X13069460Y-10478590D02*
X13099460Y-10508590D01*
X13099460Y-10478590D02*
X13069460Y-10508590D01*
X13335000Y-5785000D02*
X13365000Y-5815000D01*
X13365000Y-5785000D02*
X13335000Y-5815000D01*
X13375510Y-12422070D02*
X13405510Y-12452070D01*
X13405510Y-12422070D02*
X13375510Y-12452070D01*
X13489710Y-12357600D02*
X13519710Y-12387600D01*
X13519710Y-12357600D02*
X13489710Y-12387600D01*
X13696880Y-9663150D02*
X13726880Y-9693150D01*
X13726880Y-9663150D02*
X13696880Y-9693150D01*
X13785431Y-11833814D02*
X13815431Y-11863814D01*
X13815431Y-11833814D02*
X13785431Y-11863814D01*
X13882090Y-6387550D02*
X13912090Y-6417550D01*
X13912090Y-6387550D02*
X13882090Y-6417550D01*
X13919310Y-9199890D02*
X13949310Y-9229890D01*
X13949310Y-9199890D02*
X13919310Y-9229890D01*
X13972510Y-8983580D02*
X14002510Y-9013580D01*
X14002510Y-8983580D02*
X13972510Y-9013580D01*
X14151450Y-13375820D02*
X14181450Y-13405820D01*
X14181450Y-13375820D02*
X14151450Y-13405820D01*
X14183610Y-7351250D02*
X14213610Y-7381250D01*
X14213610Y-7351250D02*
X14183610Y-7381250D01*
X14185000Y-6635000D02*
X14215000Y-6665000D01*
X14215000Y-6635000D02*
X14185000Y-6665000D01*
X14185000Y-7485000D02*
X14215000Y-7515000D01*
X14215000Y-7485000D02*
X14185000Y-7515000D01*
X14185000Y-8335000D02*
X14215000Y-8365000D01*
X14215000Y-8335000D02*
X14185000Y-8365000D01*
X14185000Y-9185000D02*
X14215000Y-9215000D01*
X14215000Y-9185000D02*
X14185000Y-9215000D01*
X14185000Y-10035000D02*
X14215000Y-10065000D01*
X14215000Y-10035000D02*
X14185000Y-10065000D01*
X14185000Y-10885000D02*
X14215000Y-10915000D01*
X14215000Y-10885000D02*
X14185000Y-10915000D01*
X14185000Y-11735000D02*
X14215000Y-11765000D01*
X14215000Y-11735000D02*
X14185000Y-11765000D01*
X14185000Y-12585000D02*
X14215000Y-12615000D01*
X14215000Y-12585000D02*
X14185000Y-12615000D01*
X14762210Y-5900320D02*
X14792210Y-5930320D01*
X14792210Y-5900320D02*
X14762210Y-5930320D01*
X14837720Y-6611250D02*
X14867720Y-6641250D01*
X14867720Y-6611250D02*
X14837720Y-6641250D01*
X14860520Y-6045180D02*
X14890520Y-6075180D01*
X14890520Y-6045180D02*
X14860520Y-6075180D01*
X14918670Y-13481570D02*
X14948670Y-13511570D01*
X14948670Y-13481570D02*
X14918670Y-13511570D01*
X14932650Y-13371030D02*
X14962650Y-13401030D01*
X14962650Y-13371030D02*
X14932650Y-13401030D01*
X15011590Y-6387550D02*
X15041590Y-6417550D01*
X15041590Y-6387550D02*
X15011590Y-6417550D01*
X15035000Y-6635000D02*
X15065000Y-6665000D01*
X15065000Y-6635000D02*
X15035000Y-6665000D01*
X15035000Y-7485000D02*
X15065000Y-7515000D01*
X15065000Y-7485000D02*
X15035000Y-7515000D01*
X15035000Y-8335000D02*
X15065000Y-8365000D01*
X15065000Y-8335000D02*
X15035000Y-8365000D01*
X15035000Y-9185000D02*
X15065000Y-9215000D01*
X15065000Y-9185000D02*
X15035000Y-9215000D01*
X15035000Y-10035000D02*
X15065000Y-10065000D01*
X15065000Y-10035000D02*
X15035000Y-10065000D01*
X15035000Y-10885000D02*
X15065000Y-10915000D01*
X15065000Y-10885000D02*
X15035000Y-10915000D01*
X15035000Y-11735000D02*
X15065000Y-11765000D01*
X15065000Y-11735000D02*
X15035000Y-11765000D01*
X15035000Y-12585000D02*
X15065000Y-12615000D01*
X15065000Y-12585000D02*
X15035000Y-12615000D01*
X15217040Y-13699120D02*
X15247040Y-13729120D01*
X15247040Y-13699120D02*
X15217040Y-13729120D01*
X15383540Y-6038130D02*
X15413540Y-6068130D01*
X15413540Y-6038130D02*
X15383540Y-6068130D01*
X15394200Y-6420000D02*
X15424200Y-6450000D01*
X15424200Y-6420000D02*
X15394200Y-6450000D01*
X15394200Y-13390000D02*
X15424200Y-13420000D01*
X15424200Y-13390000D02*
X15394200Y-13420000D01*
X15427140Y-7801250D02*
X15457140Y-7831250D01*
X15457140Y-7801250D02*
X15427140Y-7831250D01*
X15759540Y-6616890D02*
X15789540Y-6646890D01*
X15789540Y-6616890D02*
X15759540Y-6646890D01*
X15790200Y-6420000D02*
X15820200Y-6450000D01*
X15820200Y-6420000D02*
X15790200Y-6450000D01*
X15790200Y-13390000D02*
X15820200Y-13420000D01*
X15820200Y-13390000D02*
X15790200Y-13420000D01*
X15885000Y-12585000D02*
X15915000Y-12615000D01*
X15915000Y-12585000D02*
X15885000Y-12615000D01*
X16006450Y-13453750D02*
X16036450Y-13483750D01*
X16036450Y-13453750D02*
X16006450Y-13483750D01*
X16186200Y-6420000D02*
X16216200Y-6450000D01*
X16216200Y-6420000D02*
X16186200Y-6450000D01*
X16186200Y-13390000D02*
X16216200Y-13420000D01*
X16216200Y-13390000D02*
X16186200Y-13420000D01*
X16212711Y-6702210D02*
X16242711Y-6732210D01*
X16242711Y-6702210D02*
X16212711Y-6732210D01*
X16309930Y-6940490D02*
X16339930Y-6970490D01*
X16339930Y-6940490D02*
X16309930Y-6970490D01*
X16368130Y-7941000D02*
X16398130Y-7971000D01*
X16398130Y-7941000D02*
X16368130Y-7971000D01*
X16582200Y-6420000D02*
X16612200Y-6450000D01*
X16612200Y-6420000D02*
X16582200Y-6450000D01*
X16582200Y-13390000D02*
X16612200Y-13420000D01*
X16612200Y-13390000D02*
X16582200Y-13420000D01*
X16596060Y-11325230D02*
X16626060Y-11355230D01*
X16626060Y-11325230D02*
X16596060Y-11355230D01*
X16735000Y-6635000D02*
X16765000Y-6665000D01*
X16765000Y-6635000D02*
X16735000Y-6665000D01*
X16735000Y-7485000D02*
X16765000Y-7515000D01*
X16765000Y-7485000D02*
X16735000Y-7515000D01*
X16735000Y-8335000D02*
X16765000Y-8365000D01*
X16765000Y-8335000D02*
X16735000Y-8365000D01*
X16735000Y-9185000D02*
X16765000Y-9215000D01*
X16765000Y-9185000D02*
X16735000Y-9215000D01*
X16735000Y-10035000D02*
X16765000Y-10065000D01*
X16765000Y-10035000D02*
X16735000Y-10065000D01*
X16735000Y-10885000D02*
X16765000Y-10915000D01*
X16765000Y-10885000D02*
X16735000Y-10915000D01*
X16735000Y-11735000D02*
X16765000Y-11765000D01*
X16765000Y-11735000D02*
X16735000Y-11765000D01*
X16735000Y-12585000D02*
X16765000Y-12615000D01*
X16765000Y-12585000D02*
X16735000Y-12615000D01*
X16978200Y-6420000D02*
X17008200Y-6450000D01*
X17008200Y-6420000D02*
X16978200Y-6450000D01*
X16978200Y-13390000D02*
X17008200Y-13420000D01*
X17008200Y-13390000D02*
X16978200Y-13420000D01*
X17036250Y-6014050D02*
X17066250Y-6044050D01*
X17066250Y-6014050D02*
X17036250Y-6044050D01*
X17374200Y-6420000D02*
X17404200Y-6450000D01*
X17404200Y-6420000D02*
X17374200Y-6450000D01*
X17374200Y-13390000D02*
X17404200Y-13420000D01*
X17404200Y-13390000D02*
X17374200Y-13420000D01*
X17585000Y-12585000D02*
X17615000Y-12615000D01*
X17615000Y-12585000D02*
X17585000Y-12615000D01*
X18435000Y-7485000D02*
X18465000Y-7515000D01*
X18465000Y-7485000D02*
X18435000Y-7515000D01*
X18435000Y-8335000D02*
X18465000Y-8365000D01*
X18465000Y-8335000D02*
X18435000Y-8365000D01*
X18435000Y-9185000D02*
X18465000Y-9215000D01*
X18465000Y-9185000D02*
X18435000Y-9215000D01*
X18435000Y-10885000D02*
X18465000Y-10915000D01*
X18465000Y-10885000D02*
X18435000Y-10915000D01*
X18435000Y-11735000D02*
X18465000Y-11765000D01*
X18465000Y-11735000D02*
X18435000Y-11765000D01*
X18435000Y-12585000D02*
X18465000Y-12615000D01*
X18465000Y-12585000D02*
X18435000Y-12615000D01*
X18550000Y-6973000D02*
X18580000Y-7003000D01*
X18580000Y-6973000D02*
X18550000Y-7003000D01*
X18550000Y-9973000D02*
X18580000Y-10003000D01*
X18580000Y-9973000D02*
X18550000Y-10003000D01*
X18679400Y-5804040D02*
X18709400Y-5834040D01*
X18709400Y-5804040D02*
X18679400Y-5834040D01*
X18963660Y-7801250D02*
X18993660Y-7831250D01*
X18993660Y-7801250D02*
X18963660Y-7831250D01*
X19285000Y-6635000D02*
X19315000Y-6665000D01*
X19315000Y-6635000D02*
X19285000Y-6665000D01*
X19285000Y-7485000D02*
X19315000Y-7515000D01*
X19315000Y-7485000D02*
X19285000Y-7515000D01*
X19285000Y-9185000D02*
X19315000Y-9215000D01*
X19315000Y-9185000D02*
X19285000Y-9215000D01*
X19285000Y-10035000D02*
X19315000Y-10065000D01*
X19315000Y-10035000D02*
X19285000Y-10065000D01*
X19285000Y-10885000D02*
X19315000Y-10915000D01*
X19315000Y-10885000D02*
X19285000Y-10915000D01*
X19285000Y-11735000D02*
X19315000Y-11765000D01*
X19315000Y-11735000D02*
X19285000Y-11765000D01*
X19285000Y-12585000D02*
X19315000Y-12615000D01*
X19315000Y-12585000D02*
X19285000Y-12615000D01*
X19285000Y-13435000D02*
X19315000Y-13465000D01*
X19315000Y-13435000D02*
X19285000Y-13465000D01*
X11645500Y-9732000D02*
G75*
G02*
X11565500Y-9732000I-40000J0D01*
G01*
X11565500Y-9732000D02*
G75*
G02*
X11645500Y-9732000I40000J0D01*
G01*
X11645500Y-10398000D02*
G75*
G02*
X11565500Y-10398000I-40000J0D01*
G01*
X11565500Y-10398000D02*
G75*
G02*
X11645500Y-10398000I40000J0D01*
G01*
X11715000Y-11129000D02*
G75*
G02*
X11635000Y-11129000I-40000J0D01*
G01*
X11635000Y-11129000D02*
G75*
G02*
X11715000Y-11129000I40000J0D01*
G01*
X11895500Y-9732000D02*
G75*
G02*
X11815500Y-9732000I-40000J0D01*
G01*
X11815500Y-9732000D02*
G75*
G02*
X11895500Y-9732000I40000J0D01*
G01*
X11895500Y-10398000D02*
G75*
G02*
X11815500Y-10398000I-40000J0D01*
G01*
X11815500Y-10398000D02*
G75*
G02*
X11895500Y-10398000I40000J0D01*
G01*
X11965000Y-11129000D02*
G75*
G02*
X11885000Y-11129000I-40000J0D01*
G01*
X11885000Y-11129000D02*
G75*
G02*
X11965000Y-11129000I40000J0D01*
G01*
X12440000Y-11900000D02*
G75*
G02*
X12360000Y-11900000I-40000J0D01*
G01*
X12360000Y-11900000D02*
G75*
G02*
X12440000Y-11900000I40000J0D01*
G01*
X12440000Y-12154000D02*
G75*
G02*
X12360000Y-12154000I-40000J0D01*
G01*
X12360000Y-12154000D02*
G75*
G02*
X12440000Y-12154000I40000J0D01*
G01*
X12440000Y-12408000D02*
G75*
G02*
X12360000Y-12408000I-40000J0D01*
G01*
X12360000Y-12408000D02*
G75*
G02*
X12440000Y-12408000I40000J0D01*
G01*
X12440000Y-12662000D02*
G75*
G02*
X12360000Y-12662000I-40000J0D01*
G01*
X12360000Y-12662000D02*
G75*
G02*
X12440000Y-12662000I40000J0D01*
G01*
X13202000Y-11900000D02*
G75*
G02*
X13122000Y-11900000I-40000J0D01*
G01*
X13122000Y-11900000D02*
G75*
G02*
X13202000Y-11900000I40000J0D01*
G01*
X13202000Y-12154000D02*
G75*
G02*
X13122000Y-12154000I-40000J0D01*
G01*
X13122000Y-12154000D02*
G75*
G02*
X13202000Y-12154000I40000J0D01*
G01*
X13202000Y-12408000D02*
G75*
G02*
X13122000Y-12408000I-40000J0D01*
G01*
X13122000Y-12408000D02*
G75*
G02*
X13202000Y-12408000I40000J0D01*
G01*
X13202000Y-12662000D02*
G75*
G02*
X13122000Y-12662000I-40000J0D01*
G01*
X13122000Y-12662000D02*
G75*
G02*
X13202000Y-12662000I40000J0D01*
G01*
X17296000Y-6652000D02*
G75*
G02*
X17216000Y-6652000I-40000J0D01*
G01*
X17216000Y-6652000D02*
G75*
G02*
X17296000Y-6652000I40000J0D01*
G01*
X17296000Y-6906000D02*
G75*
G02*
X17216000Y-6906000I-40000J0D01*
G01*
X17216000Y-6906000D02*
G75*
G02*
X17296000Y-6906000I40000J0D01*
G01*
X17296000Y-7160000D02*
G75*
G02*
X17216000Y-7160000I-40000J0D01*
G01*
X17216000Y-7160000D02*
G75*
G02*
X17296000Y-7160000I40000J0D01*
G01*
X17296000Y-7414000D02*
G75*
G02*
X17216000Y-7414000I-40000J0D01*
G01*
X17216000Y-7414000D02*
G75*
G02*
X17296000Y-7414000I40000J0D01*
G01*
X17296000Y-7668000D02*
G75*
G02*
X17216000Y-7668000I-40000J0D01*
G01*
X17216000Y-7668000D02*
G75*
G02*
X17296000Y-7668000I40000J0D01*
G01*
X17296000Y-7922000D02*
G75*
G02*
X17216000Y-7922000I-40000J0D01*
G01*
X17216000Y-7922000D02*
G75*
G02*
X17296000Y-7922000I40000J0D01*
G01*
X17296000Y-8176000D02*
G75*
G02*
X17216000Y-8176000I-40000J0D01*
G01*
X17216000Y-8176000D02*
G75*
G02*
X17296000Y-8176000I40000J0D01*
G01*
X17296000Y-8430000D02*
G75*
G02*
X17216000Y-8430000I-40000J0D01*
G01*
X17216000Y-8430000D02*
G75*
G02*
X17296000Y-8430000I40000J0D01*
G01*
X17296000Y-8684000D02*
G75*
G02*
X17216000Y-8684000I-40000J0D01*
G01*
X17216000Y-8684000D02*
G75*
G02*
X17296000Y-8684000I40000J0D01*
G01*
X17296000Y-8938000D02*
G75*
G02*
X17216000Y-8938000I-40000J0D01*
G01*
X17216000Y-8938000D02*
G75*
G02*
X17296000Y-8938000I40000J0D01*
G01*
X17296000Y-9652000D02*
G75*
G02*
X17216000Y-9652000I-40000J0D01*
G01*
X17216000Y-9652000D02*
G75*
G02*
X17296000Y-9652000I40000J0D01*
G01*
X17296000Y-9906000D02*
G75*
G02*
X17216000Y-9906000I-40000J0D01*
G01*
X17216000Y-9906000D02*
G75*
G02*
X17296000Y-9906000I40000J0D01*
G01*
X17296000Y-10160000D02*
G75*
G02*
X17216000Y-10160000I-40000J0D01*
G01*
X17216000Y-10160000D02*
G75*
G02*
X17296000Y-10160000I40000J0D01*
G01*
X17296000Y-10414000D02*
G75*
G02*
X17216000Y-10414000I-40000J0D01*
G01*
X17216000Y-10414000D02*
G75*
G02*
X17296000Y-10414000I40000J0D01*
G01*
X17296000Y-10668000D02*
G75*
G02*
X17216000Y-10668000I-40000J0D01*
G01*
X17216000Y-10668000D02*
G75*
G02*
X17296000Y-10668000I40000J0D01*
G01*
X17296000Y-10922000D02*
G75*
G02*
X17216000Y-10922000I-40000J0D01*
G01*
X17216000Y-10922000D02*
G75*
G02*
X17296000Y-10922000I40000J0D01*
G01*
X17296000Y-11176000D02*
G75*
G02*
X17216000Y-11176000I-40000J0D01*
G01*
X17216000Y-11176000D02*
G75*
G02*
X17296000Y-11176000I40000J0D01*
G01*
X17296000Y-11430000D02*
G75*
G02*
X17216000Y-11430000I-40000J0D01*
G01*
X17216000Y-11430000D02*
G75*
G02*
X17296000Y-11430000I40000J0D01*
G01*
X17296000Y-11684000D02*
G75*
G02*
X17216000Y-11684000I-40000J0D01*
G01*
X17216000Y-11684000D02*
G75*
G02*
X17296000Y-11684000I40000J0D01*
G01*
X17296000Y-11938000D02*
G75*
G02*
X17216000Y-11938000I-40000J0D01*
G01*
X17216000Y-11938000D02*
G75*
G02*
X17296000Y-11938000I40000J0D01*
G01*
X18058000Y-6652000D02*
G75*
G02*
X17978000Y-6652000I-40000J0D01*
G01*
X17978000Y-6652000D02*
G75*
G02*
X18058000Y-6652000I40000J0D01*
G01*
X18058000Y-6906000D02*
G75*
G02*
X17978000Y-6906000I-40000J0D01*
G01*
X17978000Y-6906000D02*
G75*
G02*
X18058000Y-6906000I40000J0D01*
G01*
X18058000Y-7160000D02*
G75*
G02*
X17978000Y-7160000I-40000J0D01*
G01*
X17978000Y-7160000D02*
G75*
G02*
X18058000Y-7160000I40000J0D01*
G01*
X18058000Y-7414000D02*
G75*
G02*
X17978000Y-7414000I-40000J0D01*
G01*
X17978000Y-7414000D02*
G75*
G02*
X18058000Y-7414000I40000J0D01*
G01*
X18058000Y-7668000D02*
G75*
G02*
X17978000Y-7668000I-40000J0D01*
G01*
X17978000Y-7668000D02*
G75*
G02*
X18058000Y-7668000I40000J0D01*
G01*
X18058000Y-7922000D02*
G75*
G02*
X17978000Y-7922000I-40000J0D01*
G01*
X17978000Y-7922000D02*
G75*
G02*
X18058000Y-7922000I40000J0D01*
G01*
X18058000Y-8176000D02*
G75*
G02*
X17978000Y-8176000I-40000J0D01*
G01*
X17978000Y-8176000D02*
G75*
G02*
X18058000Y-8176000I40000J0D01*
G01*
X18058000Y-8430000D02*
G75*
G02*
X17978000Y-8430000I-40000J0D01*
G01*
X17978000Y-8430000D02*
G75*
G02*
X18058000Y-8430000I40000J0D01*
G01*
X18058000Y-8684000D02*
G75*
G02*
X17978000Y-8684000I-40000J0D01*
G01*
X17978000Y-8684000D02*
G75*
G02*
X18058000Y-8684000I40000J0D01*
G01*
X18058000Y-8938000D02*
G75*
G02*
X17978000Y-8938000I-40000J0D01*
G01*
X17978000Y-8938000D02*
G75*
G02*
X18058000Y-8938000I40000J0D01*
G01*
X18058000Y-9652000D02*
G75*
G02*
X17978000Y-9652000I-40000J0D01*
G01*
X17978000Y-9652000D02*
G75*
G02*
X18058000Y-9652000I40000J0D01*
G01*
X18058000Y-9906000D02*
G75*
G02*
X17978000Y-9906000I-40000J0D01*
G01*
X17978000Y-9906000D02*
G75*
G02*
X18058000Y-9906000I40000J0D01*
G01*
X18058000Y-10160000D02*
G75*
G02*
X17978000Y-10160000I-40000J0D01*
G01*
X17978000Y-10160000D02*
G75*
G02*
X18058000Y-10160000I40000J0D01*
G01*
X18058000Y-10414000D02*
G75*
G02*
X17978000Y-10414000I-40000J0D01*
G01*
X17978000Y-10414000D02*
G75*
G02*
X18058000Y-10414000I40000J0D01*
G01*
X18058000Y-10668000D02*
G75*
G02*
X17978000Y-10668000I-40000J0D01*
G01*
X17978000Y-10668000D02*
G75*
G02*
X18058000Y-10668000I40000J0D01*
G01*
X18058000Y-10922000D02*
G75*
G02*
X17978000Y-10922000I-40000J0D01*
G01*
X17978000Y-10922000D02*
G75*
G02*
X18058000Y-10922000I40000J0D01*
G01*
X18058000Y-11176000D02*
G75*
G02*
X17978000Y-11176000I-40000J0D01*
G01*
X17978000Y-11176000D02*
G75*
G02*
X18058000Y-11176000I40000J0D01*
G01*
X18058000Y-11430000D02*
G75*
G02*
X17978000Y-11430000I-40000J0D01*
G01*
X17978000Y-11430000D02*
G75*
G02*
X18058000Y-11430000I40000J0D01*
G01*
X18058000Y-11684000D02*
G75*
G02*
X17978000Y-11684000I-40000J0D01*
G01*
X17978000Y-11684000D02*
G75*
G02*
X18058000Y-11684000I40000J0D01*
G01*
X18058000Y-11938000D02*
G75*
G02*
X17978000Y-11938000I-40000J0D01*
G01*
X17978000Y-11938000D02*
G75*
G02*
X18058000Y-11938000I40000J0D01*
G01*
X10477000Y-6450000D02*
X10477000Y-6550000D01*
X10427000Y-6500000D02*
X10527000Y-6500000D01*
X10477000Y-6704000D02*
X10477000Y-6804000D01*
X10427000Y-6754000D02*
X10527000Y-6754000D01*
X10477000Y-6958000D02*
X10477000Y-7058000D01*
X10427000Y-7008000D02*
X10527000Y-7008000D01*
X10477000Y-7212000D02*
X10477000Y-7312000D01*
X10427000Y-7262000D02*
X10527000Y-7262000D01*
X10477000Y-7466000D02*
X10477000Y-7566000D01*
X10427000Y-7516000D02*
X10527000Y-7516000D01*
X10477000Y-7720000D02*
X10477000Y-7820000D01*
X10427000Y-7770000D02*
X10527000Y-7770000D01*
X10673000Y-11615000D02*
X10673000Y-11715000D01*
X10623000Y-11665000D02*
X10723000Y-11665000D01*
X11023000Y-11615000D02*
X11023000Y-11715000D01*
X10973000Y-11665000D02*
X11073000Y-11665000D01*
X11277000Y-13777000D02*
X11277000Y-13877000D01*
X11227000Y-13827000D02*
X11327000Y-13827000D01*
X11277000Y-14031000D02*
X11277000Y-14131000D01*
X11227000Y-14081000D02*
X11327000Y-14081000D01*
X12509000Y-6450000D02*
X12509000Y-6550000D01*
X12459000Y-6500000D02*
X12559000Y-6500000D01*
X12509000Y-6704000D02*
X12509000Y-6804000D01*
X12459000Y-6754000D02*
X12559000Y-6754000D01*
X12509000Y-6958000D02*
X12509000Y-7058000D01*
X12459000Y-7008000D02*
X12559000Y-7008000D01*
X12509000Y-7212000D02*
X12509000Y-7312000D01*
X12459000Y-7262000D02*
X12559000Y-7262000D01*
X12509000Y-7466000D02*
X12509000Y-7566000D01*
X12459000Y-7516000D02*
X12559000Y-7516000D01*
X12509000Y-7720000D02*
X12509000Y-7820000D01*
X12459000Y-7770000D02*
X12559000Y-7770000D01*
X13557000Y-6650000D02*
X13557000Y-6750000D01*
X13507000Y-6700000D02*
X13607000Y-6700000D01*
X13557000Y-6904000D02*
X13557000Y-7004000D01*
X13507000Y-6954000D02*
X13607000Y-6954000D01*
X13557000Y-7158000D02*
X13557000Y-7258000D01*
X13507000Y-7208000D02*
X13607000Y-7208000D01*
X13557000Y-7412000D02*
X13557000Y-7512000D01*
X13507000Y-7462000D02*
X13607000Y-7462000D01*
X13557000Y-7666000D02*
X13557000Y-7766000D01*
X13507000Y-7716000D02*
X13607000Y-7716000D01*
X13557000Y-7920000D02*
X13557000Y-8020000D01*
X13507000Y-7970000D02*
X13607000Y-7970000D01*
X13557000Y-8174000D02*
X13557000Y-8274000D01*
X13507000Y-8224000D02*
X13607000Y-8224000D01*
X13557000Y-8428000D02*
X13557000Y-8528000D01*
X13507000Y-8478000D02*
X13607000Y-8478000D01*
X13557000Y-8682000D02*
X13557000Y-8782000D01*
X13507000Y-8732000D02*
X13607000Y-8732000D01*
X13557000Y-8936000D02*
X13557000Y-9036000D01*
X13507000Y-8986000D02*
X13607000Y-8986000D01*
X13557000Y-9190000D02*
X13557000Y-9290000D01*
X13507000Y-9240000D02*
X13607000Y-9240000D01*
X13557000Y-9444000D02*
X13557000Y-9544000D01*
X13507000Y-9494000D02*
X13607000Y-9494000D01*
X13557000Y-9698000D02*
X13557000Y-9798000D01*
X13507000Y-9748000D02*
X13607000Y-9748000D01*
X13557000Y-9952000D02*
X13557000Y-10052000D01*
X13507000Y-10002000D02*
X13607000Y-10002000D01*
X13557000Y-10206000D02*
X13557000Y-10306000D01*
X13507000Y-10256000D02*
X13607000Y-10256000D01*
X13557000Y-10460000D02*
X13557000Y-10560000D01*
X13507000Y-10510000D02*
X13607000Y-10510000D01*
X13557000Y-10714000D02*
X13557000Y-10814000D01*
X13507000Y-10764000D02*
X13607000Y-10764000D01*
X13557000Y-10968000D02*
X13557000Y-11068000D01*
X13507000Y-11018000D02*
X13607000Y-11018000D01*
X13557000Y-11222000D02*
X13557000Y-11322000D01*
X13507000Y-11272000D02*
X13607000Y-11272000D01*
X13557000Y-11476000D02*
X13557000Y-11576000D01*
X13507000Y-11526000D02*
X13607000Y-11526000D01*
X13557000Y-11730000D02*
X13557000Y-11830000D01*
X13507000Y-11780000D02*
X13607000Y-11780000D01*
X13557000Y-11984000D02*
X13557000Y-12084000D01*
X13507000Y-12034000D02*
X13607000Y-12034000D01*
X16097000Y-6650000D02*
X16097000Y-6750000D01*
X16047000Y-6700000D02*
X16147000Y-6700000D01*
X16097000Y-6904000D02*
X16097000Y-7004000D01*
X16047000Y-6954000D02*
X16147000Y-6954000D01*
X16097000Y-7158000D02*
X16097000Y-7258000D01*
X16047000Y-7208000D02*
X16147000Y-7208000D01*
X16097000Y-7412000D02*
X16097000Y-7512000D01*
X16047000Y-7462000D02*
X16147000Y-7462000D01*
X16097000Y-7666000D02*
X16097000Y-7766000D01*
X16047000Y-7716000D02*
X16147000Y-7716000D01*
X16097000Y-7920000D02*
X16097000Y-8020000D01*
X16047000Y-7970000D02*
X16147000Y-7970000D01*
X16097000Y-8174000D02*
X16097000Y-8274000D01*
X16047000Y-8224000D02*
X16147000Y-8224000D01*
X16097000Y-8428000D02*
X16097000Y-8528000D01*
X16047000Y-8478000D02*
X16147000Y-8478000D01*
X16097000Y-8682000D02*
X16097000Y-8782000D01*
X16047000Y-8732000D02*
X16147000Y-8732000D01*
X16097000Y-8936000D02*
X16097000Y-9036000D01*
X16047000Y-8986000D02*
X16147000Y-8986000D01*
X16097000Y-9190000D02*
X16097000Y-9290000D01*
X16047000Y-9240000D02*
X16147000Y-9240000D01*
X16097000Y-9444000D02*
X16097000Y-9544000D01*
X16047000Y-9494000D02*
X16147000Y-9494000D01*
X16097000Y-9698000D02*
X16097000Y-9798000D01*
X16047000Y-9748000D02*
X16147000Y-9748000D01*
X16097000Y-9952000D02*
X16097000Y-10052000D01*
X16047000Y-10002000D02*
X16147000Y-10002000D01*
X16097000Y-10206000D02*
X16097000Y-10306000D01*
X16047000Y-10256000D02*
X16147000Y-10256000D01*
X16097000Y-10460000D02*
X16097000Y-10560000D01*
X16047000Y-10510000D02*
X16147000Y-10510000D01*
X16097000Y-10714000D02*
X16097000Y-10814000D01*
X16047000Y-10764000D02*
X16147000Y-10764000D01*
X16097000Y-10968000D02*
X16097000Y-11068000D01*
X16047000Y-11018000D02*
X16147000Y-11018000D01*
X16097000Y-11222000D02*
X16097000Y-11322000D01*
X16047000Y-11272000D02*
X16147000Y-11272000D01*
X16097000Y-11476000D02*
X16097000Y-11576000D01*
X16047000Y-11526000D02*
X16147000Y-11526000D01*
X16097000Y-11730000D02*
X16097000Y-11830000D01*
X16047000Y-11780000D02*
X16147000Y-11780000D01*
X16097000Y-11984000D02*
X16097000Y-12084000D01*
X16047000Y-12034000D02*
X16147000Y-12034000D01*
D12*
X13867427Y-5665427D02*
X13867427Y-5580573D01*
X13782573Y-5580573D01*
X13782573Y-5665427D01*
X13867427Y-5665427D01*
X13867427Y-13902427D02*
X13867427Y-13817573D01*
X13782573Y-13817573D01*
X13782573Y-13902427D01*
X13867427Y-13902427D01*
X14217427Y-5665427D02*
X14217427Y-5580573D01*
X14132573Y-5580573D01*
X14132573Y-5665427D01*
X14217427Y-5665427D01*
X14217427Y-13902427D02*
X14217427Y-13817573D01*
X14132573Y-13817573D01*
X14132573Y-13902427D01*
X14217427Y-13902427D01*
X14787427Y-5665427D02*
X14787427Y-5580573D01*
X14702573Y-5580573D01*
X14702573Y-5665427D01*
X14787427Y-5665427D01*
X14787427Y-13902427D02*
X14787427Y-13817573D01*
X14702573Y-13817573D01*
X14702573Y-13902427D01*
X14787427Y-13902427D01*
X15137427Y-5665427D02*
X15137427Y-5580573D01*
X15052573Y-5580573D01*
X15052573Y-5665427D01*
X15137427Y-5665427D01*
X15137427Y-13902427D02*
X15137427Y-13817573D01*
X15052573Y-13817573D01*
X15052573Y-13902427D01*
X15137427Y-13902427D01*
X15707427Y-5665427D02*
X15707427Y-5580573D01*
X15622573Y-5580573D01*
X15622573Y-5665427D01*
X15707427Y-5665427D01*
X15707427Y-13902427D02*
X15707427Y-13817573D01*
X15622573Y-13817573D01*
X15622573Y-13902427D01*
X15707427Y-13902427D01*
X16057427Y-5665427D02*
X16057427Y-5580573D01*
X15972573Y-5580573D01*
X15972573Y-5665427D01*
X16057427Y-5665427D01*
X16057427Y-13902427D02*
X16057427Y-13817573D01*
X15972573Y-13817573D01*
X15972573Y-13902427D01*
X16057427Y-13902427D01*
X16627427Y-5665427D02*
X16627427Y-5580573D01*
X16542573Y-5580573D01*
X16542573Y-5665427D01*
X16627427Y-5665427D01*
X16627427Y-13902427D02*
X16627427Y-13817573D01*
X16542573Y-13817573D01*
X16542573Y-13902427D01*
X16627427Y-13902427D01*
X16977427Y-5665427D02*
X16977427Y-5580573D01*
X16892573Y-5580573D01*
X16892573Y-5665427D01*
X16977427Y-5665427D01*
X16977427Y-13902427D02*
X16977427Y-13817573D01*
X16892573Y-13817573D01*
X16892573Y-13902427D01*
X16977427Y-13902427D01*
X17547427Y-5665427D02*
X17547427Y-5580573D01*
X17462573Y-5580573D01*
X17462573Y-5665427D01*
X17547427Y-5665427D01*
X17547427Y-13902427D02*
X17547427Y-13817573D01*
X17462573Y-13817573D01*
X17462573Y-13902427D01*
X17547427Y-13902427D01*
X17897427Y-5665427D02*
X17897427Y-5580573D01*
X17812573Y-5580573D01*
X17812573Y-5665427D01*
X17897427Y-5665427D01*
X17897427Y-13902427D02*
X17897427Y-13817573D01*
X17812573Y-13817573D01*
X17812573Y-13902427D01*
X17897427Y-13902427D01*
X18467427Y-5665427D02*
X18467427Y-5580573D01*
X18382573Y-5580573D01*
X18382573Y-5665427D01*
X18467427Y-5665427D01*
X18467427Y-13902427D02*
X18467427Y-13817573D01*
X18382573Y-13817573D01*
X18382573Y-13902427D01*
X18467427Y-13902427D01*
X18817427Y-5665427D02*
X18817427Y-5580573D01*
X18732573Y-5580573D01*
X18732573Y-5665427D01*
X18817427Y-5665427D01*
X18817427Y-13902427D02*
X18817427Y-13817573D01*
X18732573Y-13817573D01*
X18732573Y-13902427D01*
X18817427Y-13902427D01*
D13*
X10633000Y-8969000D02*
X10698000Y-8904000D01*
X10633000Y-8839000D01*
X10568000Y-8904000D01*
X10633000Y-8969000D01*
X10633000Y-9477000D02*
X10698000Y-9412000D01*
X10633000Y-9347000D01*
X10568000Y-9412000D01*
X10633000Y-9477000D01*
D14*
X10280000Y-5280000D02*
X10600000Y-5600000D01*
X10600000Y-5280000D02*
X10280000Y-5600000D01*
X10600000Y-5440000D02*
G75*
G02*
X10280000Y-5440000I-160000J0D01*
G01*
X10280000Y-5440000D02*
G75*
G02*
X10600000Y-5440000I160000J0D01*
G01*
X10280000Y-13900000D02*
X10600000Y-14220000D01*
X10600000Y-13900000D02*
X10280000Y-14220000D01*
X10600000Y-14060000D02*
G75*
G02*
X10280000Y-14060000I-160000J0D01*
G01*
X10280000Y-14060000D02*
G75*
G02*
X10600000Y-14060000I160000J0D01*
G01*
X19400000Y-5280000D02*
X19720000Y-5600000D01*
X19720000Y-5280000D02*
X19400000Y-5600000D01*
X19720000Y-5440000D02*
G75*
G02*
X19400000Y-5440000I-160000J0D01*
G01*
X19400000Y-5440000D02*
G75*
G02*
X19720000Y-5440000I160000J0D01*
G01*
X19400000Y-13900000D02*
X19720000Y-14220000D01*
X19720000Y-13900000D02*
X19400000Y-14220000D01*
X19720000Y-14060000D02*
G75*
G02*
X19400000Y-14060000I-160000J0D01*
G01*
X19400000Y-14060000D02*
G75*
G02*
X19720000Y-14060000I160000J0D01*
G01*
D11*
X10255777Y-14816484D02*
X10255777Y-14616484D01*
X10255777Y-14616484D02*
X10303396Y-14616484D01*
X10303396Y-14616484D02*
X10331967Y-14626008D01*
X10331967Y-14626008D02*
X10351015Y-14645055D01*
X10351015Y-14645055D02*
X10360539Y-14664103D01*
X10360539Y-14664103D02*
X10370063Y-14702198D01*
X10370063Y-14702198D02*
X10370063Y-14730769D01*
X10370063Y-14730769D02*
X10360539Y-14768865D01*
X10360539Y-14768865D02*
X10351015Y-14787912D01*
X10351015Y-14787912D02*
X10331967Y-14806960D01*
X10331967Y-14806960D02*
X10303396Y-14816484D01*
X10303396Y-14816484D02*
X10255777Y-14816484D01*
X10455777Y-14816484D02*
X10455777Y-14683150D01*
X10455777Y-14721246D02*
X10465301Y-14702198D01*
X10465301Y-14702198D02*
X10474824Y-14692674D01*
X10474824Y-14692674D02*
X10493872Y-14683150D01*
X10493872Y-14683150D02*
X10512920Y-14683150D01*
X10579586Y-14816484D02*
X10579586Y-14683150D01*
X10579586Y-14616484D02*
X10570063Y-14626008D01*
X10570063Y-14626008D02*
X10579586Y-14635531D01*
X10579586Y-14635531D02*
X10589110Y-14626008D01*
X10589110Y-14626008D02*
X10579586Y-14616484D01*
X10579586Y-14616484D02*
X10579586Y-14635531D01*
X10703396Y-14816484D02*
X10684348Y-14806960D01*
X10684348Y-14806960D02*
X10674824Y-14787912D01*
X10674824Y-14787912D02*
X10674824Y-14616484D01*
X10808158Y-14816484D02*
X10789110Y-14806960D01*
X10789110Y-14806960D02*
X10779586Y-14787912D01*
X10779586Y-14787912D02*
X10779586Y-14616484D01*
X11036729Y-14816484D02*
X11036729Y-14616484D01*
X11036729Y-14616484D02*
X11103396Y-14759341D01*
X11103396Y-14759341D02*
X11170063Y-14616484D01*
X11170063Y-14616484D02*
X11170063Y-14816484D01*
X11351015Y-14816484D02*
X11351015Y-14711722D01*
X11351015Y-14711722D02*
X11341491Y-14692674D01*
X11341491Y-14692674D02*
X11322443Y-14683150D01*
X11322443Y-14683150D02*
X11284348Y-14683150D01*
X11284348Y-14683150D02*
X11265301Y-14692674D01*
X11351015Y-14806960D02*
X11331967Y-14816484D01*
X11331967Y-14816484D02*
X11284348Y-14816484D01*
X11284348Y-14816484D02*
X11265301Y-14806960D01*
X11265301Y-14806960D02*
X11255777Y-14787912D01*
X11255777Y-14787912D02*
X11255777Y-14768865D01*
X11255777Y-14768865D02*
X11265301Y-14749817D01*
X11265301Y-14749817D02*
X11284348Y-14740293D01*
X11284348Y-14740293D02*
X11331967Y-14740293D01*
X11331967Y-14740293D02*
X11351015Y-14730769D01*
X11446253Y-14683150D02*
X11446253Y-14883150D01*
X11446253Y-14692674D02*
X11465301Y-14683150D01*
X11465301Y-14683150D02*
X11503396Y-14683150D01*
X11503396Y-14683150D02*
X11522443Y-14692674D01*
X11522443Y-14692674D02*
X11531967Y-14702198D01*
X11531967Y-14702198D02*
X11541491Y-14721246D01*
X11541491Y-14721246D02*
X11541491Y-14778388D01*
X11541491Y-14778388D02*
X11531967Y-14797436D01*
X11531967Y-14797436D02*
X11522443Y-14806960D01*
X11522443Y-14806960D02*
X11503396Y-14816484D01*
X11503396Y-14816484D02*
X11465301Y-14816484D01*
X11465301Y-14816484D02*
X11446253Y-14806960D01*
X11627205Y-14797436D02*
X11636729Y-14806960D01*
X11636729Y-14806960D02*
X11627205Y-14816484D01*
X11627205Y-14816484D02*
X11617682Y-14806960D01*
X11617682Y-14806960D02*
X11627205Y-14797436D01*
X11627205Y-14797436D02*
X11627205Y-14816484D01*
X11627205Y-14692674D02*
X11636729Y-14702198D01*
X11636729Y-14702198D02*
X11627205Y-14711722D01*
X11627205Y-14711722D02*
X11617682Y-14702198D01*
X11617682Y-14702198D02*
X11627205Y-14692674D01*
X11627205Y-14692674D02*
X11627205Y-14711722D01*
D10*
X9965000Y-15130000D02*
X9995000Y-15160000D01*
X9995000Y-15130000D02*
X9965000Y-15160000D01*
D11*
X10293872Y-15036484D02*
X10312920Y-15036484D01*
X10312920Y-15036484D02*
X10331967Y-15046008D01*
X10331967Y-15046008D02*
X10341491Y-15055531D01*
X10341491Y-15055531D02*
X10351015Y-15074579D01*
X10351015Y-15074579D02*
X10360539Y-15112674D01*
X10360539Y-15112674D02*
X10360539Y-15160293D01*
X10360539Y-15160293D02*
X10351015Y-15198388D01*
X10351015Y-15198388D02*
X10341491Y-15217436D01*
X10341491Y-15217436D02*
X10331967Y-15226960D01*
X10331967Y-15226960D02*
X10312920Y-15236484D01*
X10312920Y-15236484D02*
X10293872Y-15236484D01*
X10293872Y-15236484D02*
X10274824Y-15226960D01*
X10274824Y-15226960D02*
X10265301Y-15217436D01*
X10265301Y-15217436D02*
X10255777Y-15198388D01*
X10255777Y-15198388D02*
X10246253Y-15160293D01*
X10246253Y-15160293D02*
X10246253Y-15112674D01*
X10246253Y-15112674D02*
X10255777Y-15074579D01*
X10255777Y-15074579D02*
X10265301Y-15055531D01*
X10265301Y-15055531D02*
X10274824Y-15046008D01*
X10274824Y-15046008D02*
X10293872Y-15036484D01*
X10446253Y-15217436D02*
X10455777Y-15226960D01*
X10455777Y-15226960D02*
X10446253Y-15236484D01*
X10446253Y-15236484D02*
X10436729Y-15226960D01*
X10436729Y-15226960D02*
X10446253Y-15217436D01*
X10446253Y-15217436D02*
X10446253Y-15236484D01*
X10522444Y-15036484D02*
X10646253Y-15036484D01*
X10646253Y-15036484D02*
X10579586Y-15112674D01*
X10579586Y-15112674D02*
X10608158Y-15112674D01*
X10608158Y-15112674D02*
X10627205Y-15122198D01*
X10627205Y-15122198D02*
X10636729Y-15131722D01*
X10636729Y-15131722D02*
X10646253Y-15150769D01*
X10646253Y-15150769D02*
X10646253Y-15198388D01*
X10646253Y-15198388D02*
X10636729Y-15217436D01*
X10636729Y-15217436D02*
X10627205Y-15226960D01*
X10627205Y-15226960D02*
X10608158Y-15236484D01*
X10608158Y-15236484D02*
X10551015Y-15236484D01*
X10551015Y-15236484D02*
X10531967Y-15226960D01*
X10531967Y-15226960D02*
X10522444Y-15217436D01*
X10770063Y-15036484D02*
X10789110Y-15036484D01*
X10789110Y-15036484D02*
X10808158Y-15046008D01*
X10808158Y-15046008D02*
X10817682Y-15055531D01*
X10817682Y-15055531D02*
X10827205Y-15074579D01*
X10827205Y-15074579D02*
X10836729Y-15112674D01*
X10836729Y-15112674D02*
X10836729Y-15160293D01*
X10836729Y-15160293D02*
X10827205Y-15198388D01*
X10827205Y-15198388D02*
X10817682Y-15217436D01*
X10817682Y-15217436D02*
X10808158Y-15226960D01*
X10808158Y-15226960D02*
X10789110Y-15236484D01*
X10789110Y-15236484D02*
X10770063Y-15236484D01*
X10770063Y-15236484D02*
X10751015Y-15226960D01*
X10751015Y-15226960D02*
X10741491Y-15217436D01*
X10741491Y-15217436D02*
X10731967Y-15198388D01*
X10731967Y-15198388D02*
X10722444Y-15160293D01*
X10722444Y-15160293D02*
X10722444Y-15112674D01*
X10722444Y-15112674D02*
X10731967Y-15074579D01*
X10731967Y-15074579D02*
X10741491Y-15055531D01*
X10741491Y-15055531D02*
X10751015Y-15046008D01*
X10751015Y-15046008D02*
X10770063Y-15036484D01*
X10960539Y-15036484D02*
X10979586Y-15036484D01*
X10979586Y-15036484D02*
X10998634Y-15046008D01*
X10998634Y-15046008D02*
X11008158Y-15055531D01*
X11008158Y-15055531D02*
X11017682Y-15074579D01*
X11017682Y-15074579D02*
X11027205Y-15112674D01*
X11027205Y-15112674D02*
X11027205Y-15160293D01*
X11027205Y-15160293D02*
X11017682Y-15198388D01*
X11017682Y-15198388D02*
X11008158Y-15217436D01*
X11008158Y-15217436D02*
X10998634Y-15226960D01*
X10998634Y-15226960D02*
X10979586Y-15236484D01*
X10979586Y-15236484D02*
X10960539Y-15236484D01*
X10960539Y-15236484D02*
X10941491Y-15226960D01*
X10941491Y-15226960D02*
X10931967Y-15217436D01*
X10931967Y-15217436D02*
X10922444Y-15198388D01*
X10922444Y-15198388D02*
X10912920Y-15160293D01*
X10912920Y-15160293D02*
X10912920Y-15112674D01*
X10912920Y-15112674D02*
X10922444Y-15074579D01*
X10922444Y-15074579D02*
X10931967Y-15055531D01*
X10931967Y-15055531D02*
X10941491Y-15046008D01*
X10941491Y-15046008D02*
X10960539Y-15036484D01*
X11112920Y-15236484D02*
X11112920Y-15103150D01*
X11112920Y-15122198D02*
X11122444Y-15112674D01*
X11122444Y-15112674D02*
X11141491Y-15103150D01*
X11141491Y-15103150D02*
X11170063Y-15103150D01*
X11170063Y-15103150D02*
X11189110Y-15112674D01*
X11189110Y-15112674D02*
X11198634Y-15131722D01*
X11198634Y-15131722D02*
X11198634Y-15236484D01*
X11198634Y-15131722D02*
X11208158Y-15112674D01*
X11208158Y-15112674D02*
X11227205Y-15103150D01*
X11227205Y-15103150D02*
X11255777Y-15103150D01*
X11255777Y-15103150D02*
X11274824Y-15112674D01*
X11274824Y-15112674D02*
X11284348Y-15131722D01*
X11284348Y-15131722D02*
X11284348Y-15236484D01*
X11379586Y-15236484D02*
X11379586Y-15103150D01*
X11379586Y-15122198D02*
X11389110Y-15112674D01*
X11389110Y-15112674D02*
X11408158Y-15103150D01*
X11408158Y-15103150D02*
X11436729Y-15103150D01*
X11436729Y-15103150D02*
X11455777Y-15112674D01*
X11455777Y-15112674D02*
X11465301Y-15131722D01*
X11465301Y-15131722D02*
X11465301Y-15236484D01*
X11465301Y-15131722D02*
X11474824Y-15112674D01*
X11474824Y-15112674D02*
X11493872Y-15103150D01*
X11493872Y-15103150D02*
X11522443Y-15103150D01*
X11522443Y-15103150D02*
X11541491Y-15112674D01*
X11541491Y-15112674D02*
X11551015Y-15131722D01*
X11551015Y-15131722D02*
X11551015Y-15236484D01*
X11941491Y-15026960D02*
X11770063Y-15284103D01*
X12198634Y-15036484D02*
X12217682Y-15036484D01*
X12217682Y-15036484D02*
X12236729Y-15046008D01*
X12236729Y-15046008D02*
X12246253Y-15055531D01*
X12246253Y-15055531D02*
X12255777Y-15074579D01*
X12255777Y-15074579D02*
X12265301Y-15112674D01*
X12265301Y-15112674D02*
X12265301Y-15160293D01*
X12265301Y-15160293D02*
X12255777Y-15198388D01*
X12255777Y-15198388D02*
X12246253Y-15217436D01*
X12246253Y-15217436D02*
X12236729Y-15226960D01*
X12236729Y-15226960D02*
X12217682Y-15236484D01*
X12217682Y-15236484D02*
X12198634Y-15236484D01*
X12198634Y-15236484D02*
X12179586Y-15226960D01*
X12179586Y-15226960D02*
X12170063Y-15217436D01*
X12170063Y-15217436D02*
X12160539Y-15198388D01*
X12160539Y-15198388D02*
X12151015Y-15160293D01*
X12151015Y-15160293D02*
X12151015Y-15112674D01*
X12151015Y-15112674D02*
X12160539Y-15074579D01*
X12160539Y-15074579D02*
X12170063Y-15055531D01*
X12170063Y-15055531D02*
X12179586Y-15046008D01*
X12179586Y-15046008D02*
X12198634Y-15036484D01*
X12351015Y-15217436D02*
X12360539Y-15226960D01*
X12360539Y-15226960D02*
X12351015Y-15236484D01*
X12351015Y-15236484D02*
X12341491Y-15226960D01*
X12341491Y-15226960D02*
X12351015Y-15217436D01*
X12351015Y-15217436D02*
X12351015Y-15236484D01*
X12484348Y-15036484D02*
X12503396Y-15036484D01*
X12503396Y-15036484D02*
X12522444Y-15046008D01*
X12522444Y-15046008D02*
X12531967Y-15055531D01*
X12531967Y-15055531D02*
X12541491Y-15074579D01*
X12541491Y-15074579D02*
X12551015Y-15112674D01*
X12551015Y-15112674D02*
X12551015Y-15160293D01*
X12551015Y-15160293D02*
X12541491Y-15198388D01*
X12541491Y-15198388D02*
X12531967Y-15217436D01*
X12531967Y-15217436D02*
X12522444Y-15226960D01*
X12522444Y-15226960D02*
X12503396Y-15236484D01*
X12503396Y-15236484D02*
X12484348Y-15236484D01*
X12484348Y-15236484D02*
X12465301Y-15226960D01*
X12465301Y-15226960D02*
X12455777Y-15217436D01*
X12455777Y-15217436D02*
X12446253Y-15198388D01*
X12446253Y-15198388D02*
X12436729Y-15160293D01*
X12436729Y-15160293D02*
X12436729Y-15112674D01*
X12436729Y-15112674D02*
X12446253Y-15074579D01*
X12446253Y-15074579D02*
X12455777Y-15055531D01*
X12455777Y-15055531D02*
X12465301Y-15046008D01*
X12465301Y-15046008D02*
X12484348Y-15036484D01*
X12741491Y-15236484D02*
X12627206Y-15236484D01*
X12684348Y-15236484D02*
X12684348Y-15036484D01*
X12684348Y-15036484D02*
X12665301Y-15065055D01*
X12665301Y-15065055D02*
X12646253Y-15084103D01*
X12646253Y-15084103D02*
X12627206Y-15093627D01*
X12931967Y-15236484D02*
X12817682Y-15236484D01*
X12874825Y-15236484D02*
X12874825Y-15036484D01*
X12874825Y-15036484D02*
X12855777Y-15065055D01*
X12855777Y-15065055D02*
X12836729Y-15084103D01*
X12836729Y-15084103D02*
X12817682Y-15093627D01*
X13046253Y-15122198D02*
X13027206Y-15112674D01*
X13027206Y-15112674D02*
X13017682Y-15103150D01*
X13017682Y-15103150D02*
X13008158Y-15084103D01*
X13008158Y-15084103D02*
X13008158Y-15074579D01*
X13008158Y-15074579D02*
X13017682Y-15055531D01*
X13017682Y-15055531D02*
X13027206Y-15046008D01*
X13027206Y-15046008D02*
X13046253Y-15036484D01*
X13046253Y-15036484D02*
X13084348Y-15036484D01*
X13084348Y-15036484D02*
X13103396Y-15046008D01*
X13103396Y-15046008D02*
X13112920Y-15055531D01*
X13112920Y-15055531D02*
X13122444Y-15074579D01*
X13122444Y-15074579D02*
X13122444Y-15084103D01*
X13122444Y-15084103D02*
X13112920Y-15103150D01*
X13112920Y-15103150D02*
X13103396Y-15112674D01*
X13103396Y-15112674D02*
X13084348Y-15122198D01*
X13084348Y-15122198D02*
X13046253Y-15122198D01*
X13046253Y-15122198D02*
X13027206Y-15131722D01*
X13027206Y-15131722D02*
X13017682Y-15141246D01*
X13017682Y-15141246D02*
X13008158Y-15160293D01*
X13008158Y-15160293D02*
X13008158Y-15198388D01*
X13008158Y-15198388D02*
X13017682Y-15217436D01*
X13017682Y-15217436D02*
X13027206Y-15226960D01*
X13027206Y-15226960D02*
X13046253Y-15236484D01*
X13046253Y-15236484D02*
X13084348Y-15236484D01*
X13084348Y-15236484D02*
X13103396Y-15226960D01*
X13103396Y-15226960D02*
X13112920Y-15217436D01*
X13112920Y-15217436D02*
X13122444Y-15198388D01*
X13122444Y-15198388D02*
X13122444Y-15160293D01*
X13122444Y-15160293D02*
X13112920Y-15141246D01*
X13112920Y-15141246D02*
X13103396Y-15131722D01*
X13103396Y-15131722D02*
X13084348Y-15122198D01*
X13198634Y-15036484D02*
X13198634Y-15074579D01*
X13274825Y-15036484D02*
X13274825Y-15074579D01*
X13570063Y-15312674D02*
X13560539Y-15303150D01*
X13560539Y-15303150D02*
X13541491Y-15274579D01*
X13541491Y-15274579D02*
X13531968Y-15255531D01*
X13531968Y-15255531D02*
X13522444Y-15226960D01*
X13522444Y-15226960D02*
X13512920Y-15179341D01*
X13512920Y-15179341D02*
X13512920Y-15141246D01*
X13512920Y-15141246D02*
X13522444Y-15093627D01*
X13522444Y-15093627D02*
X13531968Y-15065055D01*
X13531968Y-15065055D02*
X13541491Y-15046008D01*
X13541491Y-15046008D02*
X13560539Y-15017436D01*
X13560539Y-15017436D02*
X13570063Y-15007912D01*
X13751015Y-15236484D02*
X13636729Y-15236484D01*
X13693872Y-15236484D02*
X13693872Y-15036484D01*
X13693872Y-15036484D02*
X13674825Y-15065055D01*
X13674825Y-15065055D02*
X13655777Y-15084103D01*
X13655777Y-15084103D02*
X13636729Y-15093627D01*
X13874825Y-15036484D02*
X13893872Y-15036484D01*
X13893872Y-15036484D02*
X13912920Y-15046008D01*
X13912920Y-15046008D02*
X13922444Y-15055531D01*
X13922444Y-15055531D02*
X13931968Y-15074579D01*
X13931968Y-15074579D02*
X13941491Y-15112674D01*
X13941491Y-15112674D02*
X13941491Y-15160293D01*
X13941491Y-15160293D02*
X13931968Y-15198388D01*
X13931968Y-15198388D02*
X13922444Y-15217436D01*
X13922444Y-15217436D02*
X13912920Y-15226960D01*
X13912920Y-15226960D02*
X13893872Y-15236484D01*
X13893872Y-15236484D02*
X13874825Y-15236484D01*
X13874825Y-15236484D02*
X13855777Y-15226960D01*
X13855777Y-15226960D02*
X13846253Y-15217436D01*
X13846253Y-15217436D02*
X13836729Y-15198388D01*
X13836729Y-15198388D02*
X13827206Y-15160293D01*
X13827206Y-15160293D02*
X13827206Y-15112674D01*
X13827206Y-15112674D02*
X13836729Y-15074579D01*
X13836729Y-15074579D02*
X13846253Y-15055531D01*
X13846253Y-15055531D02*
X13855777Y-15046008D01*
X13855777Y-15046008D02*
X13874825Y-15036484D01*
X14112920Y-15036484D02*
X14074825Y-15036484D01*
X14074825Y-15036484D02*
X14055777Y-15046008D01*
X14055777Y-15046008D02*
X14046253Y-15055531D01*
X14046253Y-15055531D02*
X14027206Y-15084103D01*
X14027206Y-15084103D02*
X14017682Y-15122198D01*
X14017682Y-15122198D02*
X14017682Y-15198388D01*
X14017682Y-15198388D02*
X14027206Y-15217436D01*
X14027206Y-15217436D02*
X14036729Y-15226960D01*
X14036729Y-15226960D02*
X14055777Y-15236484D01*
X14055777Y-15236484D02*
X14093872Y-15236484D01*
X14093872Y-15236484D02*
X14112920Y-15226960D01*
X14112920Y-15226960D02*
X14122444Y-15217436D01*
X14122444Y-15217436D02*
X14131968Y-15198388D01*
X14131968Y-15198388D02*
X14131968Y-15150769D01*
X14131968Y-15150769D02*
X14122444Y-15131722D01*
X14122444Y-15131722D02*
X14112920Y-15122198D01*
X14112920Y-15122198D02*
X14093872Y-15112674D01*
X14093872Y-15112674D02*
X14055777Y-15112674D01*
X14055777Y-15112674D02*
X14036729Y-15122198D01*
X14036729Y-15122198D02*
X14027206Y-15131722D01*
X14027206Y-15131722D02*
X14017682Y-15150769D01*
X14370063Y-15236484D02*
X14370063Y-15036484D01*
X14455777Y-15236484D02*
X14455777Y-15131722D01*
X14455777Y-15131722D02*
X14446253Y-15112674D01*
X14446253Y-15112674D02*
X14427206Y-15103150D01*
X14427206Y-15103150D02*
X14398634Y-15103150D01*
X14398634Y-15103150D02*
X14379587Y-15112674D01*
X14379587Y-15112674D02*
X14370063Y-15122198D01*
X14579587Y-15236484D02*
X14560539Y-15226960D01*
X14560539Y-15226960D02*
X14551015Y-15217436D01*
X14551015Y-15217436D02*
X14541491Y-15198388D01*
X14541491Y-15198388D02*
X14541491Y-15141246D01*
X14541491Y-15141246D02*
X14551015Y-15122198D01*
X14551015Y-15122198D02*
X14560539Y-15112674D01*
X14560539Y-15112674D02*
X14579587Y-15103150D01*
X14579587Y-15103150D02*
X14608158Y-15103150D01*
X14608158Y-15103150D02*
X14627206Y-15112674D01*
X14627206Y-15112674D02*
X14636730Y-15122198D01*
X14636730Y-15122198D02*
X14646253Y-15141246D01*
X14646253Y-15141246D02*
X14646253Y-15198388D01*
X14646253Y-15198388D02*
X14636730Y-15217436D01*
X14636730Y-15217436D02*
X14627206Y-15226960D01*
X14627206Y-15226960D02*
X14608158Y-15236484D01*
X14608158Y-15236484D02*
X14579587Y-15236484D01*
X14760539Y-15236484D02*
X14741491Y-15226960D01*
X14741491Y-15226960D02*
X14731968Y-15207912D01*
X14731968Y-15207912D02*
X14731968Y-15036484D01*
X14912920Y-15226960D02*
X14893872Y-15236484D01*
X14893872Y-15236484D02*
X14855777Y-15236484D01*
X14855777Y-15236484D02*
X14836730Y-15226960D01*
X14836730Y-15226960D02*
X14827206Y-15207912D01*
X14827206Y-15207912D02*
X14827206Y-15131722D01*
X14827206Y-15131722D02*
X14836730Y-15112674D01*
X14836730Y-15112674D02*
X14855777Y-15103150D01*
X14855777Y-15103150D02*
X14893872Y-15103150D01*
X14893872Y-15103150D02*
X14912920Y-15112674D01*
X14912920Y-15112674D02*
X14922444Y-15131722D01*
X14922444Y-15131722D02*
X14922444Y-15150769D01*
X14922444Y-15150769D02*
X14827206Y-15169817D01*
X14998634Y-15226960D02*
X15017682Y-15236484D01*
X15017682Y-15236484D02*
X15055777Y-15236484D01*
X15055777Y-15236484D02*
X15074825Y-15226960D01*
X15074825Y-15226960D02*
X15084349Y-15207912D01*
X15084349Y-15207912D02*
X15084349Y-15198388D01*
X15084349Y-15198388D02*
X15074825Y-15179341D01*
X15074825Y-15179341D02*
X15055777Y-15169817D01*
X15055777Y-15169817D02*
X15027206Y-15169817D01*
X15027206Y-15169817D02*
X15008158Y-15160293D01*
X15008158Y-15160293D02*
X14998634Y-15141246D01*
X14998634Y-15141246D02*
X14998634Y-15131722D01*
X14998634Y-15131722D02*
X15008158Y-15112674D01*
X15008158Y-15112674D02*
X15027206Y-15103150D01*
X15027206Y-15103150D02*
X15055777Y-15103150D01*
X15055777Y-15103150D02*
X15074825Y-15112674D01*
X15151015Y-15312674D02*
X15160539Y-15303150D01*
X15160539Y-15303150D02*
X15179587Y-15274579D01*
X15179587Y-15274579D02*
X15189111Y-15255531D01*
X15189111Y-15255531D02*
X15198634Y-15226960D01*
X15198634Y-15226960D02*
X15208158Y-15179341D01*
X15208158Y-15179341D02*
X15208158Y-15141246D01*
X15208158Y-15141246D02*
X15198634Y-15093627D01*
X15198634Y-15093627D02*
X15189111Y-15065055D01*
X15189111Y-15065055D02*
X15179587Y-15046008D01*
X15179587Y-15046008D02*
X15160539Y-15017436D01*
X15160539Y-15017436D02*
X15151015Y-15007912D01*
D10*
X9995000Y-15409000D02*
G75*
G02*
X9915000Y-15409000I-40000J0D01*
G01*
X9915000Y-15409000D02*
G75*
G02*
X9995000Y-15409000I40000J0D01*
G01*
D11*
X10293872Y-15300484D02*
X10312920Y-15300484D01*
X10312920Y-15300484D02*
X10331967Y-15310008D01*
X10331967Y-15310008D02*
X10341491Y-15319531D01*
X10341491Y-15319531D02*
X10351015Y-15338579D01*
X10351015Y-15338579D02*
X10360539Y-15376674D01*
X10360539Y-15376674D02*
X10360539Y-15424293D01*
X10360539Y-15424293D02*
X10351015Y-15462388D01*
X10351015Y-15462388D02*
X10341491Y-15481436D01*
X10341491Y-15481436D02*
X10331967Y-15490960D01*
X10331967Y-15490960D02*
X10312920Y-15500484D01*
X10312920Y-15500484D02*
X10293872Y-15500484D01*
X10293872Y-15500484D02*
X10274824Y-15490960D01*
X10274824Y-15490960D02*
X10265301Y-15481436D01*
X10265301Y-15481436D02*
X10255777Y-15462388D01*
X10255777Y-15462388D02*
X10246253Y-15424293D01*
X10246253Y-15424293D02*
X10246253Y-15376674D01*
X10246253Y-15376674D02*
X10255777Y-15338579D01*
X10255777Y-15338579D02*
X10265301Y-15319531D01*
X10265301Y-15319531D02*
X10274824Y-15310008D01*
X10274824Y-15310008D02*
X10293872Y-15300484D01*
X10446253Y-15481436D02*
X10455777Y-15490960D01*
X10455777Y-15490960D02*
X10446253Y-15500484D01*
X10446253Y-15500484D02*
X10436729Y-15490960D01*
X10436729Y-15490960D02*
X10446253Y-15481436D01*
X10446253Y-15481436D02*
X10446253Y-15500484D01*
X10570063Y-15386198D02*
X10551015Y-15376674D01*
X10551015Y-15376674D02*
X10541491Y-15367150D01*
X10541491Y-15367150D02*
X10531967Y-15348103D01*
X10531967Y-15348103D02*
X10531967Y-15338579D01*
X10531967Y-15338579D02*
X10541491Y-15319531D01*
X10541491Y-15319531D02*
X10551015Y-15310008D01*
X10551015Y-15310008D02*
X10570063Y-15300484D01*
X10570063Y-15300484D02*
X10608158Y-15300484D01*
X10608158Y-15300484D02*
X10627205Y-15310008D01*
X10627205Y-15310008D02*
X10636729Y-15319531D01*
X10636729Y-15319531D02*
X10646253Y-15338579D01*
X10646253Y-15338579D02*
X10646253Y-15348103D01*
X10646253Y-15348103D02*
X10636729Y-15367150D01*
X10636729Y-15367150D02*
X10627205Y-15376674D01*
X10627205Y-15376674D02*
X10608158Y-15386198D01*
X10608158Y-15386198D02*
X10570063Y-15386198D01*
X10570063Y-15386198D02*
X10551015Y-15395722D01*
X10551015Y-15395722D02*
X10541491Y-15405246D01*
X10541491Y-15405246D02*
X10531967Y-15424293D01*
X10531967Y-15424293D02*
X10531967Y-15462388D01*
X10531967Y-15462388D02*
X10541491Y-15481436D01*
X10541491Y-15481436D02*
X10551015Y-15490960D01*
X10551015Y-15490960D02*
X10570063Y-15500484D01*
X10570063Y-15500484D02*
X10608158Y-15500484D01*
X10608158Y-15500484D02*
X10627205Y-15490960D01*
X10627205Y-15490960D02*
X10636729Y-15481436D01*
X10636729Y-15481436D02*
X10646253Y-15462388D01*
X10646253Y-15462388D02*
X10646253Y-15424293D01*
X10646253Y-15424293D02*
X10636729Y-15405246D01*
X10636729Y-15405246D02*
X10627205Y-15395722D01*
X10627205Y-15395722D02*
X10608158Y-15386198D01*
X10770063Y-15300484D02*
X10789110Y-15300484D01*
X10789110Y-15300484D02*
X10808158Y-15310008D01*
X10808158Y-15310008D02*
X10817682Y-15319531D01*
X10817682Y-15319531D02*
X10827205Y-15338579D01*
X10827205Y-15338579D02*
X10836729Y-15376674D01*
X10836729Y-15376674D02*
X10836729Y-15424293D01*
X10836729Y-15424293D02*
X10827205Y-15462388D01*
X10827205Y-15462388D02*
X10817682Y-15481436D01*
X10817682Y-15481436D02*
X10808158Y-15490960D01*
X10808158Y-15490960D02*
X10789110Y-15500484D01*
X10789110Y-15500484D02*
X10770063Y-15500484D01*
X10770063Y-15500484D02*
X10751015Y-15490960D01*
X10751015Y-15490960D02*
X10741491Y-15481436D01*
X10741491Y-15481436D02*
X10731967Y-15462388D01*
X10731967Y-15462388D02*
X10722444Y-15424293D01*
X10722444Y-15424293D02*
X10722444Y-15376674D01*
X10722444Y-15376674D02*
X10731967Y-15338579D01*
X10731967Y-15338579D02*
X10741491Y-15319531D01*
X10741491Y-15319531D02*
X10751015Y-15310008D01*
X10751015Y-15310008D02*
X10770063Y-15300484D01*
X10960539Y-15300484D02*
X10979586Y-15300484D01*
X10979586Y-15300484D02*
X10998634Y-15310008D01*
X10998634Y-15310008D02*
X11008158Y-15319531D01*
X11008158Y-15319531D02*
X11017682Y-15338579D01*
X11017682Y-15338579D02*
X11027205Y-15376674D01*
X11027205Y-15376674D02*
X11027205Y-15424293D01*
X11027205Y-15424293D02*
X11017682Y-15462388D01*
X11017682Y-15462388D02*
X11008158Y-15481436D01*
X11008158Y-15481436D02*
X10998634Y-15490960D01*
X10998634Y-15490960D02*
X10979586Y-15500484D01*
X10979586Y-15500484D02*
X10960539Y-15500484D01*
X10960539Y-15500484D02*
X10941491Y-15490960D01*
X10941491Y-15490960D02*
X10931967Y-15481436D01*
X10931967Y-15481436D02*
X10922444Y-15462388D01*
X10922444Y-15462388D02*
X10912920Y-15424293D01*
X10912920Y-15424293D02*
X10912920Y-15376674D01*
X10912920Y-15376674D02*
X10922444Y-15338579D01*
X10922444Y-15338579D02*
X10931967Y-15319531D01*
X10931967Y-15319531D02*
X10941491Y-15310008D01*
X10941491Y-15310008D02*
X10960539Y-15300484D01*
X11112920Y-15500484D02*
X11112920Y-15367150D01*
X11112920Y-15386198D02*
X11122444Y-15376674D01*
X11122444Y-15376674D02*
X11141491Y-15367150D01*
X11141491Y-15367150D02*
X11170063Y-15367150D01*
X11170063Y-15367150D02*
X11189110Y-15376674D01*
X11189110Y-15376674D02*
X11198634Y-15395722D01*
X11198634Y-15395722D02*
X11198634Y-15500484D01*
X11198634Y-15395722D02*
X11208158Y-15376674D01*
X11208158Y-15376674D02*
X11227205Y-15367150D01*
X11227205Y-15367150D02*
X11255777Y-15367150D01*
X11255777Y-15367150D02*
X11274824Y-15376674D01*
X11274824Y-15376674D02*
X11284348Y-15395722D01*
X11284348Y-15395722D02*
X11284348Y-15500484D01*
X11379586Y-15500484D02*
X11379586Y-15367150D01*
X11379586Y-15386198D02*
X11389110Y-15376674D01*
X11389110Y-15376674D02*
X11408158Y-15367150D01*
X11408158Y-15367150D02*
X11436729Y-15367150D01*
X11436729Y-15367150D02*
X11455777Y-15376674D01*
X11455777Y-15376674D02*
X11465301Y-15395722D01*
X11465301Y-15395722D02*
X11465301Y-15500484D01*
X11465301Y-15395722D02*
X11474824Y-15376674D01*
X11474824Y-15376674D02*
X11493872Y-15367150D01*
X11493872Y-15367150D02*
X11522443Y-15367150D01*
X11522443Y-15367150D02*
X11541491Y-15376674D01*
X11541491Y-15376674D02*
X11551015Y-15395722D01*
X11551015Y-15395722D02*
X11551015Y-15500484D01*
X11941491Y-15290960D02*
X11770063Y-15548103D01*
X12198634Y-15300484D02*
X12217682Y-15300484D01*
X12217682Y-15300484D02*
X12236729Y-15310008D01*
X12236729Y-15310008D02*
X12246253Y-15319531D01*
X12246253Y-15319531D02*
X12255777Y-15338579D01*
X12255777Y-15338579D02*
X12265301Y-15376674D01*
X12265301Y-15376674D02*
X12265301Y-15424293D01*
X12265301Y-15424293D02*
X12255777Y-15462388D01*
X12255777Y-15462388D02*
X12246253Y-15481436D01*
X12246253Y-15481436D02*
X12236729Y-15490960D01*
X12236729Y-15490960D02*
X12217682Y-15500484D01*
X12217682Y-15500484D02*
X12198634Y-15500484D01*
X12198634Y-15500484D02*
X12179586Y-15490960D01*
X12179586Y-15490960D02*
X12170063Y-15481436D01*
X12170063Y-15481436D02*
X12160539Y-15462388D01*
X12160539Y-15462388D02*
X12151015Y-15424293D01*
X12151015Y-15424293D02*
X12151015Y-15376674D01*
X12151015Y-15376674D02*
X12160539Y-15338579D01*
X12160539Y-15338579D02*
X12170063Y-15319531D01*
X12170063Y-15319531D02*
X12179586Y-15310008D01*
X12179586Y-15310008D02*
X12198634Y-15300484D01*
X12351015Y-15481436D02*
X12360539Y-15490960D01*
X12360539Y-15490960D02*
X12351015Y-15500484D01*
X12351015Y-15500484D02*
X12341491Y-15490960D01*
X12341491Y-15490960D02*
X12351015Y-15481436D01*
X12351015Y-15481436D02*
X12351015Y-15500484D01*
X12484348Y-15300484D02*
X12503396Y-15300484D01*
X12503396Y-15300484D02*
X12522444Y-15310008D01*
X12522444Y-15310008D02*
X12531967Y-15319531D01*
X12531967Y-15319531D02*
X12541491Y-15338579D01*
X12541491Y-15338579D02*
X12551015Y-15376674D01*
X12551015Y-15376674D02*
X12551015Y-15424293D01*
X12551015Y-15424293D02*
X12541491Y-15462388D01*
X12541491Y-15462388D02*
X12531967Y-15481436D01*
X12531967Y-15481436D02*
X12522444Y-15490960D01*
X12522444Y-15490960D02*
X12503396Y-15500484D01*
X12503396Y-15500484D02*
X12484348Y-15500484D01*
X12484348Y-15500484D02*
X12465301Y-15490960D01*
X12465301Y-15490960D02*
X12455777Y-15481436D01*
X12455777Y-15481436D02*
X12446253Y-15462388D01*
X12446253Y-15462388D02*
X12436729Y-15424293D01*
X12436729Y-15424293D02*
X12436729Y-15376674D01*
X12436729Y-15376674D02*
X12446253Y-15338579D01*
X12446253Y-15338579D02*
X12455777Y-15319531D01*
X12455777Y-15319531D02*
X12465301Y-15310008D01*
X12465301Y-15310008D02*
X12484348Y-15300484D01*
X12617682Y-15300484D02*
X12741491Y-15300484D01*
X12741491Y-15300484D02*
X12674825Y-15376674D01*
X12674825Y-15376674D02*
X12703396Y-15376674D01*
X12703396Y-15376674D02*
X12722444Y-15386198D01*
X12722444Y-15386198D02*
X12731967Y-15395722D01*
X12731967Y-15395722D02*
X12741491Y-15414769D01*
X12741491Y-15414769D02*
X12741491Y-15462388D01*
X12741491Y-15462388D02*
X12731967Y-15481436D01*
X12731967Y-15481436D02*
X12722444Y-15490960D01*
X12722444Y-15490960D02*
X12703396Y-15500484D01*
X12703396Y-15500484D02*
X12646253Y-15500484D01*
X12646253Y-15500484D02*
X12627206Y-15490960D01*
X12627206Y-15490960D02*
X12617682Y-15481436D01*
X12931967Y-15500484D02*
X12817682Y-15500484D01*
X12874825Y-15500484D02*
X12874825Y-15300484D01*
X12874825Y-15300484D02*
X12855777Y-15329055D01*
X12855777Y-15329055D02*
X12836729Y-15348103D01*
X12836729Y-15348103D02*
X12817682Y-15357627D01*
X13112920Y-15300484D02*
X13017682Y-15300484D01*
X13017682Y-15300484D02*
X13008158Y-15395722D01*
X13008158Y-15395722D02*
X13017682Y-15386198D01*
X13017682Y-15386198D02*
X13036729Y-15376674D01*
X13036729Y-15376674D02*
X13084348Y-15376674D01*
X13084348Y-15376674D02*
X13103396Y-15386198D01*
X13103396Y-15386198D02*
X13112920Y-15395722D01*
X13112920Y-15395722D02*
X13122444Y-15414769D01*
X13122444Y-15414769D02*
X13122444Y-15462388D01*
X13122444Y-15462388D02*
X13112920Y-15481436D01*
X13112920Y-15481436D02*
X13103396Y-15490960D01*
X13103396Y-15490960D02*
X13084348Y-15500484D01*
X13084348Y-15500484D02*
X13036729Y-15500484D01*
X13036729Y-15500484D02*
X13017682Y-15490960D01*
X13017682Y-15490960D02*
X13008158Y-15481436D01*
X13198634Y-15300484D02*
X13198634Y-15338579D01*
X13274825Y-15300484D02*
X13274825Y-15338579D01*
X13570063Y-15576674D02*
X13560539Y-15567150D01*
X13560539Y-15567150D02*
X13541491Y-15538579D01*
X13541491Y-15538579D02*
X13531968Y-15519531D01*
X13531968Y-15519531D02*
X13522444Y-15490960D01*
X13522444Y-15490960D02*
X13512920Y-15443341D01*
X13512920Y-15443341D02*
X13512920Y-15405246D01*
X13512920Y-15405246D02*
X13522444Y-15357627D01*
X13522444Y-15357627D02*
X13531968Y-15329055D01*
X13531968Y-15329055D02*
X13541491Y-15310008D01*
X13541491Y-15310008D02*
X13560539Y-15281436D01*
X13560539Y-15281436D02*
X13570063Y-15271912D01*
X13741491Y-15300484D02*
X13646253Y-15300484D01*
X13646253Y-15300484D02*
X13636729Y-15395722D01*
X13636729Y-15395722D02*
X13646253Y-15386198D01*
X13646253Y-15386198D02*
X13665301Y-15376674D01*
X13665301Y-15376674D02*
X13712920Y-15376674D01*
X13712920Y-15376674D02*
X13731968Y-15386198D01*
X13731968Y-15386198D02*
X13741491Y-15395722D01*
X13741491Y-15395722D02*
X13751015Y-15414769D01*
X13751015Y-15414769D02*
X13751015Y-15462388D01*
X13751015Y-15462388D02*
X13741491Y-15481436D01*
X13741491Y-15481436D02*
X13731968Y-15490960D01*
X13731968Y-15490960D02*
X13712920Y-15500484D01*
X13712920Y-15500484D02*
X13665301Y-15500484D01*
X13665301Y-15500484D02*
X13646253Y-15490960D01*
X13646253Y-15490960D02*
X13636729Y-15481436D01*
X13922444Y-15367150D02*
X13922444Y-15500484D01*
X13874825Y-15290960D02*
X13827206Y-15433817D01*
X13827206Y-15433817D02*
X13951015Y-15433817D01*
X14179587Y-15500484D02*
X14179587Y-15300484D01*
X14265301Y-15500484D02*
X14265301Y-15395722D01*
X14265301Y-15395722D02*
X14255777Y-15376674D01*
X14255777Y-15376674D02*
X14236730Y-15367150D01*
X14236730Y-15367150D02*
X14208158Y-15367150D01*
X14208158Y-15367150D02*
X14189110Y-15376674D01*
X14189110Y-15376674D02*
X14179587Y-15386198D01*
X14389110Y-15500484D02*
X14370063Y-15490960D01*
X14370063Y-15490960D02*
X14360539Y-15481436D01*
X14360539Y-15481436D02*
X14351015Y-15462388D01*
X14351015Y-15462388D02*
X14351015Y-15405246D01*
X14351015Y-15405246D02*
X14360539Y-15386198D01*
X14360539Y-15386198D02*
X14370063Y-15376674D01*
X14370063Y-15376674D02*
X14389110Y-15367150D01*
X14389110Y-15367150D02*
X14417682Y-15367150D01*
X14417682Y-15367150D02*
X14436730Y-15376674D01*
X14436730Y-15376674D02*
X14446253Y-15386198D01*
X14446253Y-15386198D02*
X14455777Y-15405246D01*
X14455777Y-15405246D02*
X14455777Y-15462388D01*
X14455777Y-15462388D02*
X14446253Y-15481436D01*
X14446253Y-15481436D02*
X14436730Y-15490960D01*
X14436730Y-15490960D02*
X14417682Y-15500484D01*
X14417682Y-15500484D02*
X14389110Y-15500484D01*
X14570063Y-15500484D02*
X14551015Y-15490960D01*
X14551015Y-15490960D02*
X14541491Y-15471912D01*
X14541491Y-15471912D02*
X14541491Y-15300484D01*
X14722444Y-15490960D02*
X14703396Y-15500484D01*
X14703396Y-15500484D02*
X14665301Y-15500484D01*
X14665301Y-15500484D02*
X14646253Y-15490960D01*
X14646253Y-15490960D02*
X14636730Y-15471912D01*
X14636730Y-15471912D02*
X14636730Y-15395722D01*
X14636730Y-15395722D02*
X14646253Y-15376674D01*
X14646253Y-15376674D02*
X14665301Y-15367150D01*
X14665301Y-15367150D02*
X14703396Y-15367150D01*
X14703396Y-15367150D02*
X14722444Y-15376674D01*
X14722444Y-15376674D02*
X14731968Y-15395722D01*
X14731968Y-15395722D02*
X14731968Y-15414769D01*
X14731968Y-15414769D02*
X14636730Y-15433817D01*
X14808158Y-15490960D02*
X14827206Y-15500484D01*
X14827206Y-15500484D02*
X14865301Y-15500484D01*
X14865301Y-15500484D02*
X14884349Y-15490960D01*
X14884349Y-15490960D02*
X14893872Y-15471912D01*
X14893872Y-15471912D02*
X14893872Y-15462388D01*
X14893872Y-15462388D02*
X14884349Y-15443341D01*
X14884349Y-15443341D02*
X14865301Y-15433817D01*
X14865301Y-15433817D02*
X14836730Y-15433817D01*
X14836730Y-15433817D02*
X14817682Y-15424293D01*
X14817682Y-15424293D02*
X14808158Y-15405246D01*
X14808158Y-15405246D02*
X14808158Y-15395722D01*
X14808158Y-15395722D02*
X14817682Y-15376674D01*
X14817682Y-15376674D02*
X14836730Y-15367150D01*
X14836730Y-15367150D02*
X14865301Y-15367150D01*
X14865301Y-15367150D02*
X14884349Y-15376674D01*
X14960539Y-15576674D02*
X14970063Y-15567150D01*
X14970063Y-15567150D02*
X14989111Y-15538579D01*
X14989111Y-15538579D02*
X14998634Y-15519531D01*
X14998634Y-15519531D02*
X15008158Y-15490960D01*
X15008158Y-15490960D02*
X15017682Y-15443341D01*
X15017682Y-15443341D02*
X15017682Y-15405246D01*
X15017682Y-15405246D02*
X15008158Y-15357627D01*
X15008158Y-15357627D02*
X14998634Y-15329055D01*
X14998634Y-15329055D02*
X14989111Y-15310008D01*
X14989111Y-15310008D02*
X14970063Y-15281436D01*
X14970063Y-15281436D02*
X14960539Y-15271912D01*
D10*
X9945000Y-15623000D02*
X9945000Y-15723000D01*
X9895000Y-15673000D02*
X9995000Y-15673000D01*
D11*
X10360539Y-15764484D02*
X10246253Y-15764484D01*
X10303396Y-15764484D02*
X10303396Y-15564484D01*
X10303396Y-15564484D02*
X10284348Y-15593055D01*
X10284348Y-15593055D02*
X10265301Y-15612103D01*
X10265301Y-15612103D02*
X10246253Y-15621627D01*
X10446253Y-15745436D02*
X10455777Y-15754960D01*
X10455777Y-15754960D02*
X10446253Y-15764484D01*
X10446253Y-15764484D02*
X10436729Y-15754960D01*
X10436729Y-15754960D02*
X10446253Y-15745436D01*
X10446253Y-15745436D02*
X10446253Y-15764484D01*
X10579586Y-15564484D02*
X10598634Y-15564484D01*
X10598634Y-15564484D02*
X10617682Y-15574008D01*
X10617682Y-15574008D02*
X10627205Y-15583531D01*
X10627205Y-15583531D02*
X10636729Y-15602579D01*
X10636729Y-15602579D02*
X10646253Y-15640674D01*
X10646253Y-15640674D02*
X10646253Y-15688293D01*
X10646253Y-15688293D02*
X10636729Y-15726388D01*
X10636729Y-15726388D02*
X10627205Y-15745436D01*
X10627205Y-15745436D02*
X10617682Y-15754960D01*
X10617682Y-15754960D02*
X10598634Y-15764484D01*
X10598634Y-15764484D02*
X10579586Y-15764484D01*
X10579586Y-15764484D02*
X10560539Y-15754960D01*
X10560539Y-15754960D02*
X10551015Y-15745436D01*
X10551015Y-15745436D02*
X10541491Y-15726388D01*
X10541491Y-15726388D02*
X10531967Y-15688293D01*
X10531967Y-15688293D02*
X10531967Y-15640674D01*
X10531967Y-15640674D02*
X10541491Y-15602579D01*
X10541491Y-15602579D02*
X10551015Y-15583531D01*
X10551015Y-15583531D02*
X10560539Y-15574008D01*
X10560539Y-15574008D02*
X10579586Y-15564484D01*
X10770063Y-15564484D02*
X10789110Y-15564484D01*
X10789110Y-15564484D02*
X10808158Y-15574008D01*
X10808158Y-15574008D02*
X10817682Y-15583531D01*
X10817682Y-15583531D02*
X10827205Y-15602579D01*
X10827205Y-15602579D02*
X10836729Y-15640674D01*
X10836729Y-15640674D02*
X10836729Y-15688293D01*
X10836729Y-15688293D02*
X10827205Y-15726388D01*
X10827205Y-15726388D02*
X10817682Y-15745436D01*
X10817682Y-15745436D02*
X10808158Y-15754960D01*
X10808158Y-15754960D02*
X10789110Y-15764484D01*
X10789110Y-15764484D02*
X10770063Y-15764484D01*
X10770063Y-15764484D02*
X10751015Y-15754960D01*
X10751015Y-15754960D02*
X10741491Y-15745436D01*
X10741491Y-15745436D02*
X10731967Y-15726388D01*
X10731967Y-15726388D02*
X10722444Y-15688293D01*
X10722444Y-15688293D02*
X10722444Y-15640674D01*
X10722444Y-15640674D02*
X10731967Y-15602579D01*
X10731967Y-15602579D02*
X10741491Y-15583531D01*
X10741491Y-15583531D02*
X10751015Y-15574008D01*
X10751015Y-15574008D02*
X10770063Y-15564484D01*
X10960539Y-15564484D02*
X10979586Y-15564484D01*
X10979586Y-15564484D02*
X10998634Y-15574008D01*
X10998634Y-15574008D02*
X11008158Y-15583531D01*
X11008158Y-15583531D02*
X11017682Y-15602579D01*
X11017682Y-15602579D02*
X11027205Y-15640674D01*
X11027205Y-15640674D02*
X11027205Y-15688293D01*
X11027205Y-15688293D02*
X11017682Y-15726388D01*
X11017682Y-15726388D02*
X11008158Y-15745436D01*
X11008158Y-15745436D02*
X10998634Y-15754960D01*
X10998634Y-15754960D02*
X10979586Y-15764484D01*
X10979586Y-15764484D02*
X10960539Y-15764484D01*
X10960539Y-15764484D02*
X10941491Y-15754960D01*
X10941491Y-15754960D02*
X10931967Y-15745436D01*
X10931967Y-15745436D02*
X10922444Y-15726388D01*
X10922444Y-15726388D02*
X10912920Y-15688293D01*
X10912920Y-15688293D02*
X10912920Y-15640674D01*
X10912920Y-15640674D02*
X10922444Y-15602579D01*
X10922444Y-15602579D02*
X10931967Y-15583531D01*
X10931967Y-15583531D02*
X10941491Y-15574008D01*
X10941491Y-15574008D02*
X10960539Y-15564484D01*
X11112920Y-15764484D02*
X11112920Y-15631150D01*
X11112920Y-15650198D02*
X11122444Y-15640674D01*
X11122444Y-15640674D02*
X11141491Y-15631150D01*
X11141491Y-15631150D02*
X11170063Y-15631150D01*
X11170063Y-15631150D02*
X11189110Y-15640674D01*
X11189110Y-15640674D02*
X11198634Y-15659722D01*
X11198634Y-15659722D02*
X11198634Y-15764484D01*
X11198634Y-15659722D02*
X11208158Y-15640674D01*
X11208158Y-15640674D02*
X11227205Y-15631150D01*
X11227205Y-15631150D02*
X11255777Y-15631150D01*
X11255777Y-15631150D02*
X11274824Y-15640674D01*
X11274824Y-15640674D02*
X11284348Y-15659722D01*
X11284348Y-15659722D02*
X11284348Y-15764484D01*
X11379586Y-15764484D02*
X11379586Y-15631150D01*
X11379586Y-15650198D02*
X11389110Y-15640674D01*
X11389110Y-15640674D02*
X11408158Y-15631150D01*
X11408158Y-15631150D02*
X11436729Y-15631150D01*
X11436729Y-15631150D02*
X11455777Y-15640674D01*
X11455777Y-15640674D02*
X11465301Y-15659722D01*
X11465301Y-15659722D02*
X11465301Y-15764484D01*
X11465301Y-15659722D02*
X11474824Y-15640674D01*
X11474824Y-15640674D02*
X11493872Y-15631150D01*
X11493872Y-15631150D02*
X11522443Y-15631150D01*
X11522443Y-15631150D02*
X11541491Y-15640674D01*
X11541491Y-15640674D02*
X11551015Y-15659722D01*
X11551015Y-15659722D02*
X11551015Y-15764484D01*
X11941491Y-15554960D02*
X11770063Y-15812103D01*
X12198634Y-15564484D02*
X12217682Y-15564484D01*
X12217682Y-15564484D02*
X12236729Y-15574008D01*
X12236729Y-15574008D02*
X12246253Y-15583531D01*
X12246253Y-15583531D02*
X12255777Y-15602579D01*
X12255777Y-15602579D02*
X12265301Y-15640674D01*
X12265301Y-15640674D02*
X12265301Y-15688293D01*
X12265301Y-15688293D02*
X12255777Y-15726388D01*
X12255777Y-15726388D02*
X12246253Y-15745436D01*
X12246253Y-15745436D02*
X12236729Y-15754960D01*
X12236729Y-15754960D02*
X12217682Y-15764484D01*
X12217682Y-15764484D02*
X12198634Y-15764484D01*
X12198634Y-15764484D02*
X12179586Y-15754960D01*
X12179586Y-15754960D02*
X12170063Y-15745436D01*
X12170063Y-15745436D02*
X12160539Y-15726388D01*
X12160539Y-15726388D02*
X12151015Y-15688293D01*
X12151015Y-15688293D02*
X12151015Y-15640674D01*
X12151015Y-15640674D02*
X12160539Y-15602579D01*
X12160539Y-15602579D02*
X12170063Y-15583531D01*
X12170063Y-15583531D02*
X12179586Y-15574008D01*
X12179586Y-15574008D02*
X12198634Y-15564484D01*
X12351015Y-15745436D02*
X12360539Y-15754960D01*
X12360539Y-15754960D02*
X12351015Y-15764484D01*
X12351015Y-15764484D02*
X12341491Y-15754960D01*
X12341491Y-15754960D02*
X12351015Y-15745436D01*
X12351015Y-15745436D02*
X12351015Y-15764484D01*
X12484348Y-15564484D02*
X12503396Y-15564484D01*
X12503396Y-15564484D02*
X12522444Y-15574008D01*
X12522444Y-15574008D02*
X12531967Y-15583531D01*
X12531967Y-15583531D02*
X12541491Y-15602579D01*
X12541491Y-15602579D02*
X12551015Y-15640674D01*
X12551015Y-15640674D02*
X12551015Y-15688293D01*
X12551015Y-15688293D02*
X12541491Y-15726388D01*
X12541491Y-15726388D02*
X12531967Y-15745436D01*
X12531967Y-15745436D02*
X12522444Y-15754960D01*
X12522444Y-15754960D02*
X12503396Y-15764484D01*
X12503396Y-15764484D02*
X12484348Y-15764484D01*
X12484348Y-15764484D02*
X12465301Y-15754960D01*
X12465301Y-15754960D02*
X12455777Y-15745436D01*
X12455777Y-15745436D02*
X12446253Y-15726388D01*
X12446253Y-15726388D02*
X12436729Y-15688293D01*
X12436729Y-15688293D02*
X12436729Y-15640674D01*
X12436729Y-15640674D02*
X12446253Y-15602579D01*
X12446253Y-15602579D02*
X12455777Y-15583531D01*
X12455777Y-15583531D02*
X12465301Y-15574008D01*
X12465301Y-15574008D02*
X12484348Y-15564484D01*
X12617682Y-15564484D02*
X12741491Y-15564484D01*
X12741491Y-15564484D02*
X12674825Y-15640674D01*
X12674825Y-15640674D02*
X12703396Y-15640674D01*
X12703396Y-15640674D02*
X12722444Y-15650198D01*
X12722444Y-15650198D02*
X12731967Y-15659722D01*
X12731967Y-15659722D02*
X12741491Y-15678769D01*
X12741491Y-15678769D02*
X12741491Y-15726388D01*
X12741491Y-15726388D02*
X12731967Y-15745436D01*
X12731967Y-15745436D02*
X12722444Y-15754960D01*
X12722444Y-15754960D02*
X12703396Y-15764484D01*
X12703396Y-15764484D02*
X12646253Y-15764484D01*
X12646253Y-15764484D02*
X12627206Y-15754960D01*
X12627206Y-15754960D02*
X12617682Y-15745436D01*
X12836729Y-15764484D02*
X12874825Y-15764484D01*
X12874825Y-15764484D02*
X12893872Y-15754960D01*
X12893872Y-15754960D02*
X12903396Y-15745436D01*
X12903396Y-15745436D02*
X12922444Y-15716865D01*
X12922444Y-15716865D02*
X12931967Y-15678769D01*
X12931967Y-15678769D02*
X12931967Y-15602579D01*
X12931967Y-15602579D02*
X12922444Y-15583531D01*
X12922444Y-15583531D02*
X12912920Y-15574008D01*
X12912920Y-15574008D02*
X12893872Y-15564484D01*
X12893872Y-15564484D02*
X12855777Y-15564484D01*
X12855777Y-15564484D02*
X12836729Y-15574008D01*
X12836729Y-15574008D02*
X12827206Y-15583531D01*
X12827206Y-15583531D02*
X12817682Y-15602579D01*
X12817682Y-15602579D02*
X12817682Y-15650198D01*
X12817682Y-15650198D02*
X12827206Y-15669246D01*
X12827206Y-15669246D02*
X12836729Y-15678769D01*
X12836729Y-15678769D02*
X12855777Y-15688293D01*
X12855777Y-15688293D02*
X12893872Y-15688293D01*
X12893872Y-15688293D02*
X12912920Y-15678769D01*
X12912920Y-15678769D02*
X12922444Y-15669246D01*
X12922444Y-15669246D02*
X12931967Y-15650198D01*
X13103396Y-15631150D02*
X13103396Y-15764484D01*
X13055777Y-15554960D02*
X13008158Y-15697817D01*
X13008158Y-15697817D02*
X13131967Y-15697817D01*
X13198634Y-15564484D02*
X13198634Y-15602579D01*
X13274825Y-15564484D02*
X13274825Y-15602579D01*
X13570063Y-15840674D02*
X13560539Y-15831150D01*
X13560539Y-15831150D02*
X13541491Y-15802579D01*
X13541491Y-15802579D02*
X13531968Y-15783531D01*
X13531968Y-15783531D02*
X13522444Y-15754960D01*
X13522444Y-15754960D02*
X13512920Y-15707341D01*
X13512920Y-15707341D02*
X13512920Y-15669246D01*
X13512920Y-15669246D02*
X13522444Y-15621627D01*
X13522444Y-15621627D02*
X13531968Y-15593055D01*
X13531968Y-15593055D02*
X13541491Y-15574008D01*
X13541491Y-15574008D02*
X13560539Y-15545436D01*
X13560539Y-15545436D02*
X13570063Y-15535912D01*
X13731968Y-15564484D02*
X13693872Y-15564484D01*
X13693872Y-15564484D02*
X13674825Y-15574008D01*
X13674825Y-15574008D02*
X13665301Y-15583531D01*
X13665301Y-15583531D02*
X13646253Y-15612103D01*
X13646253Y-15612103D02*
X13636729Y-15650198D01*
X13636729Y-15650198D02*
X13636729Y-15726388D01*
X13636729Y-15726388D02*
X13646253Y-15745436D01*
X13646253Y-15745436D02*
X13655777Y-15754960D01*
X13655777Y-15754960D02*
X13674825Y-15764484D01*
X13674825Y-15764484D02*
X13712920Y-15764484D01*
X13712920Y-15764484D02*
X13731968Y-15754960D01*
X13731968Y-15754960D02*
X13741491Y-15745436D01*
X13741491Y-15745436D02*
X13751015Y-15726388D01*
X13751015Y-15726388D02*
X13751015Y-15678769D01*
X13751015Y-15678769D02*
X13741491Y-15659722D01*
X13741491Y-15659722D02*
X13731968Y-15650198D01*
X13731968Y-15650198D02*
X13712920Y-15640674D01*
X13712920Y-15640674D02*
X13674825Y-15640674D01*
X13674825Y-15640674D02*
X13655777Y-15650198D01*
X13655777Y-15650198D02*
X13646253Y-15659722D01*
X13646253Y-15659722D02*
X13636729Y-15678769D01*
X13874825Y-15564484D02*
X13893872Y-15564484D01*
X13893872Y-15564484D02*
X13912920Y-15574008D01*
X13912920Y-15574008D02*
X13922444Y-15583531D01*
X13922444Y-15583531D02*
X13931968Y-15602579D01*
X13931968Y-15602579D02*
X13941491Y-15640674D01*
X13941491Y-15640674D02*
X13941491Y-15688293D01*
X13941491Y-15688293D02*
X13931968Y-15726388D01*
X13931968Y-15726388D02*
X13922444Y-15745436D01*
X13922444Y-15745436D02*
X13912920Y-15754960D01*
X13912920Y-15754960D02*
X13893872Y-15764484D01*
X13893872Y-15764484D02*
X13874825Y-15764484D01*
X13874825Y-15764484D02*
X13855777Y-15754960D01*
X13855777Y-15754960D02*
X13846253Y-15745436D01*
X13846253Y-15745436D02*
X13836729Y-15726388D01*
X13836729Y-15726388D02*
X13827206Y-15688293D01*
X13827206Y-15688293D02*
X13827206Y-15640674D01*
X13827206Y-15640674D02*
X13836729Y-15602579D01*
X13836729Y-15602579D02*
X13846253Y-15583531D01*
X13846253Y-15583531D02*
X13855777Y-15574008D01*
X13855777Y-15574008D02*
X13874825Y-15564484D01*
X14179587Y-15764484D02*
X14179587Y-15564484D01*
X14265301Y-15764484D02*
X14265301Y-15659722D01*
X14265301Y-15659722D02*
X14255777Y-15640674D01*
X14255777Y-15640674D02*
X14236730Y-15631150D01*
X14236730Y-15631150D02*
X14208158Y-15631150D01*
X14208158Y-15631150D02*
X14189110Y-15640674D01*
X14189110Y-15640674D02*
X14179587Y-15650198D01*
X14389110Y-15764484D02*
X14370063Y-15754960D01*
X14370063Y-15754960D02*
X14360539Y-15745436D01*
X14360539Y-15745436D02*
X14351015Y-15726388D01*
X14351015Y-15726388D02*
X14351015Y-15669246D01*
X14351015Y-15669246D02*
X14360539Y-15650198D01*
X14360539Y-15650198D02*
X14370063Y-15640674D01*
X14370063Y-15640674D02*
X14389110Y-15631150D01*
X14389110Y-15631150D02*
X14417682Y-15631150D01*
X14417682Y-15631150D02*
X14436730Y-15640674D01*
X14436730Y-15640674D02*
X14446253Y-15650198D01*
X14446253Y-15650198D02*
X14455777Y-15669246D01*
X14455777Y-15669246D02*
X14455777Y-15726388D01*
X14455777Y-15726388D02*
X14446253Y-15745436D01*
X14446253Y-15745436D02*
X14436730Y-15754960D01*
X14436730Y-15754960D02*
X14417682Y-15764484D01*
X14417682Y-15764484D02*
X14389110Y-15764484D01*
X14570063Y-15764484D02*
X14551015Y-15754960D01*
X14551015Y-15754960D02*
X14541491Y-15735912D01*
X14541491Y-15735912D02*
X14541491Y-15564484D01*
X14722444Y-15754960D02*
X14703396Y-15764484D01*
X14703396Y-15764484D02*
X14665301Y-15764484D01*
X14665301Y-15764484D02*
X14646253Y-15754960D01*
X14646253Y-15754960D02*
X14636730Y-15735912D01*
X14636730Y-15735912D02*
X14636730Y-15659722D01*
X14636730Y-15659722D02*
X14646253Y-15640674D01*
X14646253Y-15640674D02*
X14665301Y-15631150D01*
X14665301Y-15631150D02*
X14703396Y-15631150D01*
X14703396Y-15631150D02*
X14722444Y-15640674D01*
X14722444Y-15640674D02*
X14731968Y-15659722D01*
X14731968Y-15659722D02*
X14731968Y-15678769D01*
X14731968Y-15678769D02*
X14636730Y-15697817D01*
X14808158Y-15754960D02*
X14827206Y-15764484D01*
X14827206Y-15764484D02*
X14865301Y-15764484D01*
X14865301Y-15764484D02*
X14884349Y-15754960D01*
X14884349Y-15754960D02*
X14893872Y-15735912D01*
X14893872Y-15735912D02*
X14893872Y-15726388D01*
X14893872Y-15726388D02*
X14884349Y-15707341D01*
X14884349Y-15707341D02*
X14865301Y-15697817D01*
X14865301Y-15697817D02*
X14836730Y-15697817D01*
X14836730Y-15697817D02*
X14817682Y-15688293D01*
X14817682Y-15688293D02*
X14808158Y-15669246D01*
X14808158Y-15669246D02*
X14808158Y-15659722D01*
X14808158Y-15659722D02*
X14817682Y-15640674D01*
X14817682Y-15640674D02*
X14836730Y-15631150D01*
X14836730Y-15631150D02*
X14865301Y-15631150D01*
X14865301Y-15631150D02*
X14884349Y-15640674D01*
X14960539Y-15840674D02*
X14970063Y-15831150D01*
X14970063Y-15831150D02*
X14989111Y-15802579D01*
X14989111Y-15802579D02*
X14998634Y-15783531D01*
X14998634Y-15783531D02*
X15008158Y-15754960D01*
X15008158Y-15754960D02*
X15017682Y-15707341D01*
X15017682Y-15707341D02*
X15017682Y-15669246D01*
X15017682Y-15669246D02*
X15008158Y-15621627D01*
X15008158Y-15621627D02*
X14998634Y-15593055D01*
X14998634Y-15593055D02*
X14989111Y-15574008D01*
X14989111Y-15574008D02*
X14970063Y-15545436D01*
X14970063Y-15545436D02*
X14960539Y-15535912D01*
D12*
X9977427Y-15979427D02*
X9977427Y-15894573D01*
X9892573Y-15894573D01*
X9892573Y-15979427D01*
X9977427Y-15979427D01*
D11*
X10360539Y-16028484D02*
X10246253Y-16028484D01*
X10303396Y-16028484D02*
X10303396Y-15828484D01*
X10303396Y-15828484D02*
X10284348Y-15857055D01*
X10284348Y-15857055D02*
X10265301Y-15876103D01*
X10265301Y-15876103D02*
X10246253Y-15885627D01*
X10446253Y-16009436D02*
X10455777Y-16018960D01*
X10455777Y-16018960D02*
X10446253Y-16028484D01*
X10446253Y-16028484D02*
X10436729Y-16018960D01*
X10436729Y-16018960D02*
X10446253Y-16009436D01*
X10446253Y-16009436D02*
X10446253Y-16028484D01*
X10531967Y-15847531D02*
X10541491Y-15838008D01*
X10541491Y-15838008D02*
X10560539Y-15828484D01*
X10560539Y-15828484D02*
X10608158Y-15828484D01*
X10608158Y-15828484D02*
X10627205Y-15838008D01*
X10627205Y-15838008D02*
X10636729Y-15847531D01*
X10636729Y-15847531D02*
X10646253Y-15866579D01*
X10646253Y-15866579D02*
X10646253Y-15885627D01*
X10646253Y-15885627D02*
X10636729Y-15914198D01*
X10636729Y-15914198D02*
X10522444Y-16028484D01*
X10522444Y-16028484D02*
X10646253Y-16028484D01*
X10770063Y-15828484D02*
X10789110Y-15828484D01*
X10789110Y-15828484D02*
X10808158Y-15838008D01*
X10808158Y-15838008D02*
X10817682Y-15847531D01*
X10817682Y-15847531D02*
X10827205Y-15866579D01*
X10827205Y-15866579D02*
X10836729Y-15904674D01*
X10836729Y-15904674D02*
X10836729Y-15952293D01*
X10836729Y-15952293D02*
X10827205Y-15990388D01*
X10827205Y-15990388D02*
X10817682Y-16009436D01*
X10817682Y-16009436D02*
X10808158Y-16018960D01*
X10808158Y-16018960D02*
X10789110Y-16028484D01*
X10789110Y-16028484D02*
X10770063Y-16028484D01*
X10770063Y-16028484D02*
X10751015Y-16018960D01*
X10751015Y-16018960D02*
X10741491Y-16009436D01*
X10741491Y-16009436D02*
X10731967Y-15990388D01*
X10731967Y-15990388D02*
X10722444Y-15952293D01*
X10722444Y-15952293D02*
X10722444Y-15904674D01*
X10722444Y-15904674D02*
X10731967Y-15866579D01*
X10731967Y-15866579D02*
X10741491Y-15847531D01*
X10741491Y-15847531D02*
X10751015Y-15838008D01*
X10751015Y-15838008D02*
X10770063Y-15828484D01*
X10960539Y-15828484D02*
X10979586Y-15828484D01*
X10979586Y-15828484D02*
X10998634Y-15838008D01*
X10998634Y-15838008D02*
X11008158Y-15847531D01*
X11008158Y-15847531D02*
X11017682Y-15866579D01*
X11017682Y-15866579D02*
X11027205Y-15904674D01*
X11027205Y-15904674D02*
X11027205Y-15952293D01*
X11027205Y-15952293D02*
X11017682Y-15990388D01*
X11017682Y-15990388D02*
X11008158Y-16009436D01*
X11008158Y-16009436D02*
X10998634Y-16018960D01*
X10998634Y-16018960D02*
X10979586Y-16028484D01*
X10979586Y-16028484D02*
X10960539Y-16028484D01*
X10960539Y-16028484D02*
X10941491Y-16018960D01*
X10941491Y-16018960D02*
X10931967Y-16009436D01*
X10931967Y-16009436D02*
X10922444Y-15990388D01*
X10922444Y-15990388D02*
X10912920Y-15952293D01*
X10912920Y-15952293D02*
X10912920Y-15904674D01*
X10912920Y-15904674D02*
X10922444Y-15866579D01*
X10922444Y-15866579D02*
X10931967Y-15847531D01*
X10931967Y-15847531D02*
X10941491Y-15838008D01*
X10941491Y-15838008D02*
X10960539Y-15828484D01*
X11112920Y-16028484D02*
X11112920Y-15895150D01*
X11112920Y-15914198D02*
X11122444Y-15904674D01*
X11122444Y-15904674D02*
X11141491Y-15895150D01*
X11141491Y-15895150D02*
X11170063Y-15895150D01*
X11170063Y-15895150D02*
X11189110Y-15904674D01*
X11189110Y-15904674D02*
X11198634Y-15923722D01*
X11198634Y-15923722D02*
X11198634Y-16028484D01*
X11198634Y-15923722D02*
X11208158Y-15904674D01*
X11208158Y-15904674D02*
X11227205Y-15895150D01*
X11227205Y-15895150D02*
X11255777Y-15895150D01*
X11255777Y-15895150D02*
X11274824Y-15904674D01*
X11274824Y-15904674D02*
X11284348Y-15923722D01*
X11284348Y-15923722D02*
X11284348Y-16028484D01*
X11379586Y-16028484D02*
X11379586Y-15895150D01*
X11379586Y-15914198D02*
X11389110Y-15904674D01*
X11389110Y-15904674D02*
X11408158Y-15895150D01*
X11408158Y-15895150D02*
X11436729Y-15895150D01*
X11436729Y-15895150D02*
X11455777Y-15904674D01*
X11455777Y-15904674D02*
X11465301Y-15923722D01*
X11465301Y-15923722D02*
X11465301Y-16028484D01*
X11465301Y-15923722D02*
X11474824Y-15904674D01*
X11474824Y-15904674D02*
X11493872Y-15895150D01*
X11493872Y-15895150D02*
X11522443Y-15895150D01*
X11522443Y-15895150D02*
X11541491Y-15904674D01*
X11541491Y-15904674D02*
X11551015Y-15923722D01*
X11551015Y-15923722D02*
X11551015Y-16028484D01*
X11941491Y-15818960D02*
X11770063Y-16076103D01*
X12198634Y-15828484D02*
X12217682Y-15828484D01*
X12217682Y-15828484D02*
X12236729Y-15838008D01*
X12236729Y-15838008D02*
X12246253Y-15847531D01*
X12246253Y-15847531D02*
X12255777Y-15866579D01*
X12255777Y-15866579D02*
X12265301Y-15904674D01*
X12265301Y-15904674D02*
X12265301Y-15952293D01*
X12265301Y-15952293D02*
X12255777Y-15990388D01*
X12255777Y-15990388D02*
X12246253Y-16009436D01*
X12246253Y-16009436D02*
X12236729Y-16018960D01*
X12236729Y-16018960D02*
X12217682Y-16028484D01*
X12217682Y-16028484D02*
X12198634Y-16028484D01*
X12198634Y-16028484D02*
X12179586Y-16018960D01*
X12179586Y-16018960D02*
X12170063Y-16009436D01*
X12170063Y-16009436D02*
X12160539Y-15990388D01*
X12160539Y-15990388D02*
X12151015Y-15952293D01*
X12151015Y-15952293D02*
X12151015Y-15904674D01*
X12151015Y-15904674D02*
X12160539Y-15866579D01*
X12160539Y-15866579D02*
X12170063Y-15847531D01*
X12170063Y-15847531D02*
X12179586Y-15838008D01*
X12179586Y-15838008D02*
X12198634Y-15828484D01*
X12351015Y-16009436D02*
X12360539Y-16018960D01*
X12360539Y-16018960D02*
X12351015Y-16028484D01*
X12351015Y-16028484D02*
X12341491Y-16018960D01*
X12341491Y-16018960D02*
X12351015Y-16009436D01*
X12351015Y-16009436D02*
X12351015Y-16028484D01*
X12484348Y-15828484D02*
X12503396Y-15828484D01*
X12503396Y-15828484D02*
X12522444Y-15838008D01*
X12522444Y-15838008D02*
X12531967Y-15847531D01*
X12531967Y-15847531D02*
X12541491Y-15866579D01*
X12541491Y-15866579D02*
X12551015Y-15904674D01*
X12551015Y-15904674D02*
X12551015Y-15952293D01*
X12551015Y-15952293D02*
X12541491Y-15990388D01*
X12541491Y-15990388D02*
X12531967Y-16009436D01*
X12531967Y-16009436D02*
X12522444Y-16018960D01*
X12522444Y-16018960D02*
X12503396Y-16028484D01*
X12503396Y-16028484D02*
X12484348Y-16028484D01*
X12484348Y-16028484D02*
X12465301Y-16018960D01*
X12465301Y-16018960D02*
X12455777Y-16009436D01*
X12455777Y-16009436D02*
X12446253Y-15990388D01*
X12446253Y-15990388D02*
X12436729Y-15952293D01*
X12436729Y-15952293D02*
X12436729Y-15904674D01*
X12436729Y-15904674D02*
X12446253Y-15866579D01*
X12446253Y-15866579D02*
X12455777Y-15847531D01*
X12455777Y-15847531D02*
X12465301Y-15838008D01*
X12465301Y-15838008D02*
X12484348Y-15828484D01*
X12722444Y-15895150D02*
X12722444Y-16028484D01*
X12674825Y-15818960D02*
X12627206Y-15961817D01*
X12627206Y-15961817D02*
X12751015Y-15961817D01*
X12808158Y-15828484D02*
X12941491Y-15828484D01*
X12941491Y-15828484D02*
X12855777Y-16028484D01*
X13008158Y-15847531D02*
X13017682Y-15838008D01*
X13017682Y-15838008D02*
X13036729Y-15828484D01*
X13036729Y-15828484D02*
X13084348Y-15828484D01*
X13084348Y-15828484D02*
X13103396Y-15838008D01*
X13103396Y-15838008D02*
X13112920Y-15847531D01*
X13112920Y-15847531D02*
X13122444Y-15866579D01*
X13122444Y-15866579D02*
X13122444Y-15885627D01*
X13122444Y-15885627D02*
X13112920Y-15914198D01*
X13112920Y-15914198D02*
X12998634Y-16028484D01*
X12998634Y-16028484D02*
X13122444Y-16028484D01*
X13198634Y-15828484D02*
X13198634Y-15866579D01*
X13274825Y-15828484D02*
X13274825Y-15866579D01*
X13570063Y-16104674D02*
X13560539Y-16095150D01*
X13560539Y-16095150D02*
X13541491Y-16066579D01*
X13541491Y-16066579D02*
X13531968Y-16047531D01*
X13531968Y-16047531D02*
X13522444Y-16018960D01*
X13522444Y-16018960D02*
X13512920Y-15971341D01*
X13512920Y-15971341D02*
X13512920Y-15933246D01*
X13512920Y-15933246D02*
X13522444Y-15885627D01*
X13522444Y-15885627D02*
X13531968Y-15857055D01*
X13531968Y-15857055D02*
X13541491Y-15838008D01*
X13541491Y-15838008D02*
X13560539Y-15809436D01*
X13560539Y-15809436D02*
X13570063Y-15799912D01*
X13636729Y-15847531D02*
X13646253Y-15838008D01*
X13646253Y-15838008D02*
X13665301Y-15828484D01*
X13665301Y-15828484D02*
X13712920Y-15828484D01*
X13712920Y-15828484D02*
X13731968Y-15838008D01*
X13731968Y-15838008D02*
X13741491Y-15847531D01*
X13741491Y-15847531D02*
X13751015Y-15866579D01*
X13751015Y-15866579D02*
X13751015Y-15885627D01*
X13751015Y-15885627D02*
X13741491Y-15914198D01*
X13741491Y-15914198D02*
X13627206Y-16028484D01*
X13627206Y-16028484D02*
X13751015Y-16028484D01*
X13922444Y-15895150D02*
X13922444Y-16028484D01*
X13874825Y-15818960D02*
X13827206Y-15961817D01*
X13827206Y-15961817D02*
X13951015Y-15961817D01*
X14179587Y-16028484D02*
X14179587Y-15828484D01*
X14265301Y-16028484D02*
X14265301Y-15923722D01*
X14265301Y-15923722D02*
X14255777Y-15904674D01*
X14255777Y-15904674D02*
X14236730Y-15895150D01*
X14236730Y-15895150D02*
X14208158Y-15895150D01*
X14208158Y-15895150D02*
X14189110Y-15904674D01*
X14189110Y-15904674D02*
X14179587Y-15914198D01*
X14389110Y-16028484D02*
X14370063Y-16018960D01*
X14370063Y-16018960D02*
X14360539Y-16009436D01*
X14360539Y-16009436D02*
X14351015Y-15990388D01*
X14351015Y-15990388D02*
X14351015Y-15933246D01*
X14351015Y-15933246D02*
X14360539Y-15914198D01*
X14360539Y-15914198D02*
X14370063Y-15904674D01*
X14370063Y-15904674D02*
X14389110Y-15895150D01*
X14389110Y-15895150D02*
X14417682Y-15895150D01*
X14417682Y-15895150D02*
X14436730Y-15904674D01*
X14436730Y-15904674D02*
X14446253Y-15914198D01*
X14446253Y-15914198D02*
X14455777Y-15933246D01*
X14455777Y-15933246D02*
X14455777Y-15990388D01*
X14455777Y-15990388D02*
X14446253Y-16009436D01*
X14446253Y-16009436D02*
X14436730Y-16018960D01*
X14436730Y-16018960D02*
X14417682Y-16028484D01*
X14417682Y-16028484D02*
X14389110Y-16028484D01*
X14570063Y-16028484D02*
X14551015Y-16018960D01*
X14551015Y-16018960D02*
X14541491Y-15999912D01*
X14541491Y-15999912D02*
X14541491Y-15828484D01*
X14722444Y-16018960D02*
X14703396Y-16028484D01*
X14703396Y-16028484D02*
X14665301Y-16028484D01*
X14665301Y-16028484D02*
X14646253Y-16018960D01*
X14646253Y-16018960D02*
X14636730Y-15999912D01*
X14636730Y-15999912D02*
X14636730Y-15923722D01*
X14636730Y-15923722D02*
X14646253Y-15904674D01*
X14646253Y-15904674D02*
X14665301Y-15895150D01*
X14665301Y-15895150D02*
X14703396Y-15895150D01*
X14703396Y-15895150D02*
X14722444Y-15904674D01*
X14722444Y-15904674D02*
X14731968Y-15923722D01*
X14731968Y-15923722D02*
X14731968Y-15942769D01*
X14731968Y-15942769D02*
X14636730Y-15961817D01*
X14808158Y-16018960D02*
X14827206Y-16028484D01*
X14827206Y-16028484D02*
X14865301Y-16028484D01*
X14865301Y-16028484D02*
X14884349Y-16018960D01*
X14884349Y-16018960D02*
X14893872Y-15999912D01*
X14893872Y-15999912D02*
X14893872Y-15990388D01*
X14893872Y-15990388D02*
X14884349Y-15971341D01*
X14884349Y-15971341D02*
X14865301Y-15961817D01*
X14865301Y-15961817D02*
X14836730Y-15961817D01*
X14836730Y-15961817D02*
X14817682Y-15952293D01*
X14817682Y-15952293D02*
X14808158Y-15933246D01*
X14808158Y-15933246D02*
X14808158Y-15923722D01*
X14808158Y-15923722D02*
X14817682Y-15904674D01*
X14817682Y-15904674D02*
X14836730Y-15895150D01*
X14836730Y-15895150D02*
X14865301Y-15895150D01*
X14865301Y-15895150D02*
X14884349Y-15904674D01*
X14960539Y-16104674D02*
X14970063Y-16095150D01*
X14970063Y-16095150D02*
X14989111Y-16066579D01*
X14989111Y-16066579D02*
X14998634Y-16047531D01*
X14998634Y-16047531D02*
X15008158Y-16018960D01*
X15008158Y-16018960D02*
X15017682Y-15971341D01*
X15017682Y-15971341D02*
X15017682Y-15933246D01*
X15017682Y-15933246D02*
X15008158Y-15885627D01*
X15008158Y-15885627D02*
X14998634Y-15857055D01*
X14998634Y-15857055D02*
X14989111Y-15838008D01*
X14989111Y-15838008D02*
X14970063Y-15809436D01*
X14970063Y-15809436D02*
X14960539Y-15799912D01*
D13*
X9930000Y-16266000D02*
X9995000Y-16201000D01*
X9930000Y-16136000D01*
X9865000Y-16201000D01*
X9930000Y-16266000D01*
D11*
X10360539Y-16292484D02*
X10246253Y-16292484D01*
X10303396Y-16292484D02*
X10303396Y-16092484D01*
X10303396Y-16092484D02*
X10284348Y-16121055D01*
X10284348Y-16121055D02*
X10265301Y-16140103D01*
X10265301Y-16140103D02*
X10246253Y-16149627D01*
X10446253Y-16273436D02*
X10455777Y-16282960D01*
X10455777Y-16282960D02*
X10446253Y-16292484D01*
X10446253Y-16292484D02*
X10436729Y-16282960D01*
X10436729Y-16282960D02*
X10446253Y-16273436D01*
X10446253Y-16273436D02*
X10446253Y-16292484D01*
X10522444Y-16092484D02*
X10646253Y-16092484D01*
X10646253Y-16092484D02*
X10579586Y-16168674D01*
X10579586Y-16168674D02*
X10608158Y-16168674D01*
X10608158Y-16168674D02*
X10627205Y-16178198D01*
X10627205Y-16178198D02*
X10636729Y-16187722D01*
X10636729Y-16187722D02*
X10646253Y-16206769D01*
X10646253Y-16206769D02*
X10646253Y-16254388D01*
X10646253Y-16254388D02*
X10636729Y-16273436D01*
X10636729Y-16273436D02*
X10627205Y-16282960D01*
X10627205Y-16282960D02*
X10608158Y-16292484D01*
X10608158Y-16292484D02*
X10551015Y-16292484D01*
X10551015Y-16292484D02*
X10531967Y-16282960D01*
X10531967Y-16282960D02*
X10522444Y-16273436D01*
X10770063Y-16092484D02*
X10789110Y-16092484D01*
X10789110Y-16092484D02*
X10808158Y-16102008D01*
X10808158Y-16102008D02*
X10817682Y-16111531D01*
X10817682Y-16111531D02*
X10827205Y-16130579D01*
X10827205Y-16130579D02*
X10836729Y-16168674D01*
X10836729Y-16168674D02*
X10836729Y-16216293D01*
X10836729Y-16216293D02*
X10827205Y-16254388D01*
X10827205Y-16254388D02*
X10817682Y-16273436D01*
X10817682Y-16273436D02*
X10808158Y-16282960D01*
X10808158Y-16282960D02*
X10789110Y-16292484D01*
X10789110Y-16292484D02*
X10770063Y-16292484D01*
X10770063Y-16292484D02*
X10751015Y-16282960D01*
X10751015Y-16282960D02*
X10741491Y-16273436D01*
X10741491Y-16273436D02*
X10731967Y-16254388D01*
X10731967Y-16254388D02*
X10722444Y-16216293D01*
X10722444Y-16216293D02*
X10722444Y-16168674D01*
X10722444Y-16168674D02*
X10731967Y-16130579D01*
X10731967Y-16130579D02*
X10741491Y-16111531D01*
X10741491Y-16111531D02*
X10751015Y-16102008D01*
X10751015Y-16102008D02*
X10770063Y-16092484D01*
X10960539Y-16092484D02*
X10979586Y-16092484D01*
X10979586Y-16092484D02*
X10998634Y-16102008D01*
X10998634Y-16102008D02*
X11008158Y-16111531D01*
X11008158Y-16111531D02*
X11017682Y-16130579D01*
X11017682Y-16130579D02*
X11027205Y-16168674D01*
X11027205Y-16168674D02*
X11027205Y-16216293D01*
X11027205Y-16216293D02*
X11017682Y-16254388D01*
X11017682Y-16254388D02*
X11008158Y-16273436D01*
X11008158Y-16273436D02*
X10998634Y-16282960D01*
X10998634Y-16282960D02*
X10979586Y-16292484D01*
X10979586Y-16292484D02*
X10960539Y-16292484D01*
X10960539Y-16292484D02*
X10941491Y-16282960D01*
X10941491Y-16282960D02*
X10931967Y-16273436D01*
X10931967Y-16273436D02*
X10922444Y-16254388D01*
X10922444Y-16254388D02*
X10912920Y-16216293D01*
X10912920Y-16216293D02*
X10912920Y-16168674D01*
X10912920Y-16168674D02*
X10922444Y-16130579D01*
X10922444Y-16130579D02*
X10931967Y-16111531D01*
X10931967Y-16111531D02*
X10941491Y-16102008D01*
X10941491Y-16102008D02*
X10960539Y-16092484D01*
X11112920Y-16292484D02*
X11112920Y-16159150D01*
X11112920Y-16178198D02*
X11122444Y-16168674D01*
X11122444Y-16168674D02*
X11141491Y-16159150D01*
X11141491Y-16159150D02*
X11170063Y-16159150D01*
X11170063Y-16159150D02*
X11189110Y-16168674D01*
X11189110Y-16168674D02*
X11198634Y-16187722D01*
X11198634Y-16187722D02*
X11198634Y-16292484D01*
X11198634Y-16187722D02*
X11208158Y-16168674D01*
X11208158Y-16168674D02*
X11227205Y-16159150D01*
X11227205Y-16159150D02*
X11255777Y-16159150D01*
X11255777Y-16159150D02*
X11274824Y-16168674D01*
X11274824Y-16168674D02*
X11284348Y-16187722D01*
X11284348Y-16187722D02*
X11284348Y-16292484D01*
X11379586Y-16292484D02*
X11379586Y-16159150D01*
X11379586Y-16178198D02*
X11389110Y-16168674D01*
X11389110Y-16168674D02*
X11408158Y-16159150D01*
X11408158Y-16159150D02*
X11436729Y-16159150D01*
X11436729Y-16159150D02*
X11455777Y-16168674D01*
X11455777Y-16168674D02*
X11465301Y-16187722D01*
X11465301Y-16187722D02*
X11465301Y-16292484D01*
X11465301Y-16187722D02*
X11474824Y-16168674D01*
X11474824Y-16168674D02*
X11493872Y-16159150D01*
X11493872Y-16159150D02*
X11522443Y-16159150D01*
X11522443Y-16159150D02*
X11541491Y-16168674D01*
X11541491Y-16168674D02*
X11551015Y-16187722D01*
X11551015Y-16187722D02*
X11551015Y-16292484D01*
X11941491Y-16082960D02*
X11770063Y-16340103D01*
X12198634Y-16092484D02*
X12217682Y-16092484D01*
X12217682Y-16092484D02*
X12236729Y-16102008D01*
X12236729Y-16102008D02*
X12246253Y-16111531D01*
X12246253Y-16111531D02*
X12255777Y-16130579D01*
X12255777Y-16130579D02*
X12265301Y-16168674D01*
X12265301Y-16168674D02*
X12265301Y-16216293D01*
X12265301Y-16216293D02*
X12255777Y-16254388D01*
X12255777Y-16254388D02*
X12246253Y-16273436D01*
X12246253Y-16273436D02*
X12236729Y-16282960D01*
X12236729Y-16282960D02*
X12217682Y-16292484D01*
X12217682Y-16292484D02*
X12198634Y-16292484D01*
X12198634Y-16292484D02*
X12179586Y-16282960D01*
X12179586Y-16282960D02*
X12170063Y-16273436D01*
X12170063Y-16273436D02*
X12160539Y-16254388D01*
X12160539Y-16254388D02*
X12151015Y-16216293D01*
X12151015Y-16216293D02*
X12151015Y-16168674D01*
X12151015Y-16168674D02*
X12160539Y-16130579D01*
X12160539Y-16130579D02*
X12170063Y-16111531D01*
X12170063Y-16111531D02*
X12179586Y-16102008D01*
X12179586Y-16102008D02*
X12198634Y-16092484D01*
X12351015Y-16273436D02*
X12360539Y-16282960D01*
X12360539Y-16282960D02*
X12351015Y-16292484D01*
X12351015Y-16292484D02*
X12341491Y-16282960D01*
X12341491Y-16282960D02*
X12351015Y-16273436D01*
X12351015Y-16273436D02*
X12351015Y-16292484D01*
X12484348Y-16092484D02*
X12503396Y-16092484D01*
X12503396Y-16092484D02*
X12522444Y-16102008D01*
X12522444Y-16102008D02*
X12531967Y-16111531D01*
X12531967Y-16111531D02*
X12541491Y-16130579D01*
X12541491Y-16130579D02*
X12551015Y-16168674D01*
X12551015Y-16168674D02*
X12551015Y-16216293D01*
X12551015Y-16216293D02*
X12541491Y-16254388D01*
X12541491Y-16254388D02*
X12531967Y-16273436D01*
X12531967Y-16273436D02*
X12522444Y-16282960D01*
X12522444Y-16282960D02*
X12503396Y-16292484D01*
X12503396Y-16292484D02*
X12484348Y-16292484D01*
X12484348Y-16292484D02*
X12465301Y-16282960D01*
X12465301Y-16282960D02*
X12455777Y-16273436D01*
X12455777Y-16273436D02*
X12446253Y-16254388D01*
X12446253Y-16254388D02*
X12436729Y-16216293D01*
X12436729Y-16216293D02*
X12436729Y-16168674D01*
X12436729Y-16168674D02*
X12446253Y-16130579D01*
X12446253Y-16130579D02*
X12455777Y-16111531D01*
X12455777Y-16111531D02*
X12465301Y-16102008D01*
X12465301Y-16102008D02*
X12484348Y-16092484D01*
X12731967Y-16092484D02*
X12636729Y-16092484D01*
X12636729Y-16092484D02*
X12627206Y-16187722D01*
X12627206Y-16187722D02*
X12636729Y-16178198D01*
X12636729Y-16178198D02*
X12655777Y-16168674D01*
X12655777Y-16168674D02*
X12703396Y-16168674D01*
X12703396Y-16168674D02*
X12722444Y-16178198D01*
X12722444Y-16178198D02*
X12731967Y-16187722D01*
X12731967Y-16187722D02*
X12741491Y-16206769D01*
X12741491Y-16206769D02*
X12741491Y-16254388D01*
X12741491Y-16254388D02*
X12731967Y-16273436D01*
X12731967Y-16273436D02*
X12722444Y-16282960D01*
X12722444Y-16282960D02*
X12703396Y-16292484D01*
X12703396Y-16292484D02*
X12655777Y-16292484D01*
X12655777Y-16292484D02*
X12636729Y-16282960D01*
X12636729Y-16282960D02*
X12627206Y-16273436D01*
X12931967Y-16292484D02*
X12817682Y-16292484D01*
X12874825Y-16292484D02*
X12874825Y-16092484D01*
X12874825Y-16092484D02*
X12855777Y-16121055D01*
X12855777Y-16121055D02*
X12836729Y-16140103D01*
X12836729Y-16140103D02*
X12817682Y-16149627D01*
X13008158Y-16111531D02*
X13017682Y-16102008D01*
X13017682Y-16102008D02*
X13036729Y-16092484D01*
X13036729Y-16092484D02*
X13084348Y-16092484D01*
X13084348Y-16092484D02*
X13103396Y-16102008D01*
X13103396Y-16102008D02*
X13112920Y-16111531D01*
X13112920Y-16111531D02*
X13122444Y-16130579D01*
X13122444Y-16130579D02*
X13122444Y-16149627D01*
X13122444Y-16149627D02*
X13112920Y-16178198D01*
X13112920Y-16178198D02*
X12998634Y-16292484D01*
X12998634Y-16292484D02*
X13122444Y-16292484D01*
X13198634Y-16092484D02*
X13198634Y-16130579D01*
X13274825Y-16092484D02*
X13274825Y-16130579D01*
X13570063Y-16368674D02*
X13560539Y-16359150D01*
X13560539Y-16359150D02*
X13541491Y-16330579D01*
X13541491Y-16330579D02*
X13531968Y-16311531D01*
X13531968Y-16311531D02*
X13522444Y-16282960D01*
X13522444Y-16282960D02*
X13512920Y-16235341D01*
X13512920Y-16235341D02*
X13512920Y-16197246D01*
X13512920Y-16197246D02*
X13522444Y-16149627D01*
X13522444Y-16149627D02*
X13531968Y-16121055D01*
X13531968Y-16121055D02*
X13541491Y-16102008D01*
X13541491Y-16102008D02*
X13560539Y-16073436D01*
X13560539Y-16073436D02*
X13570063Y-16063912D01*
X13636729Y-16111531D02*
X13646253Y-16102008D01*
X13646253Y-16102008D02*
X13665301Y-16092484D01*
X13665301Y-16092484D02*
X13712920Y-16092484D01*
X13712920Y-16092484D02*
X13731968Y-16102008D01*
X13731968Y-16102008D02*
X13741491Y-16111531D01*
X13741491Y-16111531D02*
X13751015Y-16130579D01*
X13751015Y-16130579D02*
X13751015Y-16149627D01*
X13751015Y-16149627D02*
X13741491Y-16178198D01*
X13741491Y-16178198D02*
X13627206Y-16292484D01*
X13627206Y-16292484D02*
X13751015Y-16292484D01*
X13989110Y-16292484D02*
X13989110Y-16092484D01*
X14074825Y-16292484D02*
X14074825Y-16187722D01*
X14074825Y-16187722D02*
X14065301Y-16168674D01*
X14065301Y-16168674D02*
X14046253Y-16159150D01*
X14046253Y-16159150D02*
X14017682Y-16159150D01*
X14017682Y-16159150D02*
X13998634Y-16168674D01*
X13998634Y-16168674D02*
X13989110Y-16178198D01*
X14198634Y-16292484D02*
X14179587Y-16282960D01*
X14179587Y-16282960D02*
X14170063Y-16273436D01*
X14170063Y-16273436D02*
X14160539Y-16254388D01*
X14160539Y-16254388D02*
X14160539Y-16197246D01*
X14160539Y-16197246D02*
X14170063Y-16178198D01*
X14170063Y-16178198D02*
X14179587Y-16168674D01*
X14179587Y-16168674D02*
X14198634Y-16159150D01*
X14198634Y-16159150D02*
X14227206Y-16159150D01*
X14227206Y-16159150D02*
X14246253Y-16168674D01*
X14246253Y-16168674D02*
X14255777Y-16178198D01*
X14255777Y-16178198D02*
X14265301Y-16197246D01*
X14265301Y-16197246D02*
X14265301Y-16254388D01*
X14265301Y-16254388D02*
X14255777Y-16273436D01*
X14255777Y-16273436D02*
X14246253Y-16282960D01*
X14246253Y-16282960D02*
X14227206Y-16292484D01*
X14227206Y-16292484D02*
X14198634Y-16292484D01*
X14379587Y-16292484D02*
X14360539Y-16282960D01*
X14360539Y-16282960D02*
X14351015Y-16263912D01*
X14351015Y-16263912D02*
X14351015Y-16092484D01*
X14531968Y-16282960D02*
X14512920Y-16292484D01*
X14512920Y-16292484D02*
X14474825Y-16292484D01*
X14474825Y-16292484D02*
X14455777Y-16282960D01*
X14455777Y-16282960D02*
X14446253Y-16263912D01*
X14446253Y-16263912D02*
X14446253Y-16187722D01*
X14446253Y-16187722D02*
X14455777Y-16168674D01*
X14455777Y-16168674D02*
X14474825Y-16159150D01*
X14474825Y-16159150D02*
X14512920Y-16159150D01*
X14512920Y-16159150D02*
X14531968Y-16168674D01*
X14531968Y-16168674D02*
X14541491Y-16187722D01*
X14541491Y-16187722D02*
X14541491Y-16206769D01*
X14541491Y-16206769D02*
X14446253Y-16225817D01*
X14617682Y-16282960D02*
X14636730Y-16292484D01*
X14636730Y-16292484D02*
X14674825Y-16292484D01*
X14674825Y-16292484D02*
X14693872Y-16282960D01*
X14693872Y-16282960D02*
X14703396Y-16263912D01*
X14703396Y-16263912D02*
X14703396Y-16254388D01*
X14703396Y-16254388D02*
X14693872Y-16235341D01*
X14693872Y-16235341D02*
X14674825Y-16225817D01*
X14674825Y-16225817D02*
X14646253Y-16225817D01*
X14646253Y-16225817D02*
X14627206Y-16216293D01*
X14627206Y-16216293D02*
X14617682Y-16197246D01*
X14617682Y-16197246D02*
X14617682Y-16187722D01*
X14617682Y-16187722D02*
X14627206Y-16168674D01*
X14627206Y-16168674D02*
X14646253Y-16159150D01*
X14646253Y-16159150D02*
X14674825Y-16159150D01*
X14674825Y-16159150D02*
X14693872Y-16168674D01*
X14770063Y-16368674D02*
X14779587Y-16359150D01*
X14779587Y-16359150D02*
X14798634Y-16330579D01*
X14798634Y-16330579D02*
X14808158Y-16311531D01*
X14808158Y-16311531D02*
X14817682Y-16282960D01*
X14817682Y-16282960D02*
X14827206Y-16235341D01*
X14827206Y-16235341D02*
X14827206Y-16197246D01*
X14827206Y-16197246D02*
X14817682Y-16149627D01*
X14817682Y-16149627D02*
X14808158Y-16121055D01*
X14808158Y-16121055D02*
X14798634Y-16102008D01*
X14798634Y-16102008D02*
X14779587Y-16073436D01*
X14779587Y-16073436D02*
X14770063Y-16063912D01*
X9795000Y-16365000D02*
X9995000Y-16565000D01*
X9995000Y-16365000D02*
X9795000Y-16565000D01*
X9995000Y-16465000D02*
G75*
G02*
X9795000Y-16465000I-100000J0D01*
G01*
X9795000Y-16465000D02*
G75*
G02*
X9995000Y-16465000I100000J0D01*
G01*
X10236729Y-16356484D02*
X10360539Y-16356484D01*
X10360539Y-16356484D02*
X10293872Y-16432674D01*
X10293872Y-16432674D02*
X10322444Y-16432674D01*
X10322444Y-16432674D02*
X10341491Y-16442198D01*
X10341491Y-16442198D02*
X10351015Y-16451722D01*
X10351015Y-16451722D02*
X10360539Y-16470769D01*
X10360539Y-16470769D02*
X10360539Y-16518388D01*
X10360539Y-16518388D02*
X10351015Y-16537436D01*
X10351015Y-16537436D02*
X10341491Y-16546960D01*
X10341491Y-16546960D02*
X10322444Y-16556484D01*
X10322444Y-16556484D02*
X10265301Y-16556484D01*
X10265301Y-16556484D02*
X10246253Y-16546960D01*
X10246253Y-16546960D02*
X10236729Y-16537436D01*
X10446253Y-16537436D02*
X10455777Y-16546960D01*
X10455777Y-16546960D02*
X10446253Y-16556484D01*
X10446253Y-16556484D02*
X10436729Y-16546960D01*
X10436729Y-16546960D02*
X10446253Y-16537436D01*
X10446253Y-16537436D02*
X10446253Y-16556484D01*
X10531967Y-16375531D02*
X10541491Y-16366008D01*
X10541491Y-16366008D02*
X10560539Y-16356484D01*
X10560539Y-16356484D02*
X10608158Y-16356484D01*
X10608158Y-16356484D02*
X10627205Y-16366008D01*
X10627205Y-16366008D02*
X10636729Y-16375531D01*
X10636729Y-16375531D02*
X10646253Y-16394579D01*
X10646253Y-16394579D02*
X10646253Y-16413627D01*
X10646253Y-16413627D02*
X10636729Y-16442198D01*
X10636729Y-16442198D02*
X10522444Y-16556484D01*
X10522444Y-16556484D02*
X10646253Y-16556484D01*
X10770063Y-16356484D02*
X10789110Y-16356484D01*
X10789110Y-16356484D02*
X10808158Y-16366008D01*
X10808158Y-16366008D02*
X10817682Y-16375531D01*
X10817682Y-16375531D02*
X10827205Y-16394579D01*
X10827205Y-16394579D02*
X10836729Y-16432674D01*
X10836729Y-16432674D02*
X10836729Y-16480293D01*
X10836729Y-16480293D02*
X10827205Y-16518388D01*
X10827205Y-16518388D02*
X10817682Y-16537436D01*
X10817682Y-16537436D02*
X10808158Y-16546960D01*
X10808158Y-16546960D02*
X10789110Y-16556484D01*
X10789110Y-16556484D02*
X10770063Y-16556484D01*
X10770063Y-16556484D02*
X10751015Y-16546960D01*
X10751015Y-16546960D02*
X10741491Y-16537436D01*
X10741491Y-16537436D02*
X10731967Y-16518388D01*
X10731967Y-16518388D02*
X10722444Y-16480293D01*
X10722444Y-16480293D02*
X10722444Y-16432674D01*
X10722444Y-16432674D02*
X10731967Y-16394579D01*
X10731967Y-16394579D02*
X10741491Y-16375531D01*
X10741491Y-16375531D02*
X10751015Y-16366008D01*
X10751015Y-16366008D02*
X10770063Y-16356484D01*
X10960539Y-16356484D02*
X10979586Y-16356484D01*
X10979586Y-16356484D02*
X10998634Y-16366008D01*
X10998634Y-16366008D02*
X11008158Y-16375531D01*
X11008158Y-16375531D02*
X11017682Y-16394579D01*
X11017682Y-16394579D02*
X11027205Y-16432674D01*
X11027205Y-16432674D02*
X11027205Y-16480293D01*
X11027205Y-16480293D02*
X11017682Y-16518388D01*
X11017682Y-16518388D02*
X11008158Y-16537436D01*
X11008158Y-16537436D02*
X10998634Y-16546960D01*
X10998634Y-16546960D02*
X10979586Y-16556484D01*
X10979586Y-16556484D02*
X10960539Y-16556484D01*
X10960539Y-16556484D02*
X10941491Y-16546960D01*
X10941491Y-16546960D02*
X10931967Y-16537436D01*
X10931967Y-16537436D02*
X10922444Y-16518388D01*
X10922444Y-16518388D02*
X10912920Y-16480293D01*
X10912920Y-16480293D02*
X10912920Y-16432674D01*
X10912920Y-16432674D02*
X10922444Y-16394579D01*
X10922444Y-16394579D02*
X10931967Y-16375531D01*
X10931967Y-16375531D02*
X10941491Y-16366008D01*
X10941491Y-16366008D02*
X10960539Y-16356484D01*
X11112920Y-16556484D02*
X11112920Y-16423150D01*
X11112920Y-16442198D02*
X11122444Y-16432674D01*
X11122444Y-16432674D02*
X11141491Y-16423150D01*
X11141491Y-16423150D02*
X11170063Y-16423150D01*
X11170063Y-16423150D02*
X11189110Y-16432674D01*
X11189110Y-16432674D02*
X11198634Y-16451722D01*
X11198634Y-16451722D02*
X11198634Y-16556484D01*
X11198634Y-16451722D02*
X11208158Y-16432674D01*
X11208158Y-16432674D02*
X11227205Y-16423150D01*
X11227205Y-16423150D02*
X11255777Y-16423150D01*
X11255777Y-16423150D02*
X11274824Y-16432674D01*
X11274824Y-16432674D02*
X11284348Y-16451722D01*
X11284348Y-16451722D02*
X11284348Y-16556484D01*
X11379586Y-16556484D02*
X11379586Y-16423150D01*
X11379586Y-16442198D02*
X11389110Y-16432674D01*
X11389110Y-16432674D02*
X11408158Y-16423150D01*
X11408158Y-16423150D02*
X11436729Y-16423150D01*
X11436729Y-16423150D02*
X11455777Y-16432674D01*
X11455777Y-16432674D02*
X11465301Y-16451722D01*
X11465301Y-16451722D02*
X11465301Y-16556484D01*
X11465301Y-16451722D02*
X11474824Y-16432674D01*
X11474824Y-16432674D02*
X11493872Y-16423150D01*
X11493872Y-16423150D02*
X11522443Y-16423150D01*
X11522443Y-16423150D02*
X11541491Y-16432674D01*
X11541491Y-16432674D02*
X11551015Y-16451722D01*
X11551015Y-16451722D02*
X11551015Y-16556484D01*
X11941491Y-16346960D02*
X11770063Y-16604103D01*
X12198634Y-16356484D02*
X12217682Y-16356484D01*
X12217682Y-16356484D02*
X12236729Y-16366008D01*
X12236729Y-16366008D02*
X12246253Y-16375531D01*
X12246253Y-16375531D02*
X12255777Y-16394579D01*
X12255777Y-16394579D02*
X12265301Y-16432674D01*
X12265301Y-16432674D02*
X12265301Y-16480293D01*
X12265301Y-16480293D02*
X12255777Y-16518388D01*
X12255777Y-16518388D02*
X12246253Y-16537436D01*
X12246253Y-16537436D02*
X12236729Y-16546960D01*
X12236729Y-16546960D02*
X12217682Y-16556484D01*
X12217682Y-16556484D02*
X12198634Y-16556484D01*
X12198634Y-16556484D02*
X12179586Y-16546960D01*
X12179586Y-16546960D02*
X12170063Y-16537436D01*
X12170063Y-16537436D02*
X12160539Y-16518388D01*
X12160539Y-16518388D02*
X12151015Y-16480293D01*
X12151015Y-16480293D02*
X12151015Y-16432674D01*
X12151015Y-16432674D02*
X12160539Y-16394579D01*
X12160539Y-16394579D02*
X12170063Y-16375531D01*
X12170063Y-16375531D02*
X12179586Y-16366008D01*
X12179586Y-16366008D02*
X12198634Y-16356484D01*
X12351015Y-16537436D02*
X12360539Y-16546960D01*
X12360539Y-16546960D02*
X12351015Y-16556484D01*
X12351015Y-16556484D02*
X12341491Y-16546960D01*
X12341491Y-16546960D02*
X12351015Y-16537436D01*
X12351015Y-16537436D02*
X12351015Y-16556484D01*
X12551015Y-16556484D02*
X12436729Y-16556484D01*
X12493872Y-16556484D02*
X12493872Y-16356484D01*
X12493872Y-16356484D02*
X12474825Y-16385055D01*
X12474825Y-16385055D02*
X12455777Y-16404103D01*
X12455777Y-16404103D02*
X12436729Y-16413627D01*
X12627206Y-16375531D02*
X12636729Y-16366008D01*
X12636729Y-16366008D02*
X12655777Y-16356484D01*
X12655777Y-16356484D02*
X12703396Y-16356484D01*
X12703396Y-16356484D02*
X12722444Y-16366008D01*
X12722444Y-16366008D02*
X12731967Y-16375531D01*
X12731967Y-16375531D02*
X12741491Y-16394579D01*
X12741491Y-16394579D02*
X12741491Y-16413627D01*
X12741491Y-16413627D02*
X12731967Y-16442198D01*
X12731967Y-16442198D02*
X12617682Y-16556484D01*
X12617682Y-16556484D02*
X12741491Y-16556484D01*
X12912920Y-16356484D02*
X12874825Y-16356484D01*
X12874825Y-16356484D02*
X12855777Y-16366008D01*
X12855777Y-16366008D02*
X12846253Y-16375531D01*
X12846253Y-16375531D02*
X12827206Y-16404103D01*
X12827206Y-16404103D02*
X12817682Y-16442198D01*
X12817682Y-16442198D02*
X12817682Y-16518388D01*
X12817682Y-16518388D02*
X12827206Y-16537436D01*
X12827206Y-16537436D02*
X12836729Y-16546960D01*
X12836729Y-16546960D02*
X12855777Y-16556484D01*
X12855777Y-16556484D02*
X12893872Y-16556484D01*
X12893872Y-16556484D02*
X12912920Y-16546960D01*
X12912920Y-16546960D02*
X12922444Y-16537436D01*
X12922444Y-16537436D02*
X12931967Y-16518388D01*
X12931967Y-16518388D02*
X12931967Y-16470769D01*
X12931967Y-16470769D02*
X12922444Y-16451722D01*
X12922444Y-16451722D02*
X12912920Y-16442198D01*
X12912920Y-16442198D02*
X12893872Y-16432674D01*
X12893872Y-16432674D02*
X12855777Y-16432674D01*
X12855777Y-16432674D02*
X12836729Y-16442198D01*
X12836729Y-16442198D02*
X12827206Y-16451722D01*
X12827206Y-16451722D02*
X12817682Y-16470769D01*
X13055777Y-16356484D02*
X13074825Y-16356484D01*
X13074825Y-16356484D02*
X13093872Y-16366008D01*
X13093872Y-16366008D02*
X13103396Y-16375531D01*
X13103396Y-16375531D02*
X13112920Y-16394579D01*
X13112920Y-16394579D02*
X13122444Y-16432674D01*
X13122444Y-16432674D02*
X13122444Y-16480293D01*
X13122444Y-16480293D02*
X13112920Y-16518388D01*
X13112920Y-16518388D02*
X13103396Y-16537436D01*
X13103396Y-16537436D02*
X13093872Y-16546960D01*
X13093872Y-16546960D02*
X13074825Y-16556484D01*
X13074825Y-16556484D02*
X13055777Y-16556484D01*
X13055777Y-16556484D02*
X13036729Y-16546960D01*
X13036729Y-16546960D02*
X13027206Y-16537436D01*
X13027206Y-16537436D02*
X13017682Y-16518388D01*
X13017682Y-16518388D02*
X13008158Y-16480293D01*
X13008158Y-16480293D02*
X13008158Y-16432674D01*
X13008158Y-16432674D02*
X13017682Y-16394579D01*
X13017682Y-16394579D02*
X13027206Y-16375531D01*
X13027206Y-16375531D02*
X13036729Y-16366008D01*
X13036729Y-16366008D02*
X13055777Y-16356484D01*
X13198634Y-16356484D02*
X13198634Y-16394579D01*
X13274825Y-16356484D02*
X13274825Y-16394579D01*
X13570063Y-16632674D02*
X13560539Y-16623150D01*
X13560539Y-16623150D02*
X13541491Y-16594579D01*
X13541491Y-16594579D02*
X13531968Y-16575531D01*
X13531968Y-16575531D02*
X13522444Y-16546960D01*
X13522444Y-16546960D02*
X13512920Y-16499341D01*
X13512920Y-16499341D02*
X13512920Y-16461246D01*
X13512920Y-16461246D02*
X13522444Y-16413627D01*
X13522444Y-16413627D02*
X13531968Y-16385055D01*
X13531968Y-16385055D02*
X13541491Y-16366008D01*
X13541491Y-16366008D02*
X13560539Y-16337436D01*
X13560539Y-16337436D02*
X13570063Y-16327912D01*
X13731968Y-16423150D02*
X13731968Y-16556484D01*
X13684348Y-16346960D02*
X13636729Y-16489817D01*
X13636729Y-16489817D02*
X13760539Y-16489817D01*
X13989110Y-16556484D02*
X13989110Y-16356484D01*
X14074825Y-16556484D02*
X14074825Y-16451722D01*
X14074825Y-16451722D02*
X14065301Y-16432674D01*
X14065301Y-16432674D02*
X14046253Y-16423150D01*
X14046253Y-16423150D02*
X14017682Y-16423150D01*
X14017682Y-16423150D02*
X13998634Y-16432674D01*
X13998634Y-16432674D02*
X13989110Y-16442198D01*
X14198634Y-16556484D02*
X14179587Y-16546960D01*
X14179587Y-16546960D02*
X14170063Y-16537436D01*
X14170063Y-16537436D02*
X14160539Y-16518388D01*
X14160539Y-16518388D02*
X14160539Y-16461246D01*
X14160539Y-16461246D02*
X14170063Y-16442198D01*
X14170063Y-16442198D02*
X14179587Y-16432674D01*
X14179587Y-16432674D02*
X14198634Y-16423150D01*
X14198634Y-16423150D02*
X14227206Y-16423150D01*
X14227206Y-16423150D02*
X14246253Y-16432674D01*
X14246253Y-16432674D02*
X14255777Y-16442198D01*
X14255777Y-16442198D02*
X14265301Y-16461246D01*
X14265301Y-16461246D02*
X14265301Y-16518388D01*
X14265301Y-16518388D02*
X14255777Y-16537436D01*
X14255777Y-16537436D02*
X14246253Y-16546960D01*
X14246253Y-16546960D02*
X14227206Y-16556484D01*
X14227206Y-16556484D02*
X14198634Y-16556484D01*
X14379587Y-16556484D02*
X14360539Y-16546960D01*
X14360539Y-16546960D02*
X14351015Y-16527912D01*
X14351015Y-16527912D02*
X14351015Y-16356484D01*
X14531968Y-16546960D02*
X14512920Y-16556484D01*
X14512920Y-16556484D02*
X14474825Y-16556484D01*
X14474825Y-16556484D02*
X14455777Y-16546960D01*
X14455777Y-16546960D02*
X14446253Y-16527912D01*
X14446253Y-16527912D02*
X14446253Y-16451722D01*
X14446253Y-16451722D02*
X14455777Y-16432674D01*
X14455777Y-16432674D02*
X14474825Y-16423150D01*
X14474825Y-16423150D02*
X14512920Y-16423150D01*
X14512920Y-16423150D02*
X14531968Y-16432674D01*
X14531968Y-16432674D02*
X14541491Y-16451722D01*
X14541491Y-16451722D02*
X14541491Y-16470769D01*
X14541491Y-16470769D02*
X14446253Y-16489817D01*
X14617682Y-16546960D02*
X14636730Y-16556484D01*
X14636730Y-16556484D02*
X14674825Y-16556484D01*
X14674825Y-16556484D02*
X14693872Y-16546960D01*
X14693872Y-16546960D02*
X14703396Y-16527912D01*
X14703396Y-16527912D02*
X14703396Y-16518388D01*
X14703396Y-16518388D02*
X14693872Y-16499341D01*
X14693872Y-16499341D02*
X14674825Y-16489817D01*
X14674825Y-16489817D02*
X14646253Y-16489817D01*
X14646253Y-16489817D02*
X14627206Y-16480293D01*
X14627206Y-16480293D02*
X14617682Y-16461246D01*
X14617682Y-16461246D02*
X14617682Y-16451722D01*
X14617682Y-16451722D02*
X14627206Y-16432674D01*
X14627206Y-16432674D02*
X14646253Y-16423150D01*
X14646253Y-16423150D02*
X14674825Y-16423150D01*
X14674825Y-16423150D02*
X14693872Y-16432674D01*
X14770063Y-16632674D02*
X14779587Y-16623150D01*
X14779587Y-16623150D02*
X14798634Y-16594579D01*
X14798634Y-16594579D02*
X14808158Y-16575531D01*
X14808158Y-16575531D02*
X14817682Y-16546960D01*
X14817682Y-16546960D02*
X14827206Y-16499341D01*
X14827206Y-16499341D02*
X14827206Y-16461246D01*
X14827206Y-16461246D02*
X14817682Y-16413627D01*
X14817682Y-16413627D02*
X14808158Y-16385055D01*
X14808158Y-16385055D02*
X14798634Y-16366008D01*
X14798634Y-16366008D02*
X14779587Y-16337436D01*
X14779587Y-16337436D02*
X14770063Y-16327912D01*
X15131968Y-16632674D02*
X15122444Y-16623150D01*
X15122444Y-16623150D02*
X15103396Y-16594579D01*
X15103396Y-16594579D02*
X15093872Y-16575531D01*
X15093872Y-16575531D02*
X15084349Y-16546960D01*
X15084349Y-16546960D02*
X15074825Y-16499341D01*
X15074825Y-16499341D02*
X15074825Y-16461246D01*
X15074825Y-16461246D02*
X15084349Y-16413627D01*
X15084349Y-16413627D02*
X15093872Y-16385055D01*
X15093872Y-16385055D02*
X15103396Y-16366008D01*
X15103396Y-16366008D02*
X15122444Y-16337436D01*
X15122444Y-16337436D02*
X15131968Y-16327912D01*
X15208158Y-16423150D02*
X15208158Y-16556484D01*
X15208158Y-16442198D02*
X15217682Y-16432674D01*
X15217682Y-16432674D02*
X15236730Y-16423150D01*
X15236730Y-16423150D02*
X15265301Y-16423150D01*
X15265301Y-16423150D02*
X15284349Y-16432674D01*
X15284349Y-16432674D02*
X15293872Y-16451722D01*
X15293872Y-16451722D02*
X15293872Y-16556484D01*
X15417682Y-16556484D02*
X15398634Y-16546960D01*
X15398634Y-16546960D02*
X15389111Y-16537436D01*
X15389111Y-16537436D02*
X15379587Y-16518388D01*
X15379587Y-16518388D02*
X15379587Y-16461246D01*
X15379587Y-16461246D02*
X15389111Y-16442198D01*
X15389111Y-16442198D02*
X15398634Y-16432674D01*
X15398634Y-16432674D02*
X15417682Y-16423150D01*
X15417682Y-16423150D02*
X15446253Y-16423150D01*
X15446253Y-16423150D02*
X15465301Y-16432674D01*
X15465301Y-16432674D02*
X15474825Y-16442198D01*
X15474825Y-16442198D02*
X15484349Y-16461246D01*
X15484349Y-16461246D02*
X15484349Y-16518388D01*
X15484349Y-16518388D02*
X15474825Y-16537436D01*
X15474825Y-16537436D02*
X15465301Y-16546960D01*
X15465301Y-16546960D02*
X15446253Y-16556484D01*
X15446253Y-16556484D02*
X15417682Y-16556484D01*
X15541492Y-16423150D02*
X15617682Y-16423150D01*
X15570063Y-16356484D02*
X15570063Y-16527912D01*
X15570063Y-16527912D02*
X15579587Y-16546960D01*
X15579587Y-16546960D02*
X15598634Y-16556484D01*
X15598634Y-16556484D02*
X15617682Y-16556484D01*
X15836730Y-16423150D02*
X15836730Y-16623150D01*
X15836730Y-16432674D02*
X15855777Y-16423150D01*
X15855777Y-16423150D02*
X15893873Y-16423150D01*
X15893873Y-16423150D02*
X15912920Y-16432674D01*
X15912920Y-16432674D02*
X15922444Y-16442198D01*
X15922444Y-16442198D02*
X15931968Y-16461246D01*
X15931968Y-16461246D02*
X15931968Y-16518388D01*
X15931968Y-16518388D02*
X15922444Y-16537436D01*
X15922444Y-16537436D02*
X15912920Y-16546960D01*
X15912920Y-16546960D02*
X15893873Y-16556484D01*
X15893873Y-16556484D02*
X15855777Y-16556484D01*
X15855777Y-16556484D02*
X15836730Y-16546960D01*
X16046253Y-16556484D02*
X16027206Y-16546960D01*
X16027206Y-16546960D02*
X16017682Y-16527912D01*
X16017682Y-16527912D02*
X16017682Y-16356484D01*
X16208158Y-16556484D02*
X16208158Y-16451722D01*
X16208158Y-16451722D02*
X16198634Y-16432674D01*
X16198634Y-16432674D02*
X16179587Y-16423150D01*
X16179587Y-16423150D02*
X16141492Y-16423150D01*
X16141492Y-16423150D02*
X16122444Y-16432674D01*
X16208158Y-16546960D02*
X16189111Y-16556484D01*
X16189111Y-16556484D02*
X16141492Y-16556484D01*
X16141492Y-16556484D02*
X16122444Y-16546960D01*
X16122444Y-16546960D02*
X16112920Y-16527912D01*
X16112920Y-16527912D02*
X16112920Y-16508865D01*
X16112920Y-16508865D02*
X16122444Y-16489817D01*
X16122444Y-16489817D02*
X16141492Y-16480293D01*
X16141492Y-16480293D02*
X16189111Y-16480293D01*
X16189111Y-16480293D02*
X16208158Y-16470769D01*
X16274825Y-16423150D02*
X16351015Y-16423150D01*
X16303396Y-16356484D02*
X16303396Y-16527912D01*
X16303396Y-16527912D02*
X16312920Y-16546960D01*
X16312920Y-16546960D02*
X16331968Y-16556484D01*
X16331968Y-16556484D02*
X16351015Y-16556484D01*
X16493873Y-16546960D02*
X16474825Y-16556484D01*
X16474825Y-16556484D02*
X16436730Y-16556484D01*
X16436730Y-16556484D02*
X16417682Y-16546960D01*
X16417682Y-16546960D02*
X16408158Y-16527912D01*
X16408158Y-16527912D02*
X16408158Y-16451722D01*
X16408158Y-16451722D02*
X16417682Y-16432674D01*
X16417682Y-16432674D02*
X16436730Y-16423150D01*
X16436730Y-16423150D02*
X16474825Y-16423150D01*
X16474825Y-16423150D02*
X16493873Y-16432674D01*
X16493873Y-16432674D02*
X16503396Y-16451722D01*
X16503396Y-16451722D02*
X16503396Y-16470769D01*
X16503396Y-16470769D02*
X16408158Y-16489817D01*
X16674825Y-16556484D02*
X16674825Y-16356484D01*
X16674825Y-16546960D02*
X16655777Y-16556484D01*
X16655777Y-16556484D02*
X16617682Y-16556484D01*
X16617682Y-16556484D02*
X16598634Y-16546960D01*
X16598634Y-16546960D02*
X16589111Y-16537436D01*
X16589111Y-16537436D02*
X16579587Y-16518388D01*
X16579587Y-16518388D02*
X16579587Y-16461246D01*
X16579587Y-16461246D02*
X16589111Y-16442198D01*
X16589111Y-16442198D02*
X16598634Y-16432674D01*
X16598634Y-16432674D02*
X16617682Y-16423150D01*
X16617682Y-16423150D02*
X16655777Y-16423150D01*
X16655777Y-16423150D02*
X16674825Y-16432674D01*
X16751015Y-16632674D02*
X16760539Y-16623150D01*
X16760539Y-16623150D02*
X16779587Y-16594579D01*
X16779587Y-16594579D02*
X16789111Y-16575531D01*
X16789111Y-16575531D02*
X16798635Y-16546960D01*
X16798635Y-16546960D02*
X16808158Y-16499341D01*
X16808158Y-16499341D02*
X16808158Y-16461246D01*
X16808158Y-16461246D02*
X16798635Y-16413627D01*
X16798635Y-16413627D02*
X16789111Y-16385055D01*
X16789111Y-16385055D02*
X16779587Y-16366008D01*
X16779587Y-16366008D02*
X16760539Y-16337436D01*
X16760539Y-16337436D02*
X16751015Y-16327912D01*
M02*
