M48
; DRILL file KiCad 10.0.6 date 2026-09-07T02:01:37
; FORMAT={-:-/ absolute / metric / decimal}
; #@! TF.CreationDate,2026-09-07T02:01:37-07:00
; #@! TF.GenerationSoftware,Kicad,Pcbnew,10.0.6
; #@! TF.FileFunction,MixedPlating,1,2
FMAT,2
METRIC
; #@! TA.AperFunction,Plated,PTH,ViaDrill
T1C0.300
; #@! TA.AperFunction,Plated,PTH,ComponentDrill
T2C0.800
; #@! TA.AperFunction,Plated,PTH,ComponentDrill
T3C1.000
; #@! TA.AperFunction,Plated,PTH,ComponentDrill
T4C1.200
; #@! TA.AperFunction,Plated,PTH,ComponentDrill
T5C1.300
; #@! TA.AperFunction,NonPlated,NPTH,ComponentDrill
T6C3.200
%
G90
G05
T1
X104.04Y-96.16
X105.767Y-96.521
X106.535Y-104.938
X108.0Y-83.5
X108.0Y-126.0
X108.0Y-134.5
X115.75Y-85.44
X116.5Y-58.0
X116.5Y-66.5
X116.5Y-75.0
X116.5Y-83.5
X116.5Y-117.5
X116.5Y-126.0
X120.005Y-97.602
X123.286Y-99.271
X125.0Y-58.0
X125.0Y-83.5
X125.0Y-109.0
X125.0Y-117.5
X125.0Y-126.0
X125.0Y-134.5
X128.592Y-100.73
X128.65Y-88.88
X128.65Y-92.84
X128.65Y-96.8
X130.843Y-104.938
X133.5Y-58.0
X133.5Y-126.0
X133.883Y-90.713
X135.905Y-65.4
X138.971Y-64.025
X140.011Y-73.266
X141.721Y-133.713
X141.988Y-73.662
X142.0Y-66.5
X142.0Y-75.0
X142.0Y-83.5
X142.0Y-92.0
X142.0Y-100.5
X142.0Y-109.0
X142.0Y-117.5
X142.0Y-126.0
X142.633Y-134.476
X145.713Y-57.079
X147.288Y-64.038
X147.368Y-134.04
X147.772Y-59.155
X148.316Y-134.265
X148.527Y-66.263
X148.527Y-84.322
X148.754Y-60.601
X149.494Y-137.333
X150.266Y-64.025
X150.448Y-130.856
X150.5Y-66.5
X150.5Y-75.0
X150.5Y-83.5
X150.5Y-92.0
X150.5Y-100.5
X150.5Y-109.0
X150.5Y-117.5
X150.5Y-126.0
X151.087Y-132.377
X153.039Y-58.734
X153.132Y-55.577
X153.357Y-61.224
X154.092Y-64.35
X154.092Y-134.05
X157.039Y-76.407
X158.052Y-64.35
X158.052Y-134.05
X159.0Y-126.0
X161.113Y-59.433
X162.012Y-64.35
X162.012Y-134.05
X162.034Y-72.437
X164.939Y-86.68
X165.972Y-64.35
X165.972Y-134.05
X167.5Y-126.0
X169.932Y-64.35
X169.932Y-134.05
X170.512Y-60.29
X173.892Y-64.35
X173.892Y-134.05
X176.0Y-126.0
X178.835Y-68.146
X184.5Y-75.0
X184.5Y-83.5
X184.5Y-92.0
X184.5Y-109.0
X184.5Y-117.5
X184.5Y-126.0
X184.845Y-76.05
X185.65Y-69.88
X185.65Y-99.88
X186.944Y-58.19
X193.0Y-66.5
X193.0Y-75.0
X193.0Y-92.0
X193.0Y-100.5
X193.0Y-109.0
X193.0Y-117.5
X193.0Y-126.0
X193.0Y-134.5
T2
X116.055Y-97.32
X116.055Y-103.98
X116.75Y-111.29
X118.555Y-97.32
X118.555Y-103.98
X119.25Y-111.29
X170.06Y-66.52
X170.06Y-69.06
X170.06Y-71.6
X170.06Y-74.14
X170.06Y-76.68
X170.06Y-79.22
X170.06Y-81.76
X170.06Y-84.3
X170.06Y-86.84
X170.06Y-89.38
X170.06Y-96.52
X170.06Y-99.06
X170.06Y-101.6
X170.06Y-104.14
X170.06Y-106.68
X170.06Y-109.22
X170.06Y-111.76
X170.06Y-114.3
X170.06Y-116.84
X170.06Y-119.38
X177.68Y-66.52
X177.68Y-69.06
X177.68Y-71.6
X177.68Y-74.14
X177.68Y-76.68
X177.68Y-79.22
X177.68Y-81.76
X177.68Y-84.3
X177.68Y-86.84
X177.68Y-89.38
X177.68Y-96.52
X177.68Y-99.06
X177.68Y-101.6
X177.68Y-104.14
X177.68Y-106.68
X177.68Y-109.22
X177.68Y-111.76
X177.68Y-114.3
X177.68Y-116.84
X177.68Y-119.38
T3
X104.77Y-65.0
X104.77Y-67.54
X104.77Y-70.08
X104.77Y-72.62
X104.77Y-75.16
X104.77Y-77.7
X106.73Y-116.65
X110.23Y-116.65
X112.77Y-138.27
X112.77Y-140.81
X125.09Y-65.0
X125.09Y-67.54
X125.09Y-70.08
X125.09Y-72.62
X125.09Y-75.16
X125.09Y-77.7
X135.57Y-67.0
X135.57Y-69.54
X135.57Y-72.08
X135.57Y-74.62
X135.57Y-77.16
X135.57Y-79.7
X135.57Y-82.24
X135.57Y-84.78
X135.57Y-87.32
X135.57Y-89.86
X135.57Y-92.4
X135.57Y-94.94
X135.57Y-97.48
X135.57Y-100.02
X135.57Y-102.56
X135.57Y-105.1
X135.57Y-107.64
X135.57Y-110.18
X135.57Y-112.72
X135.57Y-115.26
X135.57Y-117.8
X135.57Y-120.34
X158.43Y-67.0
X158.43Y-69.54
X158.43Y-72.08
X158.43Y-74.62
X158.43Y-77.16
X158.43Y-79.7
X158.43Y-82.24
X158.43Y-84.78
X158.43Y-87.32
X158.43Y-89.86
X158.43Y-92.4
X158.43Y-94.94
X158.43Y-97.48
X158.43Y-100.02
X158.43Y-102.56
X158.43Y-105.1
X158.43Y-107.64
X158.43Y-110.18
X158.43Y-112.72
X158.43Y-115.26
X158.43Y-117.8
X158.43Y-120.34
T4
X138.25Y-56.23
X138.25Y-138.6
X141.75Y-56.23
X141.75Y-138.6
X147.45Y-56.23
X147.45Y-138.6
X150.95Y-56.23
X150.95Y-138.6
X156.65Y-56.23
X156.65Y-138.6
X160.15Y-56.23
X160.15Y-138.6
X165.85Y-56.23
X165.85Y-138.6
X169.35Y-56.23
X169.35Y-138.6
X175.05Y-56.23
X175.05Y-138.6
X178.55Y-56.23
X178.55Y-138.6
X184.25Y-56.23
X184.25Y-138.6
X187.75Y-56.23
X187.75Y-138.6
T5
X106.33Y-89.04
X106.33Y-94.12
T6
X104.4Y-54.4
X104.4Y-140.6
X195.6Y-54.4
X195.6Y-140.6
M30
