%TF.GenerationSoftware,KiCad,Pcbnew,10.0.6*%
%TF.CreationDate,2026-09-21T09:08:00-07:00*%
%TF.ProjectId,baybasi-ctrl,62617962-6173-4692-9d63-74726c2e6b69,rev?*%
%TF.SameCoordinates,Original*%
%TF.FileFunction,Soldermask,Top*%
%TF.FilePolarity,Negative*%
%FSLAX46Y46*%
G04 Gerber Fmt 4.6, Leading zero omitted, Abs format (unit mm)*
G04 Created by KiCad (PCBNEW 10.0.6) date 2026-09-21 09:08:00*
%MOMM*%
%LPD*%
G01*
G04 APERTURE LIST*
G04 Aperture macros list*
%AMRoundRect*
0 Rectangle with rounded corners*
0 $1 Rounding radius*
0 $2 $3 $4 $5 $6 $7 $8 $9 X,Y pos of 4 corners*
0 Add a 4 corners polygon primitive as box body*
4,1,4,$2,$3,$4,$5,$6,$7,$8,$9,$2,$3,0*
0 Add four circle primitives for the rounded corners*
1,1,$1+$1,$2,$3*
1,1,$1+$1,$4,$5*
1,1,$1+$1,$6,$7*
1,1,$1+$1,$8,$9*
0 Add four rect primitives between the rounded corners*
20,1,$1+$1,$2,$3,$4,$5,0*
20,1,$1+$1,$4,$5,$6,$7,0*
20,1,$1+$1,$6,$7,$8,$9,0*
20,1,$1+$1,$8,$9,$2,$3,0*%
G04 Aperture macros list end*
%ADD10R,1.700000X1.700000*%
%ADD11C,1.700000*%
%ADD12RoundRect,0.250000X-0.262500X-0.450000X0.262500X-0.450000X0.262500X0.450000X-0.262500X0.450000X0*%
%ADD13RoundRect,0.250000X-0.250000X-0.475000X0.250000X-0.475000X0.250000X0.475000X-0.250000X0.475000X0*%
%ADD14RoundRect,0.250001X-0.949999X-0.949999X0.949999X-0.949999X0.949999X0.949999X-0.949999X0.949999X0*%
%ADD15C,2.400000*%
%ADD16RoundRect,0.375000X-0.625000X-0.375000X0.625000X-0.375000X0.625000X0.375000X-0.625000X0.375000X0*%
%ADD17RoundRect,0.500000X-0.500000X-1.400000X0.500000X-1.400000X0.500000X1.400000X-0.500000X1.400000X0*%
%ADD18RoundRect,0.250000X-0.550000X-0.550000X0.550000X-0.550000X0.550000X0.550000X-0.550000X0.550000X0*%
%ADD19C,1.600000*%
%ADD20C,3.200000*%
%ADD21R,2.350000X5.100000*%
%ADD22RoundRect,0.150000X-0.587500X-0.150000X0.587500X-0.150000X0.587500X0.150000X-0.587500X0.150000X0*%
%ADD23RoundRect,0.250000X-0.750000X-0.750000X0.750000X-0.750000X0.750000X0.750000X-0.750000X0.750000X0*%
%ADD24C,2.000000*%
%ADD25RoundRect,0.250000X-1.050000X-1.050000X1.050000X-1.050000X1.050000X1.050000X-1.050000X1.050000X0*%
%ADD26C,2.600000*%
G04 APERTURE END LIST*
D10*
%TO.C,A1L*%
X135570000Y-67000000D03*
D11*
X135570000Y-69540000D03*
X135570000Y-72080000D03*
X135570000Y-74620000D03*
X135570000Y-77160000D03*
X135570000Y-79700000D03*
X135570000Y-82240000D03*
X135570000Y-84780000D03*
X135570000Y-87320000D03*
X135570000Y-89860000D03*
X135570000Y-92400000D03*
X135570000Y-94940000D03*
X135570000Y-97480000D03*
X135570000Y-100020000D03*
X135570000Y-102560000D03*
X135570000Y-105100000D03*
X135570000Y-107640000D03*
X135570000Y-110180000D03*
X135570000Y-112720000D03*
X135570000Y-115260000D03*
X135570000Y-117800000D03*
X135570000Y-120340000D03*
%TD*%
D12*
%TO.C,R21*%
X172067500Y-62450000D03*
X173892500Y-62450000D03*
%TD*%
%TO.C,R3*%
X136187500Y-62450000D03*
X138012500Y-62450000D03*
%TD*%
%TO.C,R19*%
X164147500Y-62450000D03*
X165972500Y-62450000D03*
%TD*%
D13*
%TO.C,C8*%
X126750000Y-94900000D03*
X128650000Y-94900000D03*
%TD*%
D14*
%TO.C,J10*%
X165850000Y-138600000D03*
D15*
X169350000Y-138600000D03*
%TD*%
D14*
%TO.C,J3*%
X160150000Y-56230000D03*
D15*
X156650000Y-56230000D03*
%TD*%
D12*
%TO.C,R26*%
X168107500Y-132150000D03*
X169932500Y-132150000D03*
%TD*%
D14*
%TO.C,J4*%
X169350000Y-56230000D03*
D15*
X165850000Y-56230000D03*
%TD*%
D12*
%TO.C,R4*%
X140147500Y-62450000D03*
X141972500Y-62450000D03*
%TD*%
%TO.C,R27*%
X172067500Y-132150000D03*
X173892500Y-132150000D03*
%TD*%
D14*
%TO.C,J7*%
X138250000Y-138600000D03*
D15*
X141750000Y-138600000D03*
%TD*%
D16*
%TO.C,U3*%
X115750000Y-87340000D03*
X115750000Y-89640000D03*
D17*
X122050000Y-89640000D03*
D16*
X115750000Y-91940000D03*
%TD*%
D18*
%TO.C,SW1*%
X124000000Y-119000000D03*
D19*
X124000000Y-121540000D03*
X124000000Y-124080000D03*
X124000000Y-126620000D03*
X131620000Y-126620000D03*
X131620000Y-124080000D03*
X131620000Y-121540000D03*
X131620000Y-119000000D03*
%TD*%
D12*
%TO.C,R11*%
X144107500Y-132150000D03*
X145932500Y-132150000D03*
%TD*%
%TO.C,R10*%
X140147500Y-132150000D03*
X141972500Y-132150000D03*
%TD*%
D14*
%TO.C,J1*%
X141750000Y-56230000D03*
D15*
X138250000Y-56230000D03*
%TD*%
D20*
%TO.C,H3*%
X104400000Y-140600000D03*
%TD*%
D12*
%TO.C,R22*%
X152267500Y-132150000D03*
X154092500Y-132150000D03*
%TD*%
%TO.C,R8*%
X132227500Y-132150000D03*
X134052500Y-132150000D03*
%TD*%
D14*
%TO.C,J9*%
X156650000Y-138600000D03*
D15*
X160150000Y-138600000D03*
%TD*%
D21*
%TO.C,L1*%
X104425000Y-106820000D03*
X108575000Y-106820000D03*
%TD*%
D13*
%TO.C,C5*%
X183750000Y-67980000D03*
X185650000Y-67980000D03*
%TD*%
D14*
%TO.C,J5*%
X178550000Y-56230000D03*
D15*
X175050000Y-56230000D03*
%TD*%
D20*
%TO.C,H1*%
X104400000Y-54400000D03*
%TD*%
D12*
%TO.C,R20*%
X168107500Y-62450000D03*
X169932500Y-62450000D03*
%TD*%
D10*
%TO.C,J14*%
X112770000Y-138270000D03*
D11*
X112770000Y-140810000D03*
%TD*%
D12*
%TO.C,R13*%
X126767500Y-98830000D03*
X128592500Y-98830000D03*
%TD*%
D14*
%TO.C,J2*%
X150950000Y-56230000D03*
D15*
X147450000Y-56230000D03*
%TD*%
D13*
%TO.C,C6*%
X183750000Y-97980000D03*
X185650000Y-97980000D03*
%TD*%
D22*
%TO.C,Q1*%
X103992500Y-99420000D03*
X103992500Y-101320000D03*
X105867500Y-100370000D03*
%TD*%
D12*
%TO.C,R5*%
X144107500Y-62450000D03*
X145932500Y-62450000D03*
%TD*%
%TO.C,R6*%
X148067500Y-62450000D03*
X149892500Y-62450000D03*
%TD*%
D14*
%TO.C,J8*%
X147450000Y-138600000D03*
D15*
X150950000Y-138600000D03*
%TD*%
D18*
%TO.C,U2*%
X172560000Y-96520000D03*
D19*
X172560000Y-99060000D03*
X172560000Y-101600000D03*
X172560000Y-104140000D03*
X172560000Y-106680000D03*
X172560000Y-109220000D03*
X172560000Y-111760000D03*
X172560000Y-114300000D03*
X172560000Y-116840000D03*
X172560000Y-119380000D03*
X180180000Y-119380000D03*
X180180000Y-116840000D03*
X180180000Y-114300000D03*
X180180000Y-111760000D03*
X180180000Y-109220000D03*
X180180000Y-106680000D03*
X180180000Y-104140000D03*
X180180000Y-101600000D03*
X180180000Y-99060000D03*
X180180000Y-96520000D03*
%TD*%
D12*
%TO.C,R15*%
X191767500Y-80950000D03*
X193592500Y-80950000D03*
%TD*%
D20*
%TO.C,H2*%
X195600000Y-54400000D03*
%TD*%
D13*
%TO.C,C7*%
X126750000Y-86980000D03*
X128650000Y-86980000D03*
%TD*%
D18*
%TO.C,U1*%
X172560000Y-66520000D03*
D19*
X172560000Y-69060000D03*
X172560000Y-71600000D03*
X172560000Y-74140000D03*
X172560000Y-76680000D03*
X172560000Y-79220000D03*
X172560000Y-81760000D03*
X172560000Y-84300000D03*
X172560000Y-86840000D03*
X172560000Y-89380000D03*
X180180000Y-89380000D03*
X180180000Y-86840000D03*
X180180000Y-84300000D03*
X180180000Y-81760000D03*
X180180000Y-79220000D03*
X180180000Y-76680000D03*
X180180000Y-74140000D03*
X180180000Y-71600000D03*
X180180000Y-69060000D03*
X180180000Y-66520000D03*
%TD*%
D18*
%TO.C,C3*%
X116055000Y-97320000D03*
D19*
X118555000Y-97320000D03*
%TD*%
D10*
%TO.C,M1*%
X104770000Y-65000000D03*
D11*
X104770000Y-67540000D03*
X104770000Y-70080000D03*
X104770000Y-72620000D03*
X104770000Y-75160000D03*
X104770000Y-77700000D03*
%TD*%
D12*
%TO.C,R17*%
X156227500Y-62450000D03*
X158052500Y-62450000D03*
%TD*%
%TO.C,R14*%
X126767500Y-102730000D03*
X128592500Y-102730000D03*
%TD*%
D10*
%TO.C,M2*%
X125090000Y-65000000D03*
D11*
X125090000Y-67540000D03*
X125090000Y-70080000D03*
X125090000Y-72620000D03*
X125090000Y-75160000D03*
X125090000Y-77700000D03*
%TD*%
D23*
%TO.C,C1*%
X106730000Y-116650000D03*
D24*
X110230000Y-116650000D03*
%TD*%
D12*
%TO.C,R18*%
X160187500Y-62450000D03*
X162012500Y-62450000D03*
%TD*%
%TO.C,R1*%
X128267500Y-62450000D03*
X130092500Y-62450000D03*
%TD*%
D18*
%TO.C,C4*%
X116055000Y-103980000D03*
D19*
X118555000Y-103980000D03*
%TD*%
D12*
%TO.C,R2*%
X132227500Y-62450000D03*
X134052500Y-62450000D03*
%TD*%
D14*
%TO.C,J11*%
X175050000Y-138600000D03*
D15*
X178550000Y-138600000D03*
%TD*%
D18*
%TO.C,C2*%
X116750000Y-111290000D03*
D19*
X119250000Y-111290000D03*
%TD*%
D13*
%TO.C,C9*%
X126750000Y-90940000D03*
X128650000Y-90940000D03*
%TD*%
D20*
%TO.C,H4*%
X195600000Y-140600000D03*
%TD*%
D12*
%TO.C,R16*%
X152267500Y-62450000D03*
X154092500Y-62450000D03*
%TD*%
D10*
%TO.C,A1R*%
X160970000Y-67000000D03*
D11*
X160970000Y-69540000D03*
X160970000Y-72080000D03*
X160970000Y-74620000D03*
X160970000Y-77160000D03*
X160970000Y-79700000D03*
X160970000Y-82240000D03*
X160970000Y-84780000D03*
X160970000Y-87320000D03*
X160970000Y-89860000D03*
X160970000Y-92400000D03*
X160970000Y-94940000D03*
X160970000Y-97480000D03*
X160970000Y-100020000D03*
X160970000Y-102560000D03*
X160970000Y-105100000D03*
X160970000Y-107640000D03*
X160970000Y-110180000D03*
X160970000Y-112720000D03*
X160970000Y-115260000D03*
X160970000Y-117800000D03*
X160970000Y-120340000D03*
%TD*%
D12*
%TO.C,R12*%
X148067500Y-132150000D03*
X149892500Y-132150000D03*
%TD*%
%TO.C,R24*%
X160187500Y-132150000D03*
X162012500Y-132150000D03*
%TD*%
D14*
%TO.C,J6*%
X187750000Y-56230000D03*
D15*
X184250000Y-56230000D03*
%TD*%
D12*
%TO.C,R25*%
X164147500Y-132150000D03*
X165972500Y-132150000D03*
%TD*%
D25*
%TO.C,J13*%
X106330000Y-89040000D03*
D26*
X106330000Y-94120000D03*
%TD*%
D12*
%TO.C,R23*%
X156227500Y-132150000D03*
X158052500Y-132150000D03*
%TD*%
D14*
%TO.C,J12*%
X184250000Y-138600000D03*
D15*
X187750000Y-138600000D03*
%TD*%
D12*
%TO.C,R9*%
X136187500Y-132150000D03*
X138012500Y-132150000D03*
%TD*%
%TO.C,R7*%
X128267500Y-132150000D03*
X130092500Y-132150000D03*
%TD*%
M02*
