%TF.GenerationSoftware,KiCad,Pcbnew,10.0.6*%
%TF.CreationDate,2026-09-07T02:01:36-07:00*%
%TF.ProjectId,baybasi-ctrl,62617962-6173-4692-9d63-74726c2e6b69,rev?*%
%TF.SameCoordinates,Original*%
%TF.FileFunction,Paste,Top*%
%TF.FilePolarity,Positive*%
%FSLAX46Y46*%
G04 Gerber Fmt 4.6, Leading zero omitted, Abs format (unit mm)*
G04 Created by KiCad (PCBNEW 10.0.6) date 2026-09-07 02:01:36*
%MOMM*%
%LPD*%
G01*
G04 APERTURE LIST*
G04 Aperture macros list*
%AMRoundRect*
0 Rectangle with rounded corners*
0 $1 Rounding radius*
0 $2 $3 $4 $5 $6 $7 $8 $9 X,Y pos of 4 corners*
0 Add a 4 corners polygon primitive as box body*
4,1,4,$2,$3,$4,$5,$6,$7,$8,$9,$2,$3,0*
0 Add four circle primitives for the rounded corners*
1,1,$1+$1,$2,$3*
1,1,$1+$1,$4,$5*
1,1,$1+$1,$6,$7*
1,1,$1+$1,$8,$9*
0 Add four rect primitives between the rounded corners*
20,1,$1+$1,$2,$3,$4,$5,0*
20,1,$1+$1,$4,$5,$6,$7,0*
20,1,$1+$1,$6,$7,$8,$9,0*
20,1,$1+$1,$8,$9,$2,$3,0*%
G04 Aperture macros list end*
%ADD10RoundRect,0.250000X-0.262500X-0.450000X0.262500X-0.450000X0.262500X0.450000X-0.262500X0.450000X0*%
%ADD11RoundRect,0.375000X-0.625000X-0.375000X0.625000X-0.375000X0.625000X0.375000X-0.625000X0.375000X0*%
%ADD12RoundRect,0.500000X-0.500000X-1.400000X0.500000X-1.400000X0.500000X1.400000X-0.500000X1.400000X0*%
%ADD13RoundRect,0.250000X-0.250000X-0.475000X0.250000X-0.475000X0.250000X0.475000X-0.250000X0.475000X0*%
%ADD14RoundRect,0.150000X-0.587500X-0.150000X0.587500X-0.150000X0.587500X0.150000X-0.587500X0.150000X0*%
%ADD15R,2.350000X5.100000*%
G04 APERTURE END LIST*
D10*
%TO.C,R7*%
X128267500Y-132150000D03*
X130092500Y-132150000D03*
%TD*%
%TO.C,R12*%
X148067500Y-132150000D03*
X149892500Y-132150000D03*
%TD*%
%TO.C,R19*%
X164147500Y-62450000D03*
X165972500Y-62450000D03*
%TD*%
%TO.C,R16*%
X152267500Y-62450000D03*
X154092500Y-62450000D03*
%TD*%
%TO.C,R22*%
X152267500Y-132150000D03*
X154092500Y-132150000D03*
%TD*%
D11*
%TO.C,U3*%
X115750000Y-87340000D03*
X115750000Y-89640000D03*
D12*
X122050000Y-89640000D03*
D11*
X115750000Y-91940000D03*
%TD*%
D13*
%TO.C,C7*%
X126750000Y-86980000D03*
X128650000Y-86980000D03*
%TD*%
D10*
%TO.C,R17*%
X156227500Y-62450000D03*
X158052500Y-62450000D03*
%TD*%
%TO.C,R9*%
X136187500Y-132150000D03*
X138012500Y-132150000D03*
%TD*%
%TO.C,R1*%
X128267500Y-62450000D03*
X130092500Y-62450000D03*
%TD*%
D14*
%TO.C,Q1*%
X103992500Y-99420000D03*
X103992500Y-101320000D03*
X105867500Y-100370000D03*
%TD*%
D10*
%TO.C,R6*%
X148067500Y-62450000D03*
X149892500Y-62450000D03*
%TD*%
D13*
%TO.C,C6*%
X183750000Y-97980000D03*
X185650000Y-97980000D03*
%TD*%
D10*
%TO.C,R13*%
X126767500Y-98830000D03*
X128592500Y-98830000D03*
%TD*%
%TO.C,R23*%
X156227500Y-132150000D03*
X158052500Y-132150000D03*
%TD*%
%TO.C,R3*%
X136187500Y-62450000D03*
X138012500Y-62450000D03*
%TD*%
%TO.C,R5*%
X144107500Y-62450000D03*
X145932500Y-62450000D03*
%TD*%
%TO.C,R26*%
X168107500Y-132150000D03*
X169932500Y-132150000D03*
%TD*%
%TO.C,R11*%
X144107500Y-132150000D03*
X145932500Y-132150000D03*
%TD*%
%TO.C,R24*%
X160187500Y-132150000D03*
X162012500Y-132150000D03*
%TD*%
D15*
%TO.C,L1*%
X104425000Y-106820000D03*
X108575000Y-106820000D03*
%TD*%
D13*
%TO.C,C8*%
X126750000Y-94900000D03*
X128650000Y-94900000D03*
%TD*%
D10*
%TO.C,R10*%
X140147500Y-132150000D03*
X141972500Y-132150000D03*
%TD*%
%TO.C,R20*%
X168107500Y-62450000D03*
X169932500Y-62450000D03*
%TD*%
D13*
%TO.C,C9*%
X126750000Y-90940000D03*
X128650000Y-90940000D03*
%TD*%
%TO.C,C5*%
X183750000Y-67980000D03*
X185650000Y-67980000D03*
%TD*%
D10*
%TO.C,R25*%
X164147500Y-132150000D03*
X165972500Y-132150000D03*
%TD*%
%TO.C,R15*%
X191767500Y-80950000D03*
X193592500Y-80950000D03*
%TD*%
%TO.C,R8*%
X132227500Y-132150000D03*
X134052500Y-132150000D03*
%TD*%
%TO.C,R18*%
X160187500Y-62450000D03*
X162012500Y-62450000D03*
%TD*%
%TO.C,R27*%
X172067500Y-132150000D03*
X173892500Y-132150000D03*
%TD*%
%TO.C,R4*%
X140147500Y-62450000D03*
X141972500Y-62450000D03*
%TD*%
%TO.C,R21*%
X172067500Y-62450000D03*
X173892500Y-62450000D03*
%TD*%
%TO.C,R2*%
X132227500Y-62450000D03*
X134052500Y-62450000D03*
%TD*%
%TO.C,R14*%
X126767500Y-102730000D03*
X128592500Y-102730000D03*
%TD*%
M02*
