M48
; DRILL file KiCad 10.0.6 date 2026-09-21T09:08:01
; FORMAT={-:-/ absolute / metric / decimal}
; #@! TF.CreationDate,2026-09-21T09:08:01-07:00
; #@! TF.GenerationSoftware,Kicad,Pcbnew,10.0.6
; #@! TF.FileFunction,MixedPlating,1,2
FMAT,2
METRIC
; #@! TA.AperFunction,Plated,PTH,ViaDrill
T1C0.300
; #@! TA.AperFunction,Plated,PTH,ComponentDrill
T2C0.800
; #@! TA.AperFunction,Plated,PTH,ComponentDrill
T3C1.000
; #@! TA.AperFunction,Plated,PTH,ComponentDrill
T4C1.200
; #@! TA.AperFunction,Plated,PTH,ComponentDrill
T5C1.300
; #@! TA.AperFunction,NonPlated,NPTH,ComponentDrill
T6C3.200
%
G90
G05
T1
X104.04Y-96.16
X105.767Y-96.521
X106.535Y-104.938
X108.0Y-83.5
X108.0Y-126.0
X108.0Y-134.5
X115.75Y-85.44
X116.5Y-58.0
X116.5Y-66.5
X116.5Y-75.0
X116.5Y-83.5
X116.5Y-117.5
X116.5Y-126.0
X120.005Y-97.602
X125.0Y-58.0
X125.0Y-83.5
X125.0Y-109.0
X125.0Y-134.5
X128.592Y-100.73
X128.65Y-88.88
X128.65Y-92.84
X128.65Y-96.8
X129.998Y-105.828
X130.845Y-104.936
X133.5Y-58.0
X133.905Y-124.371
X135.047Y-123.726
X137.119Y-96.781
X138.004Y-118.488
X138.971Y-64.025
X139.343Y-92.149
X139.875Y-89.986
X141.665Y-133.908
X141.986Y-73.662
X142.0Y-66.5
X142.0Y-75.0
X142.0Y-83.5
X142.0Y-92.0
X142.0Y-100.5
X142.0Y-109.0
X142.0Y-117.5
X142.0Y-126.0
X147.772Y-59.153
X148.527Y-66.263
X148.755Y-60.602
X149.337Y-134.966
X149.476Y-133.86
X150.266Y-64.025
X150.5Y-66.5
X150.5Y-75.0
X150.5Y-83.5
X150.5Y-92.0
X150.5Y-100.5
X150.5Y-109.0
X150.5Y-117.5
X150.5Y-126.0
X152.32Y-137.141
X153.985Y-60.531
X154.092Y-64.35
X154.092Y-134.05
X154.421Y-78.162
X157.745Y-66.319
X158.052Y-64.35
X158.052Y-134.05
X159.0Y-126.0
X160.214Y-134.688
X162.012Y-64.35
X162.012Y-134.05
X162.277Y-67.172
X163.249Y-69.555
X163.831Y-79.56
X165.972Y-64.35
X165.972Y-134.05
X166.111Y-113.402
X167.5Y-66.5
X167.5Y-75.0
X167.5Y-83.5
X167.5Y-92.0
X167.5Y-100.5
X167.5Y-109.0
X167.5Y-117.5
X167.5Y-126.0
X169.932Y-64.35
X169.932Y-134.05
X170.512Y-60.29
X173.892Y-64.35
X173.892Y-134.05
X176.0Y-126.0
X184.5Y-75.0
X184.5Y-83.5
X184.5Y-92.0
X184.5Y-109.0
X184.5Y-117.5
X184.5Y-126.0
X185.65Y-69.88
X185.65Y-99.88
X186.944Y-58.19
X189.787Y-78.162
X193.0Y-66.5
X193.0Y-75.0
X193.0Y-92.0
X193.0Y-100.5
X193.0Y-109.0
X193.0Y-117.5
X193.0Y-126.0
X193.0Y-134.5
T2
X116.055Y-97.32
X116.055Y-103.98
X116.75Y-111.29
X118.555Y-97.32
X118.555Y-103.98
X119.25Y-111.29
X124.0Y-119.0
X124.0Y-121.54
X124.0Y-124.08
X124.0Y-126.62
X131.62Y-119.0
X131.62Y-121.54
X131.62Y-124.08
X131.62Y-126.62
X172.56Y-66.52
X172.56Y-69.06
X172.56Y-71.6
X172.56Y-74.14
X172.56Y-76.68
X172.56Y-79.22
X172.56Y-81.76
X172.56Y-84.3
X172.56Y-86.84
X172.56Y-89.38
X172.56Y-96.52
X172.56Y-99.06
X172.56Y-101.6
X172.56Y-104.14
X172.56Y-106.68
X172.56Y-109.22
X172.56Y-111.76
X172.56Y-114.3
X172.56Y-116.84
X172.56Y-119.38
X180.18Y-66.52
X180.18Y-69.06
X180.18Y-71.6
X180.18Y-74.14
X180.18Y-76.68
X180.18Y-79.22
X180.18Y-81.76
X180.18Y-84.3
X180.18Y-86.84
X180.18Y-89.38
X180.18Y-96.52
X180.18Y-99.06
X180.18Y-101.6
X180.18Y-104.14
X180.18Y-106.68
X180.18Y-109.22
X180.18Y-111.76
X180.18Y-114.3
X180.18Y-116.84
X180.18Y-119.38
T3
X104.77Y-65.0
X104.77Y-67.54
X104.77Y-70.08
X104.77Y-72.62
X104.77Y-75.16
X104.77Y-77.7
X106.73Y-116.65
X110.23Y-116.65
X112.77Y-138.27
X112.77Y-140.81
X125.09Y-65.0
X125.09Y-67.54
X125.09Y-70.08
X125.09Y-72.62
X125.09Y-75.16
X125.09Y-77.7
X135.57Y-67.0
X135.57Y-69.54
X135.57Y-72.08
X135.57Y-74.62
X135.57Y-77.16
X135.57Y-79.7
X135.57Y-82.24
X135.57Y-84.78
X135.57Y-87.32
X135.57Y-89.86
X135.57Y-92.4
X135.57Y-94.94
X135.57Y-97.48
X135.57Y-100.02
X135.57Y-102.56
X135.57Y-105.1
X135.57Y-107.64
X135.57Y-110.18
X135.57Y-112.72
X135.57Y-115.26
X135.57Y-117.8
X135.57Y-120.34
X160.97Y-67.0
X160.97Y-69.54
X160.97Y-72.08
X160.97Y-74.62
X160.97Y-77.16
X160.97Y-79.7
X160.97Y-82.24
X160.97Y-84.78
X160.97Y-87.32
X160.97Y-89.86
X160.97Y-92.4
X160.97Y-94.94
X160.97Y-97.48
X160.97Y-100.02
X160.97Y-102.56
X160.97Y-105.1
X160.97Y-107.64
X160.97Y-110.18
X160.97Y-112.72
X160.97Y-115.26
X160.97Y-117.8
X160.97Y-120.34
T4
X138.25Y-56.23
X138.25Y-138.6
X141.75Y-56.23
X141.75Y-138.6
X147.45Y-56.23
X147.45Y-138.6
X150.95Y-56.23
X150.95Y-138.6
X156.65Y-56.23
X156.65Y-138.6
X160.15Y-56.23
X160.15Y-138.6
X165.85Y-56.23
X165.85Y-138.6
X169.35Y-56.23
X169.35Y-138.6
X175.05Y-56.23
X175.05Y-138.6
X178.55Y-56.23
X178.55Y-138.6
X184.25Y-56.23
X184.25Y-138.6
X187.75Y-56.23
X187.75Y-138.6
T5
X106.33Y-89.04
X106.33Y-94.12
T6
X104.4Y-54.4
X104.4Y-140.6
X195.6Y-54.4
X195.6Y-140.6
M30
