%TF.GenerationSoftware,KiCad,Pcbnew,10.0.6*%
%TF.CreationDate,2026-09-07T02:01:36-07:00*%
%TF.ProjectId,baybasi-ctrl,62617962-6173-4692-9d63-74726c2e6b69,rev?*%
%TF.SameCoordinates,Original*%
%TF.FileFunction,Legend,Top*%
%TF.FilePolarity,Positive*%
%FSLAX46Y46*%
G04 Gerber Fmt 4.6, Leading zero omitted, Abs format (unit mm)*
G04 Created by KiCad (PCBNEW 10.0.6) date 2026-09-07 02:01:36*
%MOMM*%
%LPD*%
G01*
G04 APERTURE LIST*
G04 Aperture macros list*
%AMRoundRect*
0 Rectangle with rounded corners*
0 $1 Rounding radius*
0 $2 $3 $4 $5 $6 $7 $8 $9 X,Y pos of 4 corners*
0 Add a 4 corners polygon primitive as box body*
4,1,4,$2,$3,$4,$5,$6,$7,$8,$9,$2,$3,0*
0 Add four circle primitives for the rounded corners*
1,1,$1+$1,$2,$3*
1,1,$1+$1,$4,$5*
1,1,$1+$1,$6,$7*
1,1,$1+$1,$8,$9*
0 Add four rect primitives between the rounded corners*
20,1,$1+$1,$2,$3,$4,$5,0*
20,1,$1+$1,$4,$5,$6,$7,0*
20,1,$1+$1,$6,$7,$8,$9,0*
20,1,$1+$1,$8,$9,$2,$3,0*%
G04 Aperture macros list end*
%ADD10C,0.120000*%
%ADD11C,0.200000*%
%ADD12C,0.150000*%
%ADD13RoundRect,0.250000X-0.262500X-0.450000X0.262500X-0.450000X0.262500X0.450000X-0.262500X0.450000X0*%
%ADD14RoundRect,0.250000X-0.550000X-0.550000X0.550000X-0.550000X0.550000X0.550000X-0.550000X0.550000X0*%
%ADD15C,1.600000*%
%ADD16C,3.200000*%
%ADD17RoundRect,0.250001X-0.949999X-0.949999X0.949999X-0.949999X0.949999X0.949999X-0.949999X0.949999X0*%
%ADD18C,2.400000*%
%ADD19R,1.700000X1.700000*%
%ADD20C,1.700000*%
%ADD21RoundRect,0.375000X-0.625000X-0.375000X0.625000X-0.375000X0.625000X0.375000X-0.625000X0.375000X0*%
%ADD22RoundRect,0.500000X-0.500000X-1.400000X0.500000X-1.400000X0.500000X1.400000X-0.500000X1.400000X0*%
%ADD23RoundRect,0.250000X-0.250000X-0.475000X0.250000X-0.475000X0.250000X0.475000X-0.250000X0.475000X0*%
%ADD24RoundRect,0.250000X-0.750000X-0.750000X0.750000X-0.750000X0.750000X0.750000X-0.750000X0.750000X0*%
%ADD25C,2.000000*%
%ADD26RoundRect,0.250000X-1.050000X-1.050000X1.050000X-1.050000X1.050000X1.050000X-1.050000X1.050000X0*%
%ADD27C,2.600000*%
%ADD28RoundRect,0.150000X-0.587500X-0.150000X0.587500X-0.150000X0.587500X0.150000X-0.587500X0.150000X0*%
%ADD29R,2.350000X5.100000*%
G04 APERTURE END LIST*
D10*
X102930000Y-58100000D02*
X126930000Y-58100000D01*
X126930000Y-84100000D01*
X102930000Y-84100000D01*
X102930000Y-58100000D01*
X106880000Y-56100000D02*
X106880000Y-57800000D01*
X106880000Y-56100000D02*
X122980000Y-56100000D01*
X122980000Y-56100000D02*
X122980000Y-57800000D01*
X133420000Y-65250000D02*
X160580000Y-65250000D01*
X160580000Y-130450000D01*
X133420000Y-130450000D01*
X133420000Y-65250000D01*
D11*
X181500000Y-107260000D02*
X182820000Y-107260000D01*
X181500000Y-107380000D02*
X182820000Y-107380000D01*
X181500000Y-107500000D02*
X182820000Y-107500000D01*
X181500000Y-107620000D02*
X182820000Y-107620000D01*
X181500000Y-107740000D02*
X182820000Y-107740000D01*
X181500000Y-107860000D02*
X182820000Y-107860000D01*
X181500000Y-107980000D02*
X182700000Y-107980000D01*
X181500000Y-108100000D02*
X182700000Y-108100000D01*
X181500000Y-108220000D02*
X182700000Y-108220000D01*
X181500000Y-108340000D02*
X182700000Y-108340000D01*
X181500000Y-108460000D02*
X182700000Y-108460000D01*
X181500000Y-108580000D02*
X182700000Y-108580000D01*
X181500000Y-108700000D02*
X182700000Y-108700000D01*
X181500000Y-108820000D02*
X182700000Y-108820000D01*
X181500000Y-108940000D02*
X182820000Y-108940000D01*
X181500000Y-109060000D02*
X182820000Y-109060000D01*
X181500000Y-109180000D02*
X182820000Y-109180000D01*
X181500000Y-109300000D02*
X182820000Y-109300000D01*
X181500000Y-109420000D02*
X182820000Y-109420000D01*
X181500000Y-109540000D02*
X182820000Y-109540000D01*
X181620000Y-106660000D02*
X183060000Y-106660000D01*
X181620000Y-106780000D02*
X182940000Y-106780000D01*
X181620000Y-106900000D02*
X182940000Y-106900000D01*
X181620000Y-107020000D02*
X182940000Y-107020000D01*
X181620000Y-107140000D02*
X182940000Y-107140000D01*
X181620000Y-109660000D02*
X182940000Y-109660000D01*
X181620000Y-109780000D02*
X182940000Y-109780000D01*
X181620000Y-109900000D02*
X182940000Y-109900000D01*
X181620000Y-110020000D02*
X182940000Y-110020000D01*
X181620000Y-110140000D02*
X183060000Y-110140000D01*
X181740000Y-106300000D02*
X183180000Y-106300000D01*
X181740000Y-106420000D02*
X183060000Y-106420000D01*
X181740000Y-106540000D02*
X183060000Y-106540000D01*
X181740000Y-110260000D02*
X183060000Y-110260000D01*
X181740000Y-110380000D02*
X183060000Y-110380000D01*
X181740000Y-110500000D02*
X183180000Y-110500000D01*
X181860000Y-105940000D02*
X183300000Y-105940000D01*
X181860000Y-106060000D02*
X183300000Y-106060000D01*
X181860000Y-106180000D02*
X183180000Y-106180000D01*
X181860000Y-110620000D02*
X183180000Y-110620000D01*
X181860000Y-110740000D02*
X183300000Y-110740000D01*
X181860000Y-110860000D02*
X183300000Y-110860000D01*
X181980000Y-105700000D02*
X183420000Y-105700000D01*
X181980000Y-105820000D02*
X183420000Y-105820000D01*
X181980000Y-110980000D02*
X183420000Y-110980000D01*
X181980000Y-111100000D02*
X183420000Y-111100000D01*
X182100000Y-105460000D02*
X183540000Y-105460000D01*
X182100000Y-105580000D02*
X183540000Y-105580000D01*
X182100000Y-111220000D02*
X183540000Y-111220000D01*
X182100000Y-111340000D02*
X183540000Y-111340000D01*
X182220000Y-105220000D02*
X183780000Y-105220000D01*
X182220000Y-105340000D02*
X183660000Y-105340000D01*
X182220000Y-111460000D02*
X183660000Y-111460000D01*
X182220000Y-111580000D02*
X183780000Y-111580000D01*
X182340000Y-104980000D02*
X183900000Y-104980000D01*
X182340000Y-105100000D02*
X183780000Y-105100000D01*
X182340000Y-111700000D02*
X183780000Y-111700000D01*
X182340000Y-111820000D02*
X183900000Y-111820000D01*
X182460000Y-104740000D02*
X184140000Y-104740000D01*
X182460000Y-104860000D02*
X184020000Y-104860000D01*
X182460000Y-111940000D02*
X184020000Y-111940000D01*
X182460000Y-112060000D02*
X184140000Y-112060000D01*
X182580000Y-104620000D02*
X184260000Y-104620000D01*
X182580000Y-112180000D02*
X184260000Y-112180000D01*
X182700000Y-104380000D02*
X184500000Y-104380000D01*
X182700000Y-104500000D02*
X184380000Y-104500000D01*
X182700000Y-112300000D02*
X184380000Y-112300000D01*
X182700000Y-112420000D02*
X184500000Y-112420000D01*
X182820000Y-104260000D02*
X184620000Y-104260000D01*
X182820000Y-112540000D02*
X184620000Y-112540000D01*
X182940000Y-104020000D02*
X184860000Y-104020000D01*
X182940000Y-104140000D02*
X184740000Y-104140000D01*
X182940000Y-112660000D02*
X184740000Y-112660000D01*
X182940000Y-112780000D02*
X184860000Y-112780000D01*
X183060000Y-103900000D02*
X184980000Y-103900000D01*
X183060000Y-112900000D02*
X184980000Y-112900000D01*
X183180000Y-103780000D02*
X185220000Y-103780000D01*
X183180000Y-113020000D02*
X185220000Y-113020000D01*
X183300000Y-103660000D02*
X185340000Y-103660000D01*
X183300000Y-113140000D02*
X185340000Y-113140000D01*
X183420000Y-103540000D02*
X185580000Y-103540000D01*
X183420000Y-113260000D02*
X185580000Y-113260000D01*
X183540000Y-103420000D02*
X185820000Y-103420000D01*
X183540000Y-113380000D02*
X185820000Y-113380000D01*
X183660000Y-103300000D02*
X186060000Y-103300000D01*
X183660000Y-113500000D02*
X186060000Y-113500000D01*
X183780000Y-103180000D02*
X186300000Y-103180000D01*
X183780000Y-113620000D02*
X186300000Y-113620000D01*
X183900000Y-103060000D02*
X186660000Y-103060000D01*
X183900000Y-113740000D02*
X186660000Y-113740000D01*
X184020000Y-102940000D02*
X187140000Y-102940000D01*
X184020000Y-113860000D02*
X187140000Y-113860000D01*
X184140000Y-110260000D02*
X192540000Y-110260000D01*
X184260000Y-102820000D02*
X187860000Y-102820000D01*
X184260000Y-110380000D02*
X192540000Y-110380000D01*
X184260000Y-113980000D02*
X187860000Y-113980000D01*
X184380000Y-102700000D02*
X192420000Y-102700000D01*
X184380000Y-114100000D02*
X192420000Y-114100000D01*
X184500000Y-110500000D02*
X192300000Y-110500000D01*
X184620000Y-102580000D02*
X192180000Y-102580000D01*
X184620000Y-114220000D02*
X192180000Y-114220000D01*
X184740000Y-102460000D02*
X192060000Y-102460000D01*
X184740000Y-114340000D02*
X192060000Y-114340000D01*
X184860000Y-110620000D02*
X191820000Y-110620000D01*
X184980000Y-102340000D02*
X191820000Y-102340000D01*
X184980000Y-114460000D02*
X191820000Y-114460000D01*
X185100000Y-106060000D02*
X185220000Y-106060000D01*
X185100000Y-106180000D02*
X185220000Y-106180000D01*
X185100000Y-106300000D02*
X185820000Y-106300000D01*
X185100000Y-106420000D02*
X186060000Y-106420000D01*
X185100000Y-106540000D02*
X186180000Y-106540000D01*
X185100000Y-106660000D02*
X185220000Y-106660000D01*
X185100000Y-106780000D02*
X185220000Y-106780000D01*
X185100000Y-106900000D02*
X185220000Y-106900000D01*
X185100000Y-107020000D02*
X185220000Y-107020000D01*
X185100000Y-107140000D02*
X185220000Y-107140000D01*
X185100000Y-107260000D02*
X185220000Y-107260000D01*
X185100000Y-107380000D02*
X185220000Y-107380000D01*
X185100000Y-107500000D02*
X185220000Y-107500000D01*
X185100000Y-107620000D02*
X186180000Y-107620000D01*
X185100000Y-107740000D02*
X185940000Y-107740000D01*
X185100000Y-107860000D02*
X185220000Y-107860000D01*
X185100000Y-107980000D02*
X186180000Y-107980000D01*
X185100000Y-108100000D02*
X186420000Y-108100000D01*
X185100000Y-108220000D02*
X185220000Y-108220000D01*
X185100000Y-108340000D02*
X185220000Y-108340000D01*
X185100000Y-108460000D02*
X185220000Y-108460000D01*
X185100000Y-108580000D02*
X185220000Y-108580000D01*
X185100000Y-108700000D02*
X185220000Y-108700000D01*
X185100000Y-108820000D02*
X185220000Y-108820000D01*
X185100000Y-108940000D02*
X185220000Y-108940000D01*
X185100000Y-109060000D02*
X185220000Y-109060000D01*
X185100000Y-109180000D02*
X185220000Y-109180000D01*
X185100000Y-109300000D02*
X185220000Y-109300000D01*
X185100000Y-109420000D02*
X185220000Y-109420000D01*
X185100000Y-109540000D02*
X185220000Y-109540000D01*
X185100000Y-109660000D02*
X185220000Y-109660000D01*
X185100000Y-109780000D02*
X185220000Y-109780000D01*
X185100000Y-109900000D02*
X185220000Y-109900000D01*
X185100000Y-110020000D02*
X186300000Y-110020000D01*
X185100000Y-110140000D02*
X185220000Y-110140000D01*
X185220000Y-102220000D02*
X191580000Y-102220000D01*
X185220000Y-114580000D02*
X191580000Y-114580000D01*
X185460000Y-102100000D02*
X191340000Y-102100000D01*
X185460000Y-106660000D02*
X186180000Y-106660000D01*
X185460000Y-107500000D02*
X186180000Y-107500000D01*
X185460000Y-107860000D02*
X185820000Y-107860000D01*
X185460000Y-108220000D02*
X186540000Y-108220000D01*
X185460000Y-109900000D02*
X186420000Y-109900000D01*
X185460000Y-110140000D02*
X186060000Y-110140000D01*
X185460000Y-110740000D02*
X185700000Y-110740000D01*
X185460000Y-114700000D02*
X191340000Y-114700000D01*
X185580000Y-106780000D02*
X186300000Y-106780000D01*
X185580000Y-106900000D02*
X186300000Y-106900000D01*
X185580000Y-107020000D02*
X186300000Y-107020000D01*
X185580000Y-107140000D02*
X186300000Y-107140000D01*
X185580000Y-107260000D02*
X186300000Y-107260000D01*
X185580000Y-107380000D02*
X186300000Y-107380000D01*
X185580000Y-108340000D02*
X186660000Y-108340000D01*
X185580000Y-109780000D02*
X186660000Y-109780000D01*
X185700000Y-101980000D02*
X191100000Y-101980000D01*
X185700000Y-108460000D02*
X186780000Y-108460000D01*
X185700000Y-109660000D02*
X186660000Y-109660000D01*
X185700000Y-114820000D02*
X191100000Y-114820000D01*
X185820000Y-108580000D02*
X186780000Y-108580000D01*
X185820000Y-108700000D02*
X186900000Y-108700000D01*
X185820000Y-108820000D02*
X186900000Y-108820000D01*
X185820000Y-109300000D02*
X186900000Y-109300000D01*
X185820000Y-109420000D02*
X186900000Y-109420000D01*
X185820000Y-109540000D02*
X186780000Y-109540000D01*
X185940000Y-101860000D02*
X190860000Y-101860000D01*
X185940000Y-108940000D02*
X186900000Y-108940000D01*
X185940000Y-109060000D02*
X186900000Y-109060000D01*
X185940000Y-109180000D02*
X186900000Y-109180000D01*
X185940000Y-114940000D02*
X190860000Y-114940000D01*
X186180000Y-110740000D02*
X186540000Y-110740000D01*
X186300000Y-101740000D02*
X190500000Y-101740000D01*
X186300000Y-115060000D02*
X190500000Y-115060000D01*
X186660000Y-101620000D02*
X190140000Y-101620000D01*
X186660000Y-115180000D02*
X190140000Y-115180000D01*
X186900000Y-110740000D02*
X187260000Y-110740000D01*
X187140000Y-108820000D02*
X188700000Y-108820000D01*
X187140000Y-108940000D02*
X188700000Y-108940000D01*
X187140000Y-109060000D02*
X188580000Y-109060000D01*
X187140000Y-109180000D02*
X188580000Y-109180000D01*
X187140000Y-109300000D02*
X188580000Y-109300000D01*
X187140000Y-109420000D02*
X188580000Y-109420000D01*
X187140000Y-109540000D02*
X188580000Y-109540000D01*
X187260000Y-101500000D02*
X189540000Y-101500000D01*
X187260000Y-108700000D02*
X188820000Y-108700000D01*
X187260000Y-109660000D02*
X188700000Y-109660000D01*
X187260000Y-115300000D02*
X189540000Y-115300000D01*
X187380000Y-108580000D02*
X188940000Y-108580000D01*
X187380000Y-109780000D02*
X188700000Y-109780000D01*
X187500000Y-108460000D02*
X188820000Y-108460000D01*
X187500000Y-109900000D02*
X188820000Y-109900000D01*
X187620000Y-108340000D02*
X188580000Y-108340000D01*
X187620000Y-110020000D02*
X188700000Y-110020000D01*
X187740000Y-110740000D02*
X188100000Y-110740000D01*
X187860000Y-110140000D02*
X188460000Y-110140000D01*
X187980000Y-108220000D02*
X188340000Y-108220000D01*
X188580000Y-110740000D02*
X188940000Y-110740000D01*
X188940000Y-102820000D02*
X192540000Y-102820000D01*
X188940000Y-109060000D02*
X188940000Y-109060000D01*
X188940000Y-109180000D02*
X189060000Y-109180000D01*
X188940000Y-113980000D02*
X192540000Y-113980000D01*
X189060000Y-109300000D02*
X189180000Y-109300000D01*
X189060000Y-109420000D02*
X189180000Y-109420000D01*
X189060000Y-109540000D02*
X189420000Y-109540000D01*
X189060000Y-109660000D02*
X189660000Y-109660000D01*
X189180000Y-109780000D02*
X191100000Y-109780000D01*
X189300000Y-109900000D02*
X191100000Y-109900000D01*
X189420000Y-110020000D02*
X191100000Y-110020000D01*
X189420000Y-110740000D02*
X189780000Y-110740000D01*
X189660000Y-102940000D02*
X192780000Y-102940000D01*
X189660000Y-110140000D02*
X190260000Y-110140000D01*
X189660000Y-113860000D02*
X192780000Y-113860000D01*
X190140000Y-103060000D02*
X192900000Y-103060000D01*
X190140000Y-110740000D02*
X190500000Y-110740000D01*
X190140000Y-113740000D02*
X192900000Y-113740000D01*
X190260000Y-108700000D02*
X191100000Y-108700000D01*
X190260000Y-108820000D02*
X191100000Y-108820000D01*
X190260000Y-108940000D02*
X191100000Y-108940000D01*
X190260000Y-109060000D02*
X191100000Y-109060000D01*
X190260000Y-109660000D02*
X191100000Y-109660000D01*
X190380000Y-108580000D02*
X190860000Y-108580000D01*
X190380000Y-109180000D02*
X191100000Y-109180000D01*
X190500000Y-103180000D02*
X193020000Y-103180000D01*
X190500000Y-113620000D02*
X193020000Y-113620000D01*
X190620000Y-109540000D02*
X191100000Y-109540000D01*
X190620000Y-110140000D02*
X191100000Y-110140000D01*
X190740000Y-103300000D02*
X193140000Y-103300000D01*
X190740000Y-109420000D02*
X191100000Y-109420000D01*
X190740000Y-113500000D02*
X193140000Y-113500000D01*
X190860000Y-109300000D02*
X191100000Y-109300000D01*
X190980000Y-103420000D02*
X193260000Y-103420000D01*
X190980000Y-113380000D02*
X193260000Y-113380000D01*
X191100000Y-108460000D02*
X191100000Y-108460000D01*
X191100000Y-108580000D02*
X191100000Y-108580000D01*
X191100000Y-110740000D02*
X191220000Y-110740000D01*
X191220000Y-103540000D02*
X193380000Y-103540000D01*
X191220000Y-113260000D02*
X193380000Y-113260000D01*
X191460000Y-103660000D02*
X193500000Y-103660000D01*
X191460000Y-113140000D02*
X193500000Y-113140000D01*
X191580000Y-103780000D02*
X193620000Y-103780000D01*
X191580000Y-113020000D02*
X193620000Y-113020000D01*
X191820000Y-103900000D02*
X193740000Y-103900000D01*
X191820000Y-112900000D02*
X193740000Y-112900000D01*
X191940000Y-104020000D02*
X193860000Y-104020000D01*
X191940000Y-112780000D02*
X193860000Y-112780000D01*
X192060000Y-104140000D02*
X193860000Y-104140000D01*
X192060000Y-112660000D02*
X193860000Y-112660000D01*
X192180000Y-104260000D02*
X193980000Y-104260000D01*
X192180000Y-112540000D02*
X193980000Y-112540000D01*
X192300000Y-104380000D02*
X194100000Y-104380000D01*
X192300000Y-112420000D02*
X194100000Y-112420000D01*
X192420000Y-104500000D02*
X194100000Y-104500000D01*
X192420000Y-112300000D02*
X194100000Y-112300000D01*
X192540000Y-104620000D02*
X194220000Y-104620000D01*
X192540000Y-112180000D02*
X194220000Y-112180000D01*
X192660000Y-104740000D02*
X194340000Y-104740000D01*
X192660000Y-112060000D02*
X194340000Y-112060000D01*
X192780000Y-104860000D02*
X194340000Y-104860000D01*
X192780000Y-111940000D02*
X194340000Y-111940000D01*
X192900000Y-104980000D02*
X194460000Y-104980000D01*
X192900000Y-111820000D02*
X194460000Y-111820000D01*
X193020000Y-105100000D02*
X194460000Y-105100000D01*
X193020000Y-105220000D02*
X194580000Y-105220000D01*
X193020000Y-111580000D02*
X194580000Y-111580000D01*
X193020000Y-111700000D02*
X194460000Y-111700000D01*
X193140000Y-105340000D02*
X194580000Y-105340000D01*
X193140000Y-111460000D02*
X194580000Y-111460000D01*
X193260000Y-105460000D02*
X194700000Y-105460000D01*
X193260000Y-105580000D02*
X194700000Y-105580000D01*
X193260000Y-111220000D02*
X194700000Y-111220000D01*
X193260000Y-111340000D02*
X194700000Y-111340000D01*
X193380000Y-105700000D02*
X194820000Y-105700000D01*
X193380000Y-105820000D02*
X194820000Y-105820000D01*
X193380000Y-110980000D02*
X194820000Y-110980000D01*
X193380000Y-111100000D02*
X194820000Y-111100000D01*
X193500000Y-105940000D02*
X194940000Y-105940000D01*
X193500000Y-106060000D02*
X194940000Y-106060000D01*
X193500000Y-110740000D02*
X194940000Y-110740000D01*
X193500000Y-110860000D02*
X194940000Y-110860000D01*
X193620000Y-106180000D02*
X194940000Y-106180000D01*
X193620000Y-106300000D02*
X195060000Y-106300000D01*
X193620000Y-110500000D02*
X195060000Y-110500000D01*
X193620000Y-110620000D02*
X194940000Y-110620000D01*
X193740000Y-106420000D02*
X195060000Y-106420000D01*
X193740000Y-106540000D02*
X195060000Y-106540000D01*
X193740000Y-106660000D02*
X195180000Y-106660000D01*
X193740000Y-110140000D02*
X195180000Y-110140000D01*
X193740000Y-110260000D02*
X195060000Y-110260000D01*
X193740000Y-110380000D02*
X195060000Y-110380000D01*
X193860000Y-106780000D02*
X195180000Y-106780000D01*
X193860000Y-106900000D02*
X195180000Y-106900000D01*
X193860000Y-107020000D02*
X195180000Y-107020000D01*
X193860000Y-107140000D02*
X195180000Y-107140000D01*
X193860000Y-109660000D02*
X195180000Y-109660000D01*
X193860000Y-109780000D02*
X195180000Y-109780000D01*
X193860000Y-109900000D02*
X195180000Y-109900000D01*
X193860000Y-110020000D02*
X195180000Y-110020000D01*
X193980000Y-107260000D02*
X195300000Y-107260000D01*
X193980000Y-107380000D02*
X195300000Y-107380000D01*
X193980000Y-107500000D02*
X195300000Y-107500000D01*
X193980000Y-107620000D02*
X195300000Y-107620000D01*
X193980000Y-107740000D02*
X195300000Y-107740000D01*
X193980000Y-107860000D02*
X195300000Y-107860000D01*
X193980000Y-108940000D02*
X195300000Y-108940000D01*
X193980000Y-109060000D02*
X195300000Y-109060000D01*
X193980000Y-109180000D02*
X195300000Y-109180000D01*
X193980000Y-109300000D02*
X195300000Y-109300000D01*
X193980000Y-109420000D02*
X195300000Y-109420000D01*
X193980000Y-109540000D02*
X195300000Y-109540000D01*
X194100000Y-107980000D02*
X195300000Y-107980000D01*
X194100000Y-108100000D02*
X195300000Y-108100000D01*
X194100000Y-108220000D02*
X195300000Y-108220000D01*
X194100000Y-108340000D02*
X195300000Y-108340000D01*
X194100000Y-108460000D02*
X195300000Y-108460000D01*
X194100000Y-108580000D02*
X195300000Y-108580000D01*
X194100000Y-108700000D02*
X195300000Y-108700000D01*
X194100000Y-108820000D02*
X195300000Y-108820000D01*
D12*
X104227255Y-80808557D02*
X104441541Y-81708557D01*
X104441541Y-81708557D02*
X104612969Y-81065700D01*
X104612969Y-81065700D02*
X104784398Y-81708557D01*
X104784398Y-81708557D02*
X104998684Y-80808557D01*
X105770112Y-80808557D02*
X105341540Y-80808557D01*
X105341540Y-80808557D02*
X105298683Y-81237128D01*
X105298683Y-81237128D02*
X105341540Y-81194271D01*
X105341540Y-81194271D02*
X105427255Y-81151414D01*
X105427255Y-81151414D02*
X105641540Y-81151414D01*
X105641540Y-81151414D02*
X105727255Y-81194271D01*
X105727255Y-81194271D02*
X105770112Y-81237128D01*
X105770112Y-81237128D02*
X105812969Y-81322842D01*
X105812969Y-81322842D02*
X105812969Y-81537128D01*
X105812969Y-81537128D02*
X105770112Y-81622842D01*
X105770112Y-81622842D02*
X105727255Y-81665700D01*
X105727255Y-81665700D02*
X105641540Y-81708557D01*
X105641540Y-81708557D02*
X105427255Y-81708557D01*
X105427255Y-81708557D02*
X105341540Y-81665700D01*
X105341540Y-81665700D02*
X105298683Y-81622842D01*
X106627255Y-80808557D02*
X106198683Y-80808557D01*
X106198683Y-80808557D02*
X106155826Y-81237128D01*
X106155826Y-81237128D02*
X106198683Y-81194271D01*
X106198683Y-81194271D02*
X106284398Y-81151414D01*
X106284398Y-81151414D02*
X106498683Y-81151414D01*
X106498683Y-81151414D02*
X106584398Y-81194271D01*
X106584398Y-81194271D02*
X106627255Y-81237128D01*
X106627255Y-81237128D02*
X106670112Y-81322842D01*
X106670112Y-81322842D02*
X106670112Y-81537128D01*
X106670112Y-81537128D02*
X106627255Y-81622842D01*
X106627255Y-81622842D02*
X106584398Y-81665700D01*
X106584398Y-81665700D02*
X106498683Y-81708557D01*
X106498683Y-81708557D02*
X106284398Y-81708557D01*
X106284398Y-81708557D02*
X106198683Y-81665700D01*
X106198683Y-81665700D02*
X106155826Y-81622842D01*
X107227255Y-80808557D02*
X107312969Y-80808557D01*
X107312969Y-80808557D02*
X107398683Y-80851414D01*
X107398683Y-80851414D02*
X107441541Y-80894271D01*
X107441541Y-80894271D02*
X107484398Y-80979985D01*
X107484398Y-80979985D02*
X107527255Y-81151414D01*
X107527255Y-81151414D02*
X107527255Y-81365700D01*
X107527255Y-81365700D02*
X107484398Y-81537128D01*
X107484398Y-81537128D02*
X107441541Y-81622842D01*
X107441541Y-81622842D02*
X107398683Y-81665700D01*
X107398683Y-81665700D02*
X107312969Y-81708557D01*
X107312969Y-81708557D02*
X107227255Y-81708557D01*
X107227255Y-81708557D02*
X107141541Y-81665700D01*
X107141541Y-81665700D02*
X107098683Y-81622842D01*
X107098683Y-81622842D02*
X107055826Y-81537128D01*
X107055826Y-81537128D02*
X107012969Y-81365700D01*
X107012969Y-81365700D02*
X107012969Y-81151414D01*
X107012969Y-81151414D02*
X107055826Y-80979985D01*
X107055826Y-80979985D02*
X107098683Y-80894271D01*
X107098683Y-80894271D02*
X107141541Y-80851414D01*
X107141541Y-80851414D02*
X107227255Y-80808557D01*
X108084398Y-80808557D02*
X108170112Y-80808557D01*
X108170112Y-80808557D02*
X108255826Y-80851414D01*
X108255826Y-80851414D02*
X108298684Y-80894271D01*
X108298684Y-80894271D02*
X108341541Y-80979985D01*
X108341541Y-80979985D02*
X108384398Y-81151414D01*
X108384398Y-81151414D02*
X108384398Y-81365700D01*
X108384398Y-81365700D02*
X108341541Y-81537128D01*
X108341541Y-81537128D02*
X108298684Y-81622842D01*
X108298684Y-81622842D02*
X108255826Y-81665700D01*
X108255826Y-81665700D02*
X108170112Y-81708557D01*
X108170112Y-81708557D02*
X108084398Y-81708557D01*
X108084398Y-81708557D02*
X107998684Y-81665700D01*
X107998684Y-81665700D02*
X107955826Y-81622842D01*
X107955826Y-81622842D02*
X107912969Y-81537128D01*
X107912969Y-81537128D02*
X107870112Y-81365700D01*
X107870112Y-81365700D02*
X107870112Y-81151414D01*
X107870112Y-81151414D02*
X107912969Y-80979985D01*
X107912969Y-80979985D02*
X107955826Y-80894271D01*
X107955826Y-80894271D02*
X107998684Y-80851414D01*
X107998684Y-80851414D02*
X108084398Y-80808557D01*
X109455826Y-81708557D02*
X109455826Y-80808557D01*
X109455826Y-80808557D02*
X109755826Y-81451414D01*
X109755826Y-81451414D02*
X110055826Y-80808557D01*
X110055826Y-80808557D02*
X110055826Y-81708557D01*
X110655826Y-80808557D02*
X110827254Y-80808557D01*
X110827254Y-80808557D02*
X110912969Y-80851414D01*
X110912969Y-80851414D02*
X110998683Y-80937128D01*
X110998683Y-80937128D02*
X111041540Y-81108557D01*
X111041540Y-81108557D02*
X111041540Y-81408557D01*
X111041540Y-81408557D02*
X110998683Y-81579985D01*
X110998683Y-81579985D02*
X110912969Y-81665700D01*
X110912969Y-81665700D02*
X110827254Y-81708557D01*
X110827254Y-81708557D02*
X110655826Y-81708557D01*
X110655826Y-81708557D02*
X110570112Y-81665700D01*
X110570112Y-81665700D02*
X110484397Y-81579985D01*
X110484397Y-81579985D02*
X110441540Y-81408557D01*
X110441540Y-81408557D02*
X110441540Y-81108557D01*
X110441540Y-81108557D02*
X110484397Y-80937128D01*
X110484397Y-80937128D02*
X110570112Y-80851414D01*
X110570112Y-80851414D02*
X110655826Y-80808557D01*
X111427254Y-81708557D02*
X111427254Y-80808557D01*
X111427254Y-80808557D02*
X111641540Y-80808557D01*
X111641540Y-80808557D02*
X111770111Y-80851414D01*
X111770111Y-80851414D02*
X111855826Y-80937128D01*
X111855826Y-80937128D02*
X111898683Y-81022842D01*
X111898683Y-81022842D02*
X111941540Y-81194271D01*
X111941540Y-81194271D02*
X111941540Y-81322842D01*
X111941540Y-81322842D02*
X111898683Y-81494271D01*
X111898683Y-81494271D02*
X111855826Y-81579985D01*
X111855826Y-81579985D02*
X111770111Y-81665700D01*
X111770111Y-81665700D02*
X111641540Y-81708557D01*
X111641540Y-81708557D02*
X111427254Y-81708557D01*
X112327254Y-80808557D02*
X112327254Y-81537128D01*
X112327254Y-81537128D02*
X112370111Y-81622842D01*
X112370111Y-81622842D02*
X112412969Y-81665700D01*
X112412969Y-81665700D02*
X112498683Y-81708557D01*
X112498683Y-81708557D02*
X112670111Y-81708557D01*
X112670111Y-81708557D02*
X112755826Y-81665700D01*
X112755826Y-81665700D02*
X112798683Y-81622842D01*
X112798683Y-81622842D02*
X112841540Y-81537128D01*
X112841540Y-81537128D02*
X112841540Y-80808557D01*
X113698683Y-81708557D02*
X113270111Y-81708557D01*
X113270111Y-81708557D02*
X113270111Y-80808557D01*
X113998682Y-81237128D02*
X114298682Y-81237128D01*
X114427254Y-81708557D02*
X113998682Y-81708557D01*
X113998682Y-81708557D02*
X113998682Y-80808557D01*
X113998682Y-80808557D02*
X114427254Y-80808557D01*
X116184396Y-81708557D02*
X116184396Y-80808557D01*
X116184396Y-80808557D02*
X116527253Y-80808557D01*
X116527253Y-80808557D02*
X116612968Y-80851414D01*
X116612968Y-80851414D02*
X116655825Y-80894271D01*
X116655825Y-80894271D02*
X116698682Y-80979985D01*
X116698682Y-80979985D02*
X116698682Y-81108557D01*
X116698682Y-81108557D02*
X116655825Y-81194271D01*
X116655825Y-81194271D02*
X116612968Y-81237128D01*
X116612968Y-81237128D02*
X116527253Y-81279985D01*
X116527253Y-81279985D02*
X116184396Y-81279985D01*
X117084396Y-81708557D02*
X117084396Y-80808557D01*
X117512967Y-81708557D02*
X117512967Y-80808557D01*
X117512967Y-80808557D02*
X118027253Y-81708557D01*
X118027253Y-81708557D02*
X118027253Y-80808557D01*
X119612967Y-81708557D02*
X119098681Y-81708557D01*
X119355824Y-81708557D02*
X119355824Y-80808557D01*
X119355824Y-80808557D02*
X119270110Y-80937128D01*
X119270110Y-80937128D02*
X119184395Y-81022842D01*
X119184395Y-81022842D02*
X119098681Y-81065700D01*
X120641538Y-81451414D02*
X121070110Y-81451414D01*
X120555824Y-81708557D02*
X120855824Y-80808557D01*
X120855824Y-80808557D02*
X121155824Y-81708557D01*
X121327253Y-80808557D02*
X121841539Y-80808557D01*
X121584396Y-81708557D02*
X121584396Y-80808557D01*
X122698681Y-80808557D02*
X123212967Y-80808557D01*
X122955824Y-81708557D02*
X122955824Y-80808557D01*
X123684395Y-80808557D02*
X123855823Y-80808557D01*
X123855823Y-80808557D02*
X123941538Y-80851414D01*
X123941538Y-80851414D02*
X124027252Y-80937128D01*
X124027252Y-80937128D02*
X124070109Y-81108557D01*
X124070109Y-81108557D02*
X124070109Y-81408557D01*
X124070109Y-81408557D02*
X124027252Y-81579985D01*
X124027252Y-81579985D02*
X123941538Y-81665700D01*
X123941538Y-81665700D02*
X123855823Y-81708557D01*
X123855823Y-81708557D02*
X123684395Y-81708557D01*
X123684395Y-81708557D02*
X123598681Y-81665700D01*
X123598681Y-81665700D02*
X123512966Y-81579985D01*
X123512966Y-81579985D02*
X123470109Y-81408557D01*
X123470109Y-81408557D02*
X123470109Y-81108557D01*
X123470109Y-81108557D02*
X123512966Y-80937128D01*
X123512966Y-80937128D02*
X123598681Y-80851414D01*
X123598681Y-80851414D02*
X123684395Y-80808557D01*
X124455823Y-81708557D02*
X124455823Y-80808557D01*
X124455823Y-80808557D02*
X124798680Y-80808557D01*
X124798680Y-80808557D02*
X124884395Y-80851414D01*
X124884395Y-80851414D02*
X124927252Y-80894271D01*
X124927252Y-80894271D02*
X124970109Y-80979985D01*
X124970109Y-80979985D02*
X124970109Y-81108557D01*
X124970109Y-81108557D02*
X124927252Y-81194271D01*
X124927252Y-81194271D02*
X124884395Y-81237128D01*
X124884395Y-81237128D02*
X124798680Y-81279985D01*
X124798680Y-81279985D02*
X124455823Y-81279985D01*
X116570112Y-142508557D02*
X116570112Y-143151414D01*
X116570112Y-143151414D02*
X116527255Y-143279985D01*
X116527255Y-143279985D02*
X116441541Y-143365700D01*
X116441541Y-143365700D02*
X116312969Y-143408557D01*
X116312969Y-143408557D02*
X116227255Y-143408557D01*
X117470112Y-143408557D02*
X116955826Y-143408557D01*
X117212969Y-143408557D02*
X117212969Y-142508557D01*
X117212969Y-142508557D02*
X117127255Y-142637128D01*
X117127255Y-142637128D02*
X117041540Y-142722842D01*
X117041540Y-142722842D02*
X116955826Y-142765700D01*
X117855826Y-143065700D02*
X118541541Y-143065700D01*
X119227255Y-142508557D02*
X119227255Y-143151414D01*
X119227255Y-143151414D02*
X119184398Y-143279985D01*
X119184398Y-143279985D02*
X119098684Y-143365700D01*
X119098684Y-143365700D02*
X118970112Y-143408557D01*
X118970112Y-143408557D02*
X118884398Y-143408557D01*
X120127255Y-143408557D02*
X119612969Y-143408557D01*
X119870112Y-143408557D02*
X119870112Y-142508557D01*
X119870112Y-142508557D02*
X119784398Y-142637128D01*
X119784398Y-142637128D02*
X119698683Y-142722842D01*
X119698683Y-142722842D02*
X119612969Y-142765700D01*
X120470112Y-142594271D02*
X120512969Y-142551414D01*
X120512969Y-142551414D02*
X120598684Y-142508557D01*
X120598684Y-142508557D02*
X120812969Y-142508557D01*
X120812969Y-142508557D02*
X120898684Y-142551414D01*
X120898684Y-142551414D02*
X120941541Y-142594271D01*
X120941541Y-142594271D02*
X120984398Y-142679985D01*
X120984398Y-142679985D02*
X120984398Y-142765700D01*
X120984398Y-142765700D02*
X120941541Y-142894271D01*
X120941541Y-142894271D02*
X120427255Y-143408557D01*
X120427255Y-143408557D02*
X120984398Y-143408557D01*
X121370112Y-143322842D02*
X121412969Y-143365700D01*
X121412969Y-143365700D02*
X121370112Y-143408557D01*
X121370112Y-143408557D02*
X121327255Y-143365700D01*
X121327255Y-143365700D02*
X121370112Y-143322842D01*
X121370112Y-143322842D02*
X121370112Y-143408557D01*
X121370112Y-142851414D02*
X121412969Y-142894271D01*
X121412969Y-142894271D02*
X121370112Y-142937128D01*
X121370112Y-142937128D02*
X121327255Y-142894271D01*
X121327255Y-142894271D02*
X121370112Y-142851414D01*
X121370112Y-142851414D02*
X121370112Y-142937128D01*
X122441540Y-143365700D02*
X122570112Y-143408557D01*
X122570112Y-143408557D02*
X122784397Y-143408557D01*
X122784397Y-143408557D02*
X122870112Y-143365700D01*
X122870112Y-143365700D02*
X122912969Y-143322842D01*
X122912969Y-143322842D02*
X122955826Y-143237128D01*
X122955826Y-143237128D02*
X122955826Y-143151414D01*
X122955826Y-143151414D02*
X122912969Y-143065700D01*
X122912969Y-143065700D02*
X122870112Y-143022842D01*
X122870112Y-143022842D02*
X122784397Y-142979985D01*
X122784397Y-142979985D02*
X122612969Y-142937128D01*
X122612969Y-142937128D02*
X122527254Y-142894271D01*
X122527254Y-142894271D02*
X122484397Y-142851414D01*
X122484397Y-142851414D02*
X122441540Y-142765700D01*
X122441540Y-142765700D02*
X122441540Y-142679985D01*
X122441540Y-142679985D02*
X122484397Y-142594271D01*
X122484397Y-142594271D02*
X122527254Y-142551414D01*
X122527254Y-142551414D02*
X122612969Y-142508557D01*
X122612969Y-142508557D02*
X122827254Y-142508557D01*
X122827254Y-142508557D02*
X122955826Y-142551414D01*
X123941540Y-143494271D02*
X123855826Y-143451414D01*
X123855826Y-143451414D02*
X123770112Y-143365700D01*
X123770112Y-143365700D02*
X123641540Y-143237128D01*
X123641540Y-143237128D02*
X123555826Y-143194271D01*
X123555826Y-143194271D02*
X123470112Y-143194271D01*
X123512969Y-143408557D02*
X123427255Y-143365700D01*
X123427255Y-143365700D02*
X123341540Y-143279985D01*
X123341540Y-143279985D02*
X123298683Y-143108557D01*
X123298683Y-143108557D02*
X123298683Y-142808557D01*
X123298683Y-142808557D02*
X123341540Y-142637128D01*
X123341540Y-142637128D02*
X123427255Y-142551414D01*
X123427255Y-142551414D02*
X123512969Y-142508557D01*
X123512969Y-142508557D02*
X123684397Y-142508557D01*
X123684397Y-142508557D02*
X123770112Y-142551414D01*
X123770112Y-142551414D02*
X123855826Y-142637128D01*
X123855826Y-142637128D02*
X123898683Y-142808557D01*
X123898683Y-142808557D02*
X123898683Y-143108557D01*
X123898683Y-143108557D02*
X123855826Y-143279985D01*
X123855826Y-143279985D02*
X123770112Y-143365700D01*
X123770112Y-143365700D02*
X123684397Y-143408557D01*
X123684397Y-143408557D02*
X123512969Y-143408557D01*
X124970111Y-143408557D02*
X124970111Y-142508557D01*
X124970111Y-142508557D02*
X125312968Y-142508557D01*
X125312968Y-142508557D02*
X125398683Y-142551414D01*
X125398683Y-142551414D02*
X125441540Y-142594271D01*
X125441540Y-142594271D02*
X125484397Y-142679985D01*
X125484397Y-142679985D02*
X125484397Y-142808557D01*
X125484397Y-142808557D02*
X125441540Y-142894271D01*
X125441540Y-142894271D02*
X125398683Y-142937128D01*
X125398683Y-142937128D02*
X125312968Y-142979985D01*
X125312968Y-142979985D02*
X124970111Y-142979985D01*
X125827254Y-143151414D02*
X126255826Y-143151414D01*
X125741540Y-143408557D02*
X126041540Y-142508557D01*
X126041540Y-142508557D02*
X126341540Y-143408557D01*
X126641540Y-143408557D02*
X126641540Y-142508557D01*
X126641540Y-142508557D02*
X126855826Y-142508557D01*
X126855826Y-142508557D02*
X126984397Y-142551414D01*
X126984397Y-142551414D02*
X127070112Y-142637128D01*
X127070112Y-142637128D02*
X127112969Y-142722842D01*
X127112969Y-142722842D02*
X127155826Y-142894271D01*
X127155826Y-142894271D02*
X127155826Y-143022842D01*
X127155826Y-143022842D02*
X127112969Y-143194271D01*
X127112969Y-143194271D02*
X127070112Y-143279985D01*
X127070112Y-143279985D02*
X126984397Y-143365700D01*
X126984397Y-143365700D02*
X126855826Y-143408557D01*
X126855826Y-143408557D02*
X126641540Y-143408557D01*
X128227254Y-142937128D02*
X128912969Y-142937128D01*
X128912969Y-143194271D02*
X128227254Y-143194271D01*
X130027254Y-143408557D02*
X130027254Y-142508557D01*
X130027254Y-142508557D02*
X130241540Y-142508557D01*
X130241540Y-142508557D02*
X130370111Y-142551414D01*
X130370111Y-142551414D02*
X130455826Y-142637128D01*
X130455826Y-142637128D02*
X130498683Y-142722842D01*
X130498683Y-142722842D02*
X130541540Y-142894271D01*
X130541540Y-142894271D02*
X130541540Y-143022842D01*
X130541540Y-143022842D02*
X130498683Y-143194271D01*
X130498683Y-143194271D02*
X130455826Y-143279985D01*
X130455826Y-143279985D02*
X130370111Y-143365700D01*
X130370111Y-143365700D02*
X130241540Y-143408557D01*
X130241540Y-143408557D02*
X130027254Y-143408557D01*
X130884397Y-143151414D02*
X131312969Y-143151414D01*
X130798683Y-143408557D02*
X131098683Y-142508557D01*
X131098683Y-142508557D02*
X131398683Y-143408557D01*
X131570112Y-142508557D02*
X132084398Y-142508557D01*
X131827255Y-143408557D02*
X131827255Y-142508557D01*
X132341540Y-143151414D02*
X132770112Y-143151414D01*
X132255826Y-143408557D02*
X132555826Y-142508557D01*
X132555826Y-142508557D02*
X132855826Y-143408557D01*
X137812969Y-123437128D02*
X138112969Y-123437128D01*
X138241541Y-123908557D02*
X137812969Y-123908557D01*
X137812969Y-123908557D02*
X137812969Y-123008557D01*
X137812969Y-123008557D02*
X138241541Y-123008557D01*
X138584398Y-123865700D02*
X138712970Y-123908557D01*
X138712970Y-123908557D02*
X138927255Y-123908557D01*
X138927255Y-123908557D02*
X139012970Y-123865700D01*
X139012970Y-123865700D02*
X139055827Y-123822842D01*
X139055827Y-123822842D02*
X139098684Y-123737128D01*
X139098684Y-123737128D02*
X139098684Y-123651414D01*
X139098684Y-123651414D02*
X139055827Y-123565700D01*
X139055827Y-123565700D02*
X139012970Y-123522842D01*
X139012970Y-123522842D02*
X138927255Y-123479985D01*
X138927255Y-123479985D02*
X138755827Y-123437128D01*
X138755827Y-123437128D02*
X138670112Y-123394271D01*
X138670112Y-123394271D02*
X138627255Y-123351414D01*
X138627255Y-123351414D02*
X138584398Y-123265700D01*
X138584398Y-123265700D02*
X138584398Y-123179985D01*
X138584398Y-123179985D02*
X138627255Y-123094271D01*
X138627255Y-123094271D02*
X138670112Y-123051414D01*
X138670112Y-123051414D02*
X138755827Y-123008557D01*
X138755827Y-123008557D02*
X138970112Y-123008557D01*
X138970112Y-123008557D02*
X139098684Y-123051414D01*
X139484398Y-123908557D02*
X139484398Y-123008557D01*
X139484398Y-123008557D02*
X139827255Y-123008557D01*
X139827255Y-123008557D02*
X139912970Y-123051414D01*
X139912970Y-123051414D02*
X139955827Y-123094271D01*
X139955827Y-123094271D02*
X139998684Y-123179985D01*
X139998684Y-123179985D02*
X139998684Y-123308557D01*
X139998684Y-123308557D02*
X139955827Y-123394271D01*
X139955827Y-123394271D02*
X139912970Y-123437128D01*
X139912970Y-123437128D02*
X139827255Y-123479985D01*
X139827255Y-123479985D02*
X139484398Y-123479985D01*
X140298684Y-123008557D02*
X140855827Y-123008557D01*
X140855827Y-123008557D02*
X140555827Y-123351414D01*
X140555827Y-123351414D02*
X140684398Y-123351414D01*
X140684398Y-123351414D02*
X140770113Y-123394271D01*
X140770113Y-123394271D02*
X140812970Y-123437128D01*
X140812970Y-123437128D02*
X140855827Y-123522842D01*
X140855827Y-123522842D02*
X140855827Y-123737128D01*
X140855827Y-123737128D02*
X140812970Y-123822842D01*
X140812970Y-123822842D02*
X140770113Y-123865700D01*
X140770113Y-123865700D02*
X140684398Y-123908557D01*
X140684398Y-123908557D02*
X140427255Y-123908557D01*
X140427255Y-123908557D02*
X140341541Y-123865700D01*
X140341541Y-123865700D02*
X140298684Y-123822842D01*
X141198684Y-123094271D02*
X141241541Y-123051414D01*
X141241541Y-123051414D02*
X141327256Y-123008557D01*
X141327256Y-123008557D02*
X141541541Y-123008557D01*
X141541541Y-123008557D02*
X141627256Y-123051414D01*
X141627256Y-123051414D02*
X141670113Y-123094271D01*
X141670113Y-123094271D02*
X141712970Y-123179985D01*
X141712970Y-123179985D02*
X141712970Y-123265700D01*
X141712970Y-123265700D02*
X141670113Y-123394271D01*
X141670113Y-123394271D02*
X141155827Y-123908557D01*
X141155827Y-123908557D02*
X141712970Y-123908557D01*
X142098684Y-123565700D02*
X142784399Y-123565700D01*
X143170113Y-123865700D02*
X143298685Y-123908557D01*
X143298685Y-123908557D02*
X143512970Y-123908557D01*
X143512970Y-123908557D02*
X143598685Y-123865700D01*
X143598685Y-123865700D02*
X143641542Y-123822842D01*
X143641542Y-123822842D02*
X143684399Y-123737128D01*
X143684399Y-123737128D02*
X143684399Y-123651414D01*
X143684399Y-123651414D02*
X143641542Y-123565700D01*
X143641542Y-123565700D02*
X143598685Y-123522842D01*
X143598685Y-123522842D02*
X143512970Y-123479985D01*
X143512970Y-123479985D02*
X143341542Y-123437128D01*
X143341542Y-123437128D02*
X143255827Y-123394271D01*
X143255827Y-123394271D02*
X143212970Y-123351414D01*
X143212970Y-123351414D02*
X143170113Y-123265700D01*
X143170113Y-123265700D02*
X143170113Y-123179985D01*
X143170113Y-123179985D02*
X143212970Y-123094271D01*
X143212970Y-123094271D02*
X143255827Y-123051414D01*
X143255827Y-123051414D02*
X143341542Y-123008557D01*
X143341542Y-123008557D02*
X143555827Y-123008557D01*
X143555827Y-123008557D02*
X143684399Y-123051414D01*
X143984399Y-123008557D02*
X144541542Y-123008557D01*
X144541542Y-123008557D02*
X144241542Y-123351414D01*
X144241542Y-123351414D02*
X144370113Y-123351414D01*
X144370113Y-123351414D02*
X144455828Y-123394271D01*
X144455828Y-123394271D02*
X144498685Y-123437128D01*
X144498685Y-123437128D02*
X144541542Y-123522842D01*
X144541542Y-123522842D02*
X144541542Y-123737128D01*
X144541542Y-123737128D02*
X144498685Y-123822842D01*
X144498685Y-123822842D02*
X144455828Y-123865700D01*
X144455828Y-123865700D02*
X144370113Y-123908557D01*
X144370113Y-123908557D02*
X144112970Y-123908557D01*
X144112970Y-123908557D02*
X144027256Y-123865700D01*
X144027256Y-123865700D02*
X143984399Y-123822842D01*
X144927256Y-123565700D02*
X145612971Y-123565700D01*
X146041542Y-123908557D02*
X146041542Y-123008557D01*
X146041542Y-123008557D02*
X146255828Y-123008557D01*
X146255828Y-123008557D02*
X146384399Y-123051414D01*
X146384399Y-123051414D02*
X146470114Y-123137128D01*
X146470114Y-123137128D02*
X146512971Y-123222842D01*
X146512971Y-123222842D02*
X146555828Y-123394271D01*
X146555828Y-123394271D02*
X146555828Y-123522842D01*
X146555828Y-123522842D02*
X146512971Y-123694271D01*
X146512971Y-123694271D02*
X146470114Y-123779985D01*
X146470114Y-123779985D02*
X146384399Y-123865700D01*
X146384399Y-123865700D02*
X146255828Y-123908557D01*
X146255828Y-123908557D02*
X146041542Y-123908557D01*
X146941542Y-123437128D02*
X147241542Y-123437128D01*
X147370114Y-123908557D02*
X146941542Y-123908557D01*
X146941542Y-123908557D02*
X146941542Y-123008557D01*
X146941542Y-123008557D02*
X147370114Y-123008557D01*
X147627257Y-123008557D02*
X147927257Y-123908557D01*
X147927257Y-123908557D02*
X148227257Y-123008557D01*
X148527257Y-123908557D02*
X148527257Y-123008557D01*
X149041543Y-123908557D02*
X148655829Y-123394271D01*
X149041543Y-123008557D02*
X148527257Y-123522842D01*
X149427257Y-123908557D02*
X149427257Y-123008557D01*
X149727257Y-123008557D02*
X150241543Y-123008557D01*
X149984400Y-123908557D02*
X149984400Y-123008557D01*
X151055828Y-123822842D02*
X151012971Y-123865700D01*
X151012971Y-123865700D02*
X150884399Y-123908557D01*
X150884399Y-123908557D02*
X150798685Y-123908557D01*
X150798685Y-123908557D02*
X150670114Y-123865700D01*
X150670114Y-123865700D02*
X150584399Y-123779985D01*
X150584399Y-123779985D02*
X150541542Y-123694271D01*
X150541542Y-123694271D02*
X150498685Y-123522842D01*
X150498685Y-123522842D02*
X150498685Y-123394271D01*
X150498685Y-123394271D02*
X150541542Y-123222842D01*
X150541542Y-123222842D02*
X150584399Y-123137128D01*
X150584399Y-123137128D02*
X150670114Y-123051414D01*
X150670114Y-123051414D02*
X150798685Y-123008557D01*
X150798685Y-123008557D02*
X150884399Y-123008557D01*
X150884399Y-123008557D02*
X151012971Y-123051414D01*
X151012971Y-123051414D02*
X151055828Y-123094271D01*
X151441542Y-123565700D02*
X152127257Y-123565700D01*
X153027257Y-123908557D02*
X152512971Y-123908557D01*
X152770114Y-123908557D02*
X152770114Y-123008557D01*
X152770114Y-123008557D02*
X152684400Y-123137128D01*
X152684400Y-123137128D02*
X152598685Y-123222842D01*
X152598685Y-123222842D02*
X152512971Y-123265700D01*
X137812969Y-125508557D02*
X137812969Y-126237128D01*
X137812969Y-126237128D02*
X137855826Y-126322842D01*
X137855826Y-126322842D02*
X137898684Y-126365700D01*
X137898684Y-126365700D02*
X137984398Y-126408557D01*
X137984398Y-126408557D02*
X138155826Y-126408557D01*
X138155826Y-126408557D02*
X138241541Y-126365700D01*
X138241541Y-126365700D02*
X138284398Y-126322842D01*
X138284398Y-126322842D02*
X138327255Y-126237128D01*
X138327255Y-126237128D02*
X138327255Y-125508557D01*
X138712969Y-126365700D02*
X138841541Y-126408557D01*
X138841541Y-126408557D02*
X139055826Y-126408557D01*
X139055826Y-126408557D02*
X139141541Y-126365700D01*
X139141541Y-126365700D02*
X139184398Y-126322842D01*
X139184398Y-126322842D02*
X139227255Y-126237128D01*
X139227255Y-126237128D02*
X139227255Y-126151414D01*
X139227255Y-126151414D02*
X139184398Y-126065700D01*
X139184398Y-126065700D02*
X139141541Y-126022842D01*
X139141541Y-126022842D02*
X139055826Y-125979985D01*
X139055826Y-125979985D02*
X138884398Y-125937128D01*
X138884398Y-125937128D02*
X138798683Y-125894271D01*
X138798683Y-125894271D02*
X138755826Y-125851414D01*
X138755826Y-125851414D02*
X138712969Y-125765700D01*
X138712969Y-125765700D02*
X138712969Y-125679985D01*
X138712969Y-125679985D02*
X138755826Y-125594271D01*
X138755826Y-125594271D02*
X138798683Y-125551414D01*
X138798683Y-125551414D02*
X138884398Y-125508557D01*
X138884398Y-125508557D02*
X139098683Y-125508557D01*
X139098683Y-125508557D02*
X139227255Y-125551414D01*
X139912969Y-125937128D02*
X140041541Y-125979985D01*
X140041541Y-125979985D02*
X140084398Y-126022842D01*
X140084398Y-126022842D02*
X140127255Y-126108557D01*
X140127255Y-126108557D02*
X140127255Y-126237128D01*
X140127255Y-126237128D02*
X140084398Y-126322842D01*
X140084398Y-126322842D02*
X140041541Y-126365700D01*
X140041541Y-126365700D02*
X139955826Y-126408557D01*
X139955826Y-126408557D02*
X139612969Y-126408557D01*
X139612969Y-126408557D02*
X139612969Y-125508557D01*
X139612969Y-125508557D02*
X139912969Y-125508557D01*
X139912969Y-125508557D02*
X139998684Y-125551414D01*
X139998684Y-125551414D02*
X140041541Y-125594271D01*
X140041541Y-125594271D02*
X140084398Y-125679985D01*
X140084398Y-125679985D02*
X140084398Y-125765700D01*
X140084398Y-125765700D02*
X140041541Y-125851414D01*
X140041541Y-125851414D02*
X139998684Y-125894271D01*
X139998684Y-125894271D02*
X139912969Y-125937128D01*
X139912969Y-125937128D02*
X139612969Y-125937128D01*
X141198683Y-126408557D02*
X141198683Y-125508557D01*
X141198683Y-125508557D02*
X141541540Y-125508557D01*
X141541540Y-125508557D02*
X141627255Y-125551414D01*
X141627255Y-125551414D02*
X141670112Y-125594271D01*
X141670112Y-125594271D02*
X141712969Y-125679985D01*
X141712969Y-125679985D02*
X141712969Y-125808557D01*
X141712969Y-125808557D02*
X141670112Y-125894271D01*
X141670112Y-125894271D02*
X141627255Y-125937128D01*
X141627255Y-125937128D02*
X141541540Y-125979985D01*
X141541540Y-125979985D02*
X141198683Y-125979985D01*
X142270112Y-125508557D02*
X142441540Y-125508557D01*
X142441540Y-125508557D02*
X142527255Y-125551414D01*
X142527255Y-125551414D02*
X142612969Y-125637128D01*
X142612969Y-125637128D02*
X142655826Y-125808557D01*
X142655826Y-125808557D02*
X142655826Y-126108557D01*
X142655826Y-126108557D02*
X142612969Y-126279985D01*
X142612969Y-126279985D02*
X142527255Y-126365700D01*
X142527255Y-126365700D02*
X142441540Y-126408557D01*
X142441540Y-126408557D02*
X142270112Y-126408557D01*
X142270112Y-126408557D02*
X142184398Y-126365700D01*
X142184398Y-126365700D02*
X142098683Y-126279985D01*
X142098683Y-126279985D02*
X142055826Y-126108557D01*
X142055826Y-126108557D02*
X142055826Y-125808557D01*
X142055826Y-125808557D02*
X142098683Y-125637128D01*
X142098683Y-125637128D02*
X142184398Y-125551414D01*
X142184398Y-125551414D02*
X142270112Y-125508557D01*
X143555826Y-126408557D02*
X143255826Y-125979985D01*
X143041540Y-126408557D02*
X143041540Y-125508557D01*
X143041540Y-125508557D02*
X143384397Y-125508557D01*
X143384397Y-125508557D02*
X143470112Y-125551414D01*
X143470112Y-125551414D02*
X143512969Y-125594271D01*
X143512969Y-125594271D02*
X143555826Y-125679985D01*
X143555826Y-125679985D02*
X143555826Y-125808557D01*
X143555826Y-125808557D02*
X143512969Y-125894271D01*
X143512969Y-125894271D02*
X143470112Y-125937128D01*
X143470112Y-125937128D02*
X143384397Y-125979985D01*
X143384397Y-125979985D02*
X143041540Y-125979985D01*
X143812969Y-125508557D02*
X144327255Y-125508557D01*
X144070112Y-126408557D02*
X144070112Y-125508557D01*
X144584397Y-126365700D02*
X144712969Y-126408557D01*
X144712969Y-126408557D02*
X144927254Y-126408557D01*
X144927254Y-126408557D02*
X145012969Y-126365700D01*
X145012969Y-126365700D02*
X145055826Y-126322842D01*
X145055826Y-126322842D02*
X145098683Y-126237128D01*
X145098683Y-126237128D02*
X145098683Y-126151414D01*
X145098683Y-126151414D02*
X145055826Y-126065700D01*
X145055826Y-126065700D02*
X145012969Y-126022842D01*
X145012969Y-126022842D02*
X144927254Y-125979985D01*
X144927254Y-125979985D02*
X144755826Y-125937128D01*
X144755826Y-125937128D02*
X144670111Y-125894271D01*
X144670111Y-125894271D02*
X144627254Y-125851414D01*
X144627254Y-125851414D02*
X144584397Y-125765700D01*
X144584397Y-125765700D02*
X144584397Y-125679985D01*
X144584397Y-125679985D02*
X144627254Y-125594271D01*
X144627254Y-125594271D02*
X144670111Y-125551414D01*
X144670111Y-125551414D02*
X144755826Y-125508557D01*
X144755826Y-125508557D02*
X144970111Y-125508557D01*
X144970111Y-125508557D02*
X145098683Y-125551414D01*
X146041540Y-125508557D02*
X146555826Y-125508557D01*
X146298683Y-126408557D02*
X146298683Y-125508557D01*
X146855825Y-126408557D02*
X146855825Y-125508557D01*
X146855825Y-125937128D02*
X147370111Y-125937128D01*
X147370111Y-126408557D02*
X147370111Y-125508557D01*
X147798682Y-126408557D02*
X147798682Y-125508557D01*
X148184396Y-126365700D02*
X148312968Y-126408557D01*
X148312968Y-126408557D02*
X148527253Y-126408557D01*
X148527253Y-126408557D02*
X148612968Y-126365700D01*
X148612968Y-126365700D02*
X148655825Y-126322842D01*
X148655825Y-126322842D02*
X148698682Y-126237128D01*
X148698682Y-126237128D02*
X148698682Y-126151414D01*
X148698682Y-126151414D02*
X148655825Y-126065700D01*
X148655825Y-126065700D02*
X148612968Y-126022842D01*
X148612968Y-126022842D02*
X148527253Y-125979985D01*
X148527253Y-125979985D02*
X148355825Y-125937128D01*
X148355825Y-125937128D02*
X148270110Y-125894271D01*
X148270110Y-125894271D02*
X148227253Y-125851414D01*
X148227253Y-125851414D02*
X148184396Y-125765700D01*
X148184396Y-125765700D02*
X148184396Y-125679985D01*
X148184396Y-125679985D02*
X148227253Y-125594271D01*
X148227253Y-125594271D02*
X148270110Y-125551414D01*
X148270110Y-125551414D02*
X148355825Y-125508557D01*
X148355825Y-125508557D02*
X148570110Y-125508557D01*
X148570110Y-125508557D02*
X148698682Y-125551414D01*
X149770110Y-125937128D02*
X150070110Y-125937128D01*
X150198682Y-126408557D02*
X149770110Y-126408557D01*
X149770110Y-126408557D02*
X149770110Y-125508557D01*
X149770110Y-125508557D02*
X150198682Y-125508557D01*
X150584396Y-126408557D02*
X150584396Y-125508557D01*
X150584396Y-125508557D02*
X151098682Y-126408557D01*
X151098682Y-126408557D02*
X151098682Y-125508557D01*
X151527253Y-126408557D02*
X151527253Y-125508557D01*
X151527253Y-125508557D02*
X151741539Y-125508557D01*
X151741539Y-125508557D02*
X151870110Y-125551414D01*
X151870110Y-125551414D02*
X151955825Y-125637128D01*
X151955825Y-125637128D02*
X151998682Y-125722842D01*
X151998682Y-125722842D02*
X152041539Y-125894271D01*
X152041539Y-125894271D02*
X152041539Y-126022842D01*
X152041539Y-126022842D02*
X151998682Y-126194271D01*
X151998682Y-126194271D02*
X151955825Y-126279985D01*
X151955825Y-126279985D02*
X151870110Y-126365700D01*
X151870110Y-126365700D02*
X151741539Y-126408557D01*
X151741539Y-126408557D02*
X151527253Y-126408557D01*
X102012969Y-84754819D02*
X101536779Y-84754819D01*
X101536779Y-84754819D02*
X101489160Y-85231009D01*
X101489160Y-85231009D02*
X101536779Y-85183390D01*
X101536779Y-85183390D02*
X101632017Y-85135771D01*
X101632017Y-85135771D02*
X101870112Y-85135771D01*
X101870112Y-85135771D02*
X101965350Y-85183390D01*
X101965350Y-85183390D02*
X102012969Y-85231009D01*
X102012969Y-85231009D02*
X102060588Y-85326247D01*
X102060588Y-85326247D02*
X102060588Y-85564342D01*
X102060588Y-85564342D02*
X102012969Y-85659580D01*
X102012969Y-85659580D02*
X101965350Y-85707200D01*
X101965350Y-85707200D02*
X101870112Y-85754819D01*
X101870112Y-85754819D02*
X101632017Y-85754819D01*
X101632017Y-85754819D02*
X101536779Y-85707200D01*
X101536779Y-85707200D02*
X101489160Y-85659580D01*
X102346303Y-84754819D02*
X102679636Y-85754819D01*
X102679636Y-85754819D02*
X103012969Y-84754819D01*
X104108208Y-85754819D02*
X104108208Y-84754819D01*
X104584398Y-85754819D02*
X104584398Y-84754819D01*
X104584398Y-84754819D02*
X105155826Y-85754819D01*
X105155826Y-85754819D02*
X105155826Y-84754819D01*
X107108208Y-85707200D02*
X107251065Y-85754819D01*
X107251065Y-85754819D02*
X107489160Y-85754819D01*
X107489160Y-85754819D02*
X107584398Y-85707200D01*
X107584398Y-85707200D02*
X107632017Y-85659580D01*
X107632017Y-85659580D02*
X107679636Y-85564342D01*
X107679636Y-85564342D02*
X107679636Y-85469104D01*
X107679636Y-85469104D02*
X107632017Y-85373866D01*
X107632017Y-85373866D02*
X107584398Y-85326247D01*
X107584398Y-85326247D02*
X107489160Y-85278628D01*
X107489160Y-85278628D02*
X107298684Y-85231009D01*
X107298684Y-85231009D02*
X107203446Y-85183390D01*
X107203446Y-85183390D02*
X107155827Y-85135771D01*
X107155827Y-85135771D02*
X107108208Y-85040533D01*
X107108208Y-85040533D02*
X107108208Y-84945295D01*
X107108208Y-84945295D02*
X107155827Y-84850057D01*
X107155827Y-84850057D02*
X107203446Y-84802438D01*
X107203446Y-84802438D02*
X107298684Y-84754819D01*
X107298684Y-84754819D02*
X107536779Y-84754819D01*
X107536779Y-84754819D02*
X107679636Y-84802438D01*
X108774874Y-85850057D02*
X108679636Y-85802438D01*
X108679636Y-85802438D02*
X108584398Y-85707200D01*
X108584398Y-85707200D02*
X108441541Y-85564342D01*
X108441541Y-85564342D02*
X108346303Y-85516723D01*
X108346303Y-85516723D02*
X108251065Y-85516723D01*
X108298684Y-85754819D02*
X108203446Y-85707200D01*
X108203446Y-85707200D02*
X108108208Y-85611961D01*
X108108208Y-85611961D02*
X108060589Y-85421485D01*
X108060589Y-85421485D02*
X108060589Y-85088152D01*
X108060589Y-85088152D02*
X108108208Y-84897676D01*
X108108208Y-84897676D02*
X108203446Y-84802438D01*
X108203446Y-84802438D02*
X108298684Y-84754819D01*
X108298684Y-84754819D02*
X108489160Y-84754819D01*
X108489160Y-84754819D02*
X108584398Y-84802438D01*
X108584398Y-84802438D02*
X108679636Y-84897676D01*
X108679636Y-84897676D02*
X108727255Y-85088152D01*
X108727255Y-85088152D02*
X108727255Y-85421485D01*
X108727255Y-85421485D02*
X108679636Y-85611961D01*
X108679636Y-85611961D02*
X108584398Y-85707200D01*
X108584398Y-85707200D02*
X108489160Y-85754819D01*
X108489160Y-85754819D02*
X108298684Y-85754819D01*
X109917732Y-85754819D02*
X109917732Y-84754819D01*
X109917732Y-84754819D02*
X110298684Y-84754819D01*
X110298684Y-84754819D02*
X110393922Y-84802438D01*
X110393922Y-84802438D02*
X110441541Y-84850057D01*
X110441541Y-84850057D02*
X110489160Y-84945295D01*
X110489160Y-84945295D02*
X110489160Y-85088152D01*
X110489160Y-85088152D02*
X110441541Y-85183390D01*
X110441541Y-85183390D02*
X110393922Y-85231009D01*
X110393922Y-85231009D02*
X110298684Y-85278628D01*
X110298684Y-85278628D02*
X109917732Y-85278628D01*
X110870113Y-85469104D02*
X111346303Y-85469104D01*
X110774875Y-85754819D02*
X111108208Y-84754819D01*
X111108208Y-84754819D02*
X111441541Y-85754819D01*
X111774875Y-85754819D02*
X111774875Y-84754819D01*
X111774875Y-84754819D02*
X112012970Y-84754819D01*
X112012970Y-84754819D02*
X112155827Y-84802438D01*
X112155827Y-84802438D02*
X112251065Y-84897676D01*
X112251065Y-84897676D02*
X112298684Y-84992914D01*
X112298684Y-84992914D02*
X112346303Y-85183390D01*
X112346303Y-85183390D02*
X112346303Y-85326247D01*
X112346303Y-85326247D02*
X112298684Y-85516723D01*
X112298684Y-85516723D02*
X112251065Y-85611961D01*
X112251065Y-85611961D02*
X112155827Y-85707200D01*
X112155827Y-85707200D02*
X112012970Y-85754819D01*
X112012970Y-85754819D02*
X111774875Y-85754819D01*
X113536780Y-85231009D02*
X114298685Y-85231009D01*
X114298685Y-85516723D02*
X113536780Y-85516723D01*
X115536780Y-85373866D02*
X116298685Y-85373866D01*
X115917732Y-85754819D02*
X115917732Y-84992914D01*
X109408207Y-54854819D02*
X109074874Y-54378628D01*
X108836779Y-54854819D02*
X108836779Y-53854819D01*
X108836779Y-53854819D02*
X109217731Y-53854819D01*
X109217731Y-53854819D02*
X109312969Y-53902438D01*
X109312969Y-53902438D02*
X109360588Y-53950057D01*
X109360588Y-53950057D02*
X109408207Y-54045295D01*
X109408207Y-54045295D02*
X109408207Y-54188152D01*
X109408207Y-54188152D02*
X109360588Y-54283390D01*
X109360588Y-54283390D02*
X109312969Y-54331009D01*
X109312969Y-54331009D02*
X109217731Y-54378628D01*
X109217731Y-54378628D02*
X108836779Y-54378628D01*
X110122493Y-53854819D02*
X110122493Y-54569104D01*
X110122493Y-54569104D02*
X110074874Y-54711961D01*
X110074874Y-54711961D02*
X109979636Y-54807200D01*
X109979636Y-54807200D02*
X109836779Y-54854819D01*
X109836779Y-54854819D02*
X109741541Y-54854819D01*
X111027255Y-54188152D02*
X111027255Y-54854819D01*
X110789160Y-53807200D02*
X110551065Y-54521485D01*
X110551065Y-54521485D02*
X111170112Y-54521485D01*
X112027255Y-53854819D02*
X111551065Y-53854819D01*
X111551065Y-53854819D02*
X111503446Y-54331009D01*
X111503446Y-54331009D02*
X111551065Y-54283390D01*
X111551065Y-54283390D02*
X111646303Y-54235771D01*
X111646303Y-54235771D02*
X111884398Y-54235771D01*
X111884398Y-54235771D02*
X111979636Y-54283390D01*
X111979636Y-54283390D02*
X112027255Y-54331009D01*
X112027255Y-54331009D02*
X112074874Y-54426247D01*
X112074874Y-54426247D02*
X112074874Y-54664342D01*
X112074874Y-54664342D02*
X112027255Y-54759580D01*
X112027255Y-54759580D02*
X111979636Y-54807200D01*
X111979636Y-54807200D02*
X111884398Y-54854819D01*
X111884398Y-54854819D02*
X111646303Y-54854819D01*
X111646303Y-54854819D02*
X111551065Y-54807200D01*
X111551065Y-54807200D02*
X111503446Y-54759580D01*
X113122494Y-53854819D02*
X113693922Y-53854819D01*
X113408208Y-54854819D02*
X113408208Y-53854819D01*
X114027256Y-54854819D02*
X114027256Y-53854819D01*
X114027256Y-54331009D02*
X114598684Y-54331009D01*
X114598684Y-54854819D02*
X114598684Y-53854819D01*
X115074875Y-54854819D02*
X115074875Y-53854819D01*
X115503446Y-54807200D02*
X115646303Y-54854819D01*
X115646303Y-54854819D02*
X115884398Y-54854819D01*
X115884398Y-54854819D02*
X115979636Y-54807200D01*
X115979636Y-54807200D02*
X116027255Y-54759580D01*
X116027255Y-54759580D02*
X116074874Y-54664342D01*
X116074874Y-54664342D02*
X116074874Y-54569104D01*
X116074874Y-54569104D02*
X116027255Y-54473866D01*
X116027255Y-54473866D02*
X115979636Y-54426247D01*
X115979636Y-54426247D02*
X115884398Y-54378628D01*
X115884398Y-54378628D02*
X115693922Y-54331009D01*
X115693922Y-54331009D02*
X115598684Y-54283390D01*
X115598684Y-54283390D02*
X115551065Y-54235771D01*
X115551065Y-54235771D02*
X115503446Y-54140533D01*
X115503446Y-54140533D02*
X115503446Y-54045295D01*
X115503446Y-54045295D02*
X115551065Y-53950057D01*
X115551065Y-53950057D02*
X115598684Y-53902438D01*
X115598684Y-53902438D02*
X115693922Y-53854819D01*
X115693922Y-53854819D02*
X115932017Y-53854819D01*
X115932017Y-53854819D02*
X116074874Y-53902438D01*
X117265351Y-54331009D02*
X117598684Y-54331009D01*
X117741541Y-54854819D02*
X117265351Y-54854819D01*
X117265351Y-54854819D02*
X117265351Y-53854819D01*
X117265351Y-53854819D02*
X117741541Y-53854819D01*
X118170113Y-54854819D02*
X118170113Y-53854819D01*
X118170113Y-53854819D02*
X118408208Y-53854819D01*
X118408208Y-53854819D02*
X118551065Y-53902438D01*
X118551065Y-53902438D02*
X118646303Y-53997676D01*
X118646303Y-53997676D02*
X118693922Y-54092914D01*
X118693922Y-54092914D02*
X118741541Y-54283390D01*
X118741541Y-54283390D02*
X118741541Y-54426247D01*
X118741541Y-54426247D02*
X118693922Y-54616723D01*
X118693922Y-54616723D02*
X118646303Y-54711961D01*
X118646303Y-54711961D02*
X118551065Y-54807200D01*
X118551065Y-54807200D02*
X118408208Y-54854819D01*
X118408208Y-54854819D02*
X118170113Y-54854819D01*
X119693922Y-53902438D02*
X119598684Y-53854819D01*
X119598684Y-53854819D02*
X119455827Y-53854819D01*
X119455827Y-53854819D02*
X119312970Y-53902438D01*
X119312970Y-53902438D02*
X119217732Y-53997676D01*
X119217732Y-53997676D02*
X119170113Y-54092914D01*
X119170113Y-54092914D02*
X119122494Y-54283390D01*
X119122494Y-54283390D02*
X119122494Y-54426247D01*
X119122494Y-54426247D02*
X119170113Y-54616723D01*
X119170113Y-54616723D02*
X119217732Y-54711961D01*
X119217732Y-54711961D02*
X119312970Y-54807200D01*
X119312970Y-54807200D02*
X119455827Y-54854819D01*
X119455827Y-54854819D02*
X119551065Y-54854819D01*
X119551065Y-54854819D02*
X119693922Y-54807200D01*
X119693922Y-54807200D02*
X119741541Y-54759580D01*
X119741541Y-54759580D02*
X119741541Y-54426247D01*
X119741541Y-54426247D02*
X119551065Y-54426247D01*
X120170113Y-54331009D02*
X120503446Y-54331009D01*
X120646303Y-54854819D02*
X120170113Y-54854819D01*
X120170113Y-54854819D02*
X120170113Y-53854819D01*
X120170113Y-53854819D02*
X120646303Y-53854819D01*
X112336779Y-89373866D02*
X113098684Y-89373866D01*
X112717731Y-89754819D02*
X112717731Y-88992914D01*
X112336779Y-94473866D02*
X113098684Y-94473866D01*
X116289160Y-140407200D02*
X116432017Y-140454819D01*
X116432017Y-140454819D02*
X116670112Y-140454819D01*
X116670112Y-140454819D02*
X116765350Y-140407200D01*
X116765350Y-140407200D02*
X116812969Y-140359580D01*
X116812969Y-140359580D02*
X116860588Y-140264342D01*
X116860588Y-140264342D02*
X116860588Y-140169104D01*
X116860588Y-140169104D02*
X116812969Y-140073866D01*
X116812969Y-140073866D02*
X116765350Y-140026247D01*
X116765350Y-140026247D02*
X116670112Y-139978628D01*
X116670112Y-139978628D02*
X116479636Y-139931009D01*
X116479636Y-139931009D02*
X116384398Y-139883390D01*
X116384398Y-139883390D02*
X116336779Y-139835771D01*
X116336779Y-139835771D02*
X116289160Y-139740533D01*
X116289160Y-139740533D02*
X116289160Y-139645295D01*
X116289160Y-139645295D02*
X116336779Y-139550057D01*
X116336779Y-139550057D02*
X116384398Y-139502438D01*
X116384398Y-139502438D02*
X116479636Y-139454819D01*
X116479636Y-139454819D02*
X116717731Y-139454819D01*
X116717731Y-139454819D02*
X116860588Y-139502438D01*
X117479636Y-139978628D02*
X117479636Y-140454819D01*
X117146303Y-139454819D02*
X117479636Y-139978628D01*
X117479636Y-139978628D02*
X117812969Y-139454819D01*
X118146303Y-140454819D02*
X118146303Y-139454819D01*
X118146303Y-139454819D02*
X118717731Y-140454819D01*
X118717731Y-140454819D02*
X118717731Y-139454819D01*
X119765350Y-140359580D02*
X119717731Y-140407200D01*
X119717731Y-140407200D02*
X119574874Y-140454819D01*
X119574874Y-140454819D02*
X119479636Y-140454819D01*
X119479636Y-140454819D02*
X119336779Y-140407200D01*
X119336779Y-140407200D02*
X119241541Y-140311961D01*
X119241541Y-140311961D02*
X119193922Y-140216723D01*
X119193922Y-140216723D02*
X119146303Y-140026247D01*
X119146303Y-140026247D02*
X119146303Y-139883390D01*
X119146303Y-139883390D02*
X119193922Y-139692914D01*
X119193922Y-139692914D02*
X119241541Y-139597676D01*
X119241541Y-139597676D02*
X119336779Y-139502438D01*
X119336779Y-139502438D02*
X119479636Y-139454819D01*
X119479636Y-139454819D02*
X119574874Y-139454819D01*
X119574874Y-139454819D02*
X119717731Y-139502438D01*
X119717731Y-139502438D02*
X119765350Y-139550057D01*
X120955827Y-140454819D02*
X120955827Y-139454819D01*
X121432017Y-140454819D02*
X121432017Y-139454819D01*
X121432017Y-139454819D02*
X122003445Y-140454819D01*
X122003445Y-140454819D02*
X122003445Y-139454819D01*
X123146303Y-139454819D02*
X123765350Y-139454819D01*
X123765350Y-139454819D02*
X123432017Y-139835771D01*
X123432017Y-139835771D02*
X123574874Y-139835771D01*
X123574874Y-139835771D02*
X123670112Y-139883390D01*
X123670112Y-139883390D02*
X123717731Y-139931009D01*
X123717731Y-139931009D02*
X123765350Y-140026247D01*
X123765350Y-140026247D02*
X123765350Y-140264342D01*
X123765350Y-140264342D02*
X123717731Y-140359580D01*
X123717731Y-140359580D02*
X123670112Y-140407200D01*
X123670112Y-140407200D02*
X123574874Y-140454819D01*
X123574874Y-140454819D02*
X123289160Y-140454819D01*
X123289160Y-140454819D02*
X123193922Y-140407200D01*
X123193922Y-140407200D02*
X123146303Y-140359580D01*
X124051065Y-139454819D02*
X124384398Y-140454819D01*
X124384398Y-140454819D02*
X124717731Y-139454819D01*
X124955827Y-139454819D02*
X125574874Y-139454819D01*
X125574874Y-139454819D02*
X125241541Y-139835771D01*
X125241541Y-139835771D02*
X125384398Y-139835771D01*
X125384398Y-139835771D02*
X125479636Y-139883390D01*
X125479636Y-139883390D02*
X125527255Y-139931009D01*
X125527255Y-139931009D02*
X125574874Y-140026247D01*
X125574874Y-140026247D02*
X125574874Y-140264342D01*
X125574874Y-140264342D02*
X125527255Y-140359580D01*
X125527255Y-140359580D02*
X125479636Y-140407200D01*
X125479636Y-140407200D02*
X125384398Y-140454819D01*
X125384398Y-140454819D02*
X125098684Y-140454819D01*
X125098684Y-140454819D02*
X125003446Y-140407200D01*
X125003446Y-140407200D02*
X124955827Y-140359580D01*
D11*
X103817292Y-124916171D02*
X103988720Y-124973314D01*
X103988720Y-124973314D02*
X104045863Y-125030457D01*
X104045863Y-125030457D02*
X104103006Y-125144742D01*
X104103006Y-125144742D02*
X104103006Y-125316171D01*
X104103006Y-125316171D02*
X104045863Y-125430457D01*
X104045863Y-125430457D02*
X103988720Y-125487600D01*
X103988720Y-125487600D02*
X103874435Y-125544742D01*
X103874435Y-125544742D02*
X103417292Y-125544742D01*
X103417292Y-125544742D02*
X103417292Y-124344742D01*
X103417292Y-124344742D02*
X103817292Y-124344742D01*
X103817292Y-124344742D02*
X103931578Y-124401885D01*
X103931578Y-124401885D02*
X103988720Y-124459028D01*
X103988720Y-124459028D02*
X104045863Y-124573314D01*
X104045863Y-124573314D02*
X104045863Y-124687600D01*
X104045863Y-124687600D02*
X103988720Y-124801885D01*
X103988720Y-124801885D02*
X103931578Y-124859028D01*
X103931578Y-124859028D02*
X103817292Y-124916171D01*
X103817292Y-124916171D02*
X103417292Y-124916171D01*
X104560149Y-125201885D02*
X105131578Y-125201885D01*
X104445863Y-125544742D02*
X104845863Y-124344742D01*
X104845863Y-124344742D02*
X105245863Y-125544742D01*
X105874434Y-124973314D02*
X105874434Y-125544742D01*
X105474434Y-124344742D02*
X105874434Y-124973314D01*
X105874434Y-124973314D02*
X106274434Y-124344742D01*
X107074434Y-124916171D02*
X107245862Y-124973314D01*
X107245862Y-124973314D02*
X107303005Y-125030457D01*
X107303005Y-125030457D02*
X107360148Y-125144742D01*
X107360148Y-125144742D02*
X107360148Y-125316171D01*
X107360148Y-125316171D02*
X107303005Y-125430457D01*
X107303005Y-125430457D02*
X107245862Y-125487600D01*
X107245862Y-125487600D02*
X107131577Y-125544742D01*
X107131577Y-125544742D02*
X106674434Y-125544742D01*
X106674434Y-125544742D02*
X106674434Y-124344742D01*
X106674434Y-124344742D02*
X107074434Y-124344742D01*
X107074434Y-124344742D02*
X107188720Y-124401885D01*
X107188720Y-124401885D02*
X107245862Y-124459028D01*
X107245862Y-124459028D02*
X107303005Y-124573314D01*
X107303005Y-124573314D02*
X107303005Y-124687600D01*
X107303005Y-124687600D02*
X107245862Y-124801885D01*
X107245862Y-124801885D02*
X107188720Y-124859028D01*
X107188720Y-124859028D02*
X107074434Y-124916171D01*
X107074434Y-124916171D02*
X106674434Y-124916171D01*
X107817291Y-125201885D02*
X108388720Y-125201885D01*
X107703005Y-125544742D02*
X108103005Y-124344742D01*
X108103005Y-124344742D02*
X108503005Y-125544742D01*
X108845862Y-125487600D02*
X109017291Y-125544742D01*
X109017291Y-125544742D02*
X109303005Y-125544742D01*
X109303005Y-125544742D02*
X109417291Y-125487600D01*
X109417291Y-125487600D02*
X109474433Y-125430457D01*
X109474433Y-125430457D02*
X109531576Y-125316171D01*
X109531576Y-125316171D02*
X109531576Y-125201885D01*
X109531576Y-125201885D02*
X109474433Y-125087600D01*
X109474433Y-125087600D02*
X109417291Y-125030457D01*
X109417291Y-125030457D02*
X109303005Y-124973314D01*
X109303005Y-124973314D02*
X109074433Y-124916171D01*
X109074433Y-124916171D02*
X108960148Y-124859028D01*
X108960148Y-124859028D02*
X108903005Y-124801885D01*
X108903005Y-124801885D02*
X108845862Y-124687600D01*
X108845862Y-124687600D02*
X108845862Y-124573314D01*
X108845862Y-124573314D02*
X108903005Y-124459028D01*
X108903005Y-124459028D02*
X108960148Y-124401885D01*
X108960148Y-124401885D02*
X109074433Y-124344742D01*
X109074433Y-124344742D02*
X109360148Y-124344742D01*
X109360148Y-124344742D02*
X109531576Y-124401885D01*
X110045862Y-125544742D02*
X110045862Y-124344742D01*
X112217291Y-125430457D02*
X112160148Y-125487600D01*
X112160148Y-125487600D02*
X111988720Y-125544742D01*
X111988720Y-125544742D02*
X111874434Y-125544742D01*
X111874434Y-125544742D02*
X111703005Y-125487600D01*
X111703005Y-125487600D02*
X111588720Y-125373314D01*
X111588720Y-125373314D02*
X111531577Y-125259028D01*
X111531577Y-125259028D02*
X111474434Y-125030457D01*
X111474434Y-125030457D02*
X111474434Y-124859028D01*
X111474434Y-124859028D02*
X111531577Y-124630457D01*
X111531577Y-124630457D02*
X111588720Y-124516171D01*
X111588720Y-124516171D02*
X111703005Y-124401885D01*
X111703005Y-124401885D02*
X111874434Y-124344742D01*
X111874434Y-124344742D02*
X111988720Y-124344742D01*
X111988720Y-124344742D02*
X112160148Y-124401885D01*
X112160148Y-124401885D02*
X112217291Y-124459028D01*
X112960148Y-124344742D02*
X113188720Y-124344742D01*
X113188720Y-124344742D02*
X113303005Y-124401885D01*
X113303005Y-124401885D02*
X113417291Y-124516171D01*
X113417291Y-124516171D02*
X113474434Y-124744742D01*
X113474434Y-124744742D02*
X113474434Y-125144742D01*
X113474434Y-125144742D02*
X113417291Y-125373314D01*
X113417291Y-125373314D02*
X113303005Y-125487600D01*
X113303005Y-125487600D02*
X113188720Y-125544742D01*
X113188720Y-125544742D02*
X112960148Y-125544742D01*
X112960148Y-125544742D02*
X112845863Y-125487600D01*
X112845863Y-125487600D02*
X112731577Y-125373314D01*
X112731577Y-125373314D02*
X112674434Y-125144742D01*
X112674434Y-125144742D02*
X112674434Y-124744742D01*
X112674434Y-124744742D02*
X112731577Y-124516171D01*
X112731577Y-124516171D02*
X112845863Y-124401885D01*
X112845863Y-124401885D02*
X112960148Y-124344742D01*
X114560148Y-125544742D02*
X113988720Y-125544742D01*
X113988720Y-125544742D02*
X113988720Y-124344742D01*
X114960149Y-124344742D02*
X114960149Y-125316171D01*
X114960149Y-125316171D02*
X115017292Y-125430457D01*
X115017292Y-125430457D02*
X115074435Y-125487600D01*
X115074435Y-125487600D02*
X115188720Y-125544742D01*
X115188720Y-125544742D02*
X115417292Y-125544742D01*
X115417292Y-125544742D02*
X115531577Y-125487600D01*
X115531577Y-125487600D02*
X115588720Y-125430457D01*
X115588720Y-125430457D02*
X115645863Y-125316171D01*
X115645863Y-125316171D02*
X115645863Y-124344742D01*
X116217292Y-125544742D02*
X116217292Y-124344742D01*
X116217292Y-124344742D02*
X116617292Y-125201885D01*
X116617292Y-125201885D02*
X117017292Y-124344742D01*
X117017292Y-124344742D02*
X117017292Y-125544742D01*
X117588721Y-125544742D02*
X117588721Y-124344742D01*
X117588721Y-124344742D02*
X118274435Y-125544742D01*
X118274435Y-125544742D02*
X118274435Y-124344742D01*
X120445864Y-125430457D02*
X120388721Y-125487600D01*
X120388721Y-125487600D02*
X120217293Y-125544742D01*
X120217293Y-125544742D02*
X120103007Y-125544742D01*
X120103007Y-125544742D02*
X119931578Y-125487600D01*
X119931578Y-125487600D02*
X119817293Y-125373314D01*
X119817293Y-125373314D02*
X119760150Y-125259028D01*
X119760150Y-125259028D02*
X119703007Y-125030457D01*
X119703007Y-125030457D02*
X119703007Y-124859028D01*
X119703007Y-124859028D02*
X119760150Y-124630457D01*
X119760150Y-124630457D02*
X119817293Y-124516171D01*
X119817293Y-124516171D02*
X119931578Y-124401885D01*
X119931578Y-124401885D02*
X120103007Y-124344742D01*
X120103007Y-124344742D02*
X120217293Y-124344742D01*
X120217293Y-124344742D02*
X120388721Y-124401885D01*
X120388721Y-124401885D02*
X120445864Y-124459028D01*
X120788721Y-124344742D02*
X121474436Y-124344742D01*
X121131578Y-125544742D02*
X121131578Y-124344742D01*
X122560150Y-125544742D02*
X122160150Y-124973314D01*
X121874436Y-125544742D02*
X121874436Y-124344742D01*
X121874436Y-124344742D02*
X122331579Y-124344742D01*
X122331579Y-124344742D02*
X122445864Y-124401885D01*
X122445864Y-124401885D02*
X122503007Y-124459028D01*
X122503007Y-124459028D02*
X122560150Y-124573314D01*
X122560150Y-124573314D02*
X122560150Y-124744742D01*
X122560150Y-124744742D02*
X122503007Y-124859028D01*
X122503007Y-124859028D02*
X122445864Y-124916171D01*
X122445864Y-124916171D02*
X122331579Y-124973314D01*
X122331579Y-124973314D02*
X121874436Y-124973314D01*
X123645864Y-125544742D02*
X123074436Y-125544742D01*
X123074436Y-125544742D02*
X123074436Y-124344742D01*
X124960151Y-125544742D02*
X124960151Y-124744742D01*
X124960151Y-124973314D02*
X125017294Y-124859028D01*
X125017294Y-124859028D02*
X125074437Y-124801885D01*
X125074437Y-124801885D02*
X125188722Y-124744742D01*
X125188722Y-124744742D02*
X125303008Y-124744742D01*
X126160151Y-125487600D02*
X126045865Y-125544742D01*
X126045865Y-125544742D02*
X125817294Y-125544742D01*
X125817294Y-125544742D02*
X125703008Y-125487600D01*
X125703008Y-125487600D02*
X125645865Y-125373314D01*
X125645865Y-125373314D02*
X125645865Y-124916171D01*
X125645865Y-124916171D02*
X125703008Y-124801885D01*
X125703008Y-124801885D02*
X125817294Y-124744742D01*
X125817294Y-124744742D02*
X126045865Y-124744742D01*
X126045865Y-124744742D02*
X126160151Y-124801885D01*
X126160151Y-124801885D02*
X126217294Y-124916171D01*
X126217294Y-124916171D02*
X126217294Y-125030457D01*
X126217294Y-125030457D02*
X125645865Y-125144742D01*
X126617293Y-124744742D02*
X126903007Y-125544742D01*
X126903007Y-125544742D02*
X127188722Y-124744742D01*
X127588722Y-125201885D02*
X128160151Y-125201885D01*
X127474436Y-125544742D02*
X127874436Y-124344742D01*
X127874436Y-124344742D02*
X128274436Y-125544742D01*
D12*
X148866666Y-59904819D02*
X148866666Y-60619104D01*
X148866666Y-60619104D02*
X148819047Y-60761961D01*
X148819047Y-60761961D02*
X148723809Y-60857200D01*
X148723809Y-60857200D02*
X148580952Y-60904819D01*
X148580952Y-60904819D02*
X148485714Y-60904819D01*
X149295238Y-60000057D02*
X149342857Y-59952438D01*
X149342857Y-59952438D02*
X149438095Y-59904819D01*
X149438095Y-59904819D02*
X149676190Y-59904819D01*
X149676190Y-59904819D02*
X149771428Y-59952438D01*
X149771428Y-59952438D02*
X149819047Y-60000057D01*
X149819047Y-60000057D02*
X149866666Y-60095295D01*
X149866666Y-60095295D02*
X149866666Y-60190533D01*
X149866666Y-60190533D02*
X149819047Y-60333390D01*
X149819047Y-60333390D02*
X149247619Y-60904819D01*
X149247619Y-60904819D02*
X149866666Y-60904819D01*
X124280476Y-63074819D02*
X124280476Y-62074819D01*
X124280476Y-62074819D02*
X124613809Y-62789104D01*
X124613809Y-62789104D02*
X124947142Y-62074819D01*
X124947142Y-62074819D02*
X124947142Y-63074819D01*
X125375714Y-62170057D02*
X125423333Y-62122438D01*
X125423333Y-62122438D02*
X125518571Y-62074819D01*
X125518571Y-62074819D02*
X125756666Y-62074819D01*
X125756666Y-62074819D02*
X125851904Y-62122438D01*
X125851904Y-62122438D02*
X125899523Y-62170057D01*
X125899523Y-62170057D02*
X125947142Y-62265295D01*
X125947142Y-62265295D02*
X125947142Y-62360533D01*
X125947142Y-62360533D02*
X125899523Y-62503390D01*
X125899523Y-62503390D02*
X125328095Y-63074819D01*
X125328095Y-63074819D02*
X125947142Y-63074819D01*
X118138095Y-84594819D02*
X118138095Y-85404342D01*
X118138095Y-85404342D02*
X118185714Y-85499580D01*
X118185714Y-85499580D02*
X118233333Y-85547200D01*
X118233333Y-85547200D02*
X118328571Y-85594819D01*
X118328571Y-85594819D02*
X118519047Y-85594819D01*
X118519047Y-85594819D02*
X118614285Y-85547200D01*
X118614285Y-85547200D02*
X118661904Y-85499580D01*
X118661904Y-85499580D02*
X118709523Y-85404342D01*
X118709523Y-85404342D02*
X118709523Y-84594819D01*
X119090476Y-84594819D02*
X119709523Y-84594819D01*
X119709523Y-84594819D02*
X119376190Y-84975771D01*
X119376190Y-84975771D02*
X119519047Y-84975771D01*
X119519047Y-84975771D02*
X119614285Y-85023390D01*
X119614285Y-85023390D02*
X119661904Y-85071009D01*
X119661904Y-85071009D02*
X119709523Y-85166247D01*
X119709523Y-85166247D02*
X119709523Y-85404342D01*
X119709523Y-85404342D02*
X119661904Y-85499580D01*
X119661904Y-85499580D02*
X119614285Y-85547200D01*
X119614285Y-85547200D02*
X119519047Y-85594819D01*
X119519047Y-85594819D02*
X119233333Y-85594819D01*
X119233333Y-85594819D02*
X119138095Y-85547200D01*
X119138095Y-85547200D02*
X119090476Y-85499580D01*
X139666666Y-59904819D02*
X139666666Y-60619104D01*
X139666666Y-60619104D02*
X139619047Y-60761961D01*
X139619047Y-60761961D02*
X139523809Y-60857200D01*
X139523809Y-60857200D02*
X139380952Y-60904819D01*
X139380952Y-60904819D02*
X139285714Y-60904819D01*
X140666666Y-60904819D02*
X140095238Y-60904819D01*
X140380952Y-60904819D02*
X140380952Y-59904819D01*
X140380952Y-59904819D02*
X140285714Y-60047676D01*
X140285714Y-60047676D02*
X140190476Y-60142914D01*
X140190476Y-60142914D02*
X140095238Y-60190533D01*
X105520476Y-97194819D02*
X105520476Y-97909104D01*
X105520476Y-97909104D02*
X105472857Y-98051961D01*
X105472857Y-98051961D02*
X105377619Y-98147200D01*
X105377619Y-98147200D02*
X105234762Y-98194819D01*
X105234762Y-98194819D02*
X105139524Y-98194819D01*
X106520476Y-98194819D02*
X105949048Y-98194819D01*
X106234762Y-98194819D02*
X106234762Y-97194819D01*
X106234762Y-97194819D02*
X106139524Y-97337676D01*
X106139524Y-97337676D02*
X106044286Y-97432914D01*
X106044286Y-97432914D02*
X105949048Y-97480533D01*
X106853810Y-97194819D02*
X107472857Y-97194819D01*
X107472857Y-97194819D02*
X107139524Y-97575771D01*
X107139524Y-97575771D02*
X107282381Y-97575771D01*
X107282381Y-97575771D02*
X107377619Y-97623390D01*
X107377619Y-97623390D02*
X107425238Y-97671009D01*
X107425238Y-97671009D02*
X107472857Y-97766247D01*
X107472857Y-97766247D02*
X107472857Y-98004342D01*
X107472857Y-98004342D02*
X107425238Y-98099580D01*
X107425238Y-98099580D02*
X107377619Y-98147200D01*
X107377619Y-98147200D02*
X107282381Y-98194819D01*
X107282381Y-98194819D02*
X106996667Y-98194819D01*
X106996667Y-98194819D02*
X106901429Y-98147200D01*
X106901429Y-98147200D02*
X106853810Y-98099580D01*
X108380057Y-100465238D02*
X108332438Y-100560476D01*
X108332438Y-100560476D02*
X108237200Y-100655714D01*
X108237200Y-100655714D02*
X108094342Y-100798571D01*
X108094342Y-100798571D02*
X108046723Y-100893809D01*
X108046723Y-100893809D02*
X108046723Y-100989047D01*
X108284819Y-100941428D02*
X108237200Y-101036666D01*
X108237200Y-101036666D02*
X108141961Y-101131904D01*
X108141961Y-101131904D02*
X107951485Y-101179523D01*
X107951485Y-101179523D02*
X107618152Y-101179523D01*
X107618152Y-101179523D02*
X107427676Y-101131904D01*
X107427676Y-101131904D02*
X107332438Y-101036666D01*
X107332438Y-101036666D02*
X107284819Y-100941428D01*
X107284819Y-100941428D02*
X107284819Y-100750952D01*
X107284819Y-100750952D02*
X107332438Y-100655714D01*
X107332438Y-100655714D02*
X107427676Y-100560476D01*
X107427676Y-100560476D02*
X107618152Y-100512857D01*
X107618152Y-100512857D02*
X107951485Y-100512857D01*
X107951485Y-100512857D02*
X108141961Y-100560476D01*
X108141961Y-100560476D02*
X108237200Y-100655714D01*
X108237200Y-100655714D02*
X108284819Y-100750952D01*
X108284819Y-100750952D02*
X108284819Y-100941428D01*
X108284819Y-99560476D02*
X108284819Y-100131904D01*
X108284819Y-99846190D02*
X107284819Y-99846190D01*
X107284819Y-99846190D02*
X107427676Y-99941428D01*
X107427676Y-99941428D02*
X107522914Y-100036666D01*
X107522914Y-100036666D02*
X107570533Y-100131904D01*
X103960476Y-63074819D02*
X103960476Y-62074819D01*
X103960476Y-62074819D02*
X104293809Y-62789104D01*
X104293809Y-62789104D02*
X104627142Y-62074819D01*
X104627142Y-62074819D02*
X104627142Y-63074819D01*
X105627142Y-63074819D02*
X105055714Y-63074819D01*
X105341428Y-63074819D02*
X105341428Y-62074819D01*
X105341428Y-62074819D02*
X105246190Y-62217676D01*
X105246190Y-62217676D02*
X105150952Y-62312914D01*
X105150952Y-62312914D02*
X105055714Y-62360533D01*
X158066666Y-133834819D02*
X158066666Y-134549104D01*
X158066666Y-134549104D02*
X158019047Y-134691961D01*
X158019047Y-134691961D02*
X157923809Y-134787200D01*
X157923809Y-134787200D02*
X157780952Y-134834819D01*
X157780952Y-134834819D02*
X157685714Y-134834819D01*
X158590476Y-134834819D02*
X158780952Y-134834819D01*
X158780952Y-134834819D02*
X158876190Y-134787200D01*
X158876190Y-134787200D02*
X158923809Y-134739580D01*
X158923809Y-134739580D02*
X159019047Y-134596723D01*
X159019047Y-134596723D02*
X159066666Y-134406247D01*
X159066666Y-134406247D02*
X159066666Y-134025295D01*
X159066666Y-134025295D02*
X159019047Y-133930057D01*
X159019047Y-133930057D02*
X158971428Y-133882438D01*
X158971428Y-133882438D02*
X158876190Y-133834819D01*
X158876190Y-133834819D02*
X158685714Y-133834819D01*
X158685714Y-133834819D02*
X158590476Y-133882438D01*
X158590476Y-133882438D02*
X158542857Y-133930057D01*
X158542857Y-133930057D02*
X158495238Y-134025295D01*
X158495238Y-134025295D02*
X158495238Y-134263390D01*
X158495238Y-134263390D02*
X158542857Y-134358628D01*
X158542857Y-134358628D02*
X158590476Y-134406247D01*
X158590476Y-134406247D02*
X158685714Y-134453866D01*
X158685714Y-134453866D02*
X158876190Y-134453866D01*
X158876190Y-134453866D02*
X158971428Y-134406247D01*
X158971428Y-134406247D02*
X159019047Y-134358628D01*
X159019047Y-134358628D02*
X159066666Y-134263390D01*
X166790476Y-133834819D02*
X166790476Y-134549104D01*
X166790476Y-134549104D02*
X166742857Y-134691961D01*
X166742857Y-134691961D02*
X166647619Y-134787200D01*
X166647619Y-134787200D02*
X166504762Y-134834819D01*
X166504762Y-134834819D02*
X166409524Y-134834819D01*
X167790476Y-134834819D02*
X167219048Y-134834819D01*
X167504762Y-134834819D02*
X167504762Y-133834819D01*
X167504762Y-133834819D02*
X167409524Y-133977676D01*
X167409524Y-133977676D02*
X167314286Y-134072914D01*
X167314286Y-134072914D02*
X167219048Y-134120533D01*
X168409524Y-133834819D02*
X168504762Y-133834819D01*
X168504762Y-133834819D02*
X168600000Y-133882438D01*
X168600000Y-133882438D02*
X168647619Y-133930057D01*
X168647619Y-133930057D02*
X168695238Y-134025295D01*
X168695238Y-134025295D02*
X168742857Y-134215771D01*
X168742857Y-134215771D02*
X168742857Y-134453866D01*
X168742857Y-134453866D02*
X168695238Y-134644342D01*
X168695238Y-134644342D02*
X168647619Y-134739580D01*
X168647619Y-134739580D02*
X168600000Y-134787200D01*
X168600000Y-134787200D02*
X168504762Y-134834819D01*
X168504762Y-134834819D02*
X168409524Y-134834819D01*
X168409524Y-134834819D02*
X168314286Y-134787200D01*
X168314286Y-134787200D02*
X168266667Y-134739580D01*
X168266667Y-134739580D02*
X168219048Y-134644342D01*
X168219048Y-134644342D02*
X168171429Y-134453866D01*
X168171429Y-134453866D02*
X168171429Y-134215771D01*
X168171429Y-134215771D02*
X168219048Y-134025295D01*
X168219048Y-134025295D02*
X168266667Y-133930057D01*
X168266667Y-133930057D02*
X168314286Y-133882438D01*
X168314286Y-133882438D02*
X168409524Y-133834819D01*
X176466666Y-59904819D02*
X176466666Y-60619104D01*
X176466666Y-60619104D02*
X176419047Y-60761961D01*
X176419047Y-60761961D02*
X176323809Y-60857200D01*
X176323809Y-60857200D02*
X176180952Y-60904819D01*
X176180952Y-60904819D02*
X176085714Y-60904819D01*
X177419047Y-59904819D02*
X176942857Y-59904819D01*
X176942857Y-59904819D02*
X176895238Y-60381009D01*
X176895238Y-60381009D02*
X176942857Y-60333390D01*
X176942857Y-60333390D02*
X177038095Y-60285771D01*
X177038095Y-60285771D02*
X177276190Y-60285771D01*
X177276190Y-60285771D02*
X177371428Y-60333390D01*
X177371428Y-60333390D02*
X177419047Y-60381009D01*
X177419047Y-60381009D02*
X177466666Y-60476247D01*
X177466666Y-60476247D02*
X177466666Y-60714342D01*
X177466666Y-60714342D02*
X177419047Y-60809580D01*
X177419047Y-60809580D02*
X177371428Y-60857200D01*
X177371428Y-60857200D02*
X177276190Y-60904819D01*
X177276190Y-60904819D02*
X177038095Y-60904819D01*
X177038095Y-60904819D02*
X176942857Y-60857200D01*
X176942857Y-60857200D02*
X176895238Y-60809580D01*
X185666666Y-59904819D02*
X185666666Y-60619104D01*
X185666666Y-60619104D02*
X185619047Y-60761961D01*
X185619047Y-60761961D02*
X185523809Y-60857200D01*
X185523809Y-60857200D02*
X185380952Y-60904819D01*
X185380952Y-60904819D02*
X185285714Y-60904819D01*
X186571428Y-59904819D02*
X186380952Y-59904819D01*
X186380952Y-59904819D02*
X186285714Y-59952438D01*
X186285714Y-59952438D02*
X186238095Y-60000057D01*
X186238095Y-60000057D02*
X186142857Y-60142914D01*
X186142857Y-60142914D02*
X186095238Y-60333390D01*
X186095238Y-60333390D02*
X186095238Y-60714342D01*
X186095238Y-60714342D02*
X186142857Y-60809580D01*
X186142857Y-60809580D02*
X186190476Y-60857200D01*
X186190476Y-60857200D02*
X186285714Y-60904819D01*
X186285714Y-60904819D02*
X186476190Y-60904819D01*
X186476190Y-60904819D02*
X186571428Y-60857200D01*
X186571428Y-60857200D02*
X186619047Y-60809580D01*
X186619047Y-60809580D02*
X186666666Y-60714342D01*
X186666666Y-60714342D02*
X186666666Y-60476247D01*
X186666666Y-60476247D02*
X186619047Y-60381009D01*
X186619047Y-60381009D02*
X186571428Y-60333390D01*
X186571428Y-60333390D02*
X186476190Y-60285771D01*
X186476190Y-60285771D02*
X186285714Y-60285771D01*
X186285714Y-60285771D02*
X186190476Y-60333390D01*
X186190476Y-60333390D02*
X186142857Y-60381009D01*
X186142857Y-60381009D02*
X186095238Y-60476247D01*
X175990476Y-133834819D02*
X175990476Y-134549104D01*
X175990476Y-134549104D02*
X175942857Y-134691961D01*
X175942857Y-134691961D02*
X175847619Y-134787200D01*
X175847619Y-134787200D02*
X175704762Y-134834819D01*
X175704762Y-134834819D02*
X175609524Y-134834819D01*
X176990476Y-134834819D02*
X176419048Y-134834819D01*
X176704762Y-134834819D02*
X176704762Y-133834819D01*
X176704762Y-133834819D02*
X176609524Y-133977676D01*
X176609524Y-133977676D02*
X176514286Y-134072914D01*
X176514286Y-134072914D02*
X176419048Y-134120533D01*
X177942857Y-134834819D02*
X177371429Y-134834819D01*
X177657143Y-134834819D02*
X177657143Y-133834819D01*
X177657143Y-133834819D02*
X177561905Y-133977676D01*
X177561905Y-133977676D02*
X177466667Y-134072914D01*
X177466667Y-134072914D02*
X177371429Y-134120533D01*
X106333333Y-102674819D02*
X105857143Y-102674819D01*
X105857143Y-102674819D02*
X105857143Y-101674819D01*
X107190476Y-102674819D02*
X106619048Y-102674819D01*
X106904762Y-102674819D02*
X106904762Y-101674819D01*
X106904762Y-101674819D02*
X106809524Y-101817676D01*
X106809524Y-101817676D02*
X106714286Y-101912914D01*
X106714286Y-101912914D02*
X106619048Y-101960533D01*
X148866666Y-133834819D02*
X148866666Y-134549104D01*
X148866666Y-134549104D02*
X148819047Y-134691961D01*
X148819047Y-134691961D02*
X148723809Y-134787200D01*
X148723809Y-134787200D02*
X148580952Y-134834819D01*
X148580952Y-134834819D02*
X148485714Y-134834819D01*
X149485714Y-134263390D02*
X149390476Y-134215771D01*
X149390476Y-134215771D02*
X149342857Y-134168152D01*
X149342857Y-134168152D02*
X149295238Y-134072914D01*
X149295238Y-134072914D02*
X149295238Y-134025295D01*
X149295238Y-134025295D02*
X149342857Y-133930057D01*
X149342857Y-133930057D02*
X149390476Y-133882438D01*
X149390476Y-133882438D02*
X149485714Y-133834819D01*
X149485714Y-133834819D02*
X149676190Y-133834819D01*
X149676190Y-133834819D02*
X149771428Y-133882438D01*
X149771428Y-133882438D02*
X149819047Y-133930057D01*
X149819047Y-133930057D02*
X149866666Y-134025295D01*
X149866666Y-134025295D02*
X149866666Y-134072914D01*
X149866666Y-134072914D02*
X149819047Y-134168152D01*
X149819047Y-134168152D02*
X149771428Y-134215771D01*
X149771428Y-134215771D02*
X149676190Y-134263390D01*
X149676190Y-134263390D02*
X149485714Y-134263390D01*
X149485714Y-134263390D02*
X149390476Y-134311009D01*
X149390476Y-134311009D02*
X149342857Y-134358628D01*
X149342857Y-134358628D02*
X149295238Y-134453866D01*
X149295238Y-134453866D02*
X149295238Y-134644342D01*
X149295238Y-134644342D02*
X149342857Y-134739580D01*
X149342857Y-134739580D02*
X149390476Y-134787200D01*
X149390476Y-134787200D02*
X149485714Y-134834819D01*
X149485714Y-134834819D02*
X149676190Y-134834819D01*
X149676190Y-134834819D02*
X149771428Y-134787200D01*
X149771428Y-134787200D02*
X149819047Y-134739580D01*
X149819047Y-134739580D02*
X149866666Y-134644342D01*
X149866666Y-134644342D02*
X149866666Y-134453866D01*
X149866666Y-134453866D02*
X149819047Y-134358628D01*
X149819047Y-134358628D02*
X149771428Y-134311009D01*
X149771428Y-134311009D02*
X149676190Y-134263390D01*
X167266666Y-59904819D02*
X167266666Y-60619104D01*
X167266666Y-60619104D02*
X167219047Y-60761961D01*
X167219047Y-60761961D02*
X167123809Y-60857200D01*
X167123809Y-60857200D02*
X166980952Y-60904819D01*
X166980952Y-60904819D02*
X166885714Y-60904819D01*
X168171428Y-60238152D02*
X168171428Y-60904819D01*
X167933333Y-59857200D02*
X167695238Y-60571485D01*
X167695238Y-60571485D02*
X168314285Y-60571485D01*
X158066666Y-59904819D02*
X158066666Y-60619104D01*
X158066666Y-60619104D02*
X158019047Y-60761961D01*
X158019047Y-60761961D02*
X157923809Y-60857200D01*
X157923809Y-60857200D02*
X157780952Y-60904819D01*
X157780952Y-60904819D02*
X157685714Y-60904819D01*
X158447619Y-59904819D02*
X159066666Y-59904819D01*
X159066666Y-59904819D02*
X158733333Y-60285771D01*
X158733333Y-60285771D02*
X158876190Y-60285771D01*
X158876190Y-60285771D02*
X158971428Y-60333390D01*
X158971428Y-60333390D02*
X159019047Y-60381009D01*
X159019047Y-60381009D02*
X159066666Y-60476247D01*
X159066666Y-60476247D02*
X159066666Y-60714342D01*
X159066666Y-60714342D02*
X159019047Y-60809580D01*
X159019047Y-60809580D02*
X158971428Y-60857200D01*
X158971428Y-60857200D02*
X158876190Y-60904819D01*
X158876190Y-60904819D02*
X158590476Y-60904819D01*
X158590476Y-60904819D02*
X158495238Y-60857200D01*
X158495238Y-60857200D02*
X158447619Y-60809580D01*
X162199104Y-94884285D02*
X162199104Y-94408095D01*
X162484819Y-94979523D02*
X161484819Y-94646190D01*
X161484819Y-94646190D02*
X162484819Y-94312857D01*
X162484819Y-93455714D02*
X162484819Y-94027142D01*
X162484819Y-93741428D02*
X161484819Y-93741428D01*
X161484819Y-93741428D02*
X161627676Y-93836666D01*
X161627676Y-93836666D02*
X161722914Y-93931904D01*
X161722914Y-93931904D02*
X161770533Y-94027142D01*
X162484819Y-92455714D02*
X162008628Y-92789047D01*
X162484819Y-93027142D02*
X161484819Y-93027142D01*
X161484819Y-93027142D02*
X161484819Y-92646190D01*
X161484819Y-92646190D02*
X161532438Y-92550952D01*
X161532438Y-92550952D02*
X161580057Y-92503333D01*
X161580057Y-92503333D02*
X161675295Y-92455714D01*
X161675295Y-92455714D02*
X161818152Y-92455714D01*
X161818152Y-92455714D02*
X161913390Y-92503333D01*
X161913390Y-92503333D02*
X161961009Y-92550952D01*
X161961009Y-92550952D02*
X162008628Y-92646190D01*
X162008628Y-92646190D02*
X162008628Y-93027142D01*
X167114819Y-78711904D02*
X167924342Y-78711904D01*
X167924342Y-78711904D02*
X168019580Y-78664285D01*
X168019580Y-78664285D02*
X168067200Y-78616666D01*
X168067200Y-78616666D02*
X168114819Y-78521428D01*
X168114819Y-78521428D02*
X168114819Y-78330952D01*
X168114819Y-78330952D02*
X168067200Y-78235714D01*
X168067200Y-78235714D02*
X168019580Y-78188095D01*
X168019580Y-78188095D02*
X167924342Y-78140476D01*
X167924342Y-78140476D02*
X167114819Y-78140476D01*
X168114819Y-77140476D02*
X168114819Y-77711904D01*
X168114819Y-77426190D02*
X167114819Y-77426190D01*
X167114819Y-77426190D02*
X167257676Y-77521428D01*
X167257676Y-77521428D02*
X167352914Y-77616666D01*
X167352914Y-77616666D02*
X167400533Y-77711904D01*
X132139104Y-94789047D02*
X132139104Y-94312857D01*
X132424819Y-94884285D02*
X131424819Y-94550952D01*
X131424819Y-94550952D02*
X132424819Y-94217619D01*
X132424819Y-93360476D02*
X132424819Y-93931904D01*
X132424819Y-93646190D02*
X131424819Y-93646190D01*
X131424819Y-93646190D02*
X131567676Y-93741428D01*
X131567676Y-93741428D02*
X131662914Y-93836666D01*
X131662914Y-93836666D02*
X131710533Y-93931904D01*
X132424819Y-92455714D02*
X132424819Y-92931904D01*
X132424819Y-92931904D02*
X131424819Y-92931904D01*
X185190476Y-133834819D02*
X185190476Y-134549104D01*
X185190476Y-134549104D02*
X185142857Y-134691961D01*
X185142857Y-134691961D02*
X185047619Y-134787200D01*
X185047619Y-134787200D02*
X184904762Y-134834819D01*
X184904762Y-134834819D02*
X184809524Y-134834819D01*
X186190476Y-134834819D02*
X185619048Y-134834819D01*
X185904762Y-134834819D02*
X185904762Y-133834819D01*
X185904762Y-133834819D02*
X185809524Y-133977676D01*
X185809524Y-133977676D02*
X185714286Y-134072914D01*
X185714286Y-134072914D02*
X185619048Y-134120533D01*
X186571429Y-133930057D02*
X186619048Y-133882438D01*
X186619048Y-133882438D02*
X186714286Y-133834819D01*
X186714286Y-133834819D02*
X186952381Y-133834819D01*
X186952381Y-133834819D02*
X187047619Y-133882438D01*
X187047619Y-133882438D02*
X187095238Y-133930057D01*
X187095238Y-133930057D02*
X187142857Y-134025295D01*
X187142857Y-134025295D02*
X187142857Y-134120533D01*
X187142857Y-134120533D02*
X187095238Y-134263390D01*
X187095238Y-134263390D02*
X186523810Y-134834819D01*
X186523810Y-134834819D02*
X187142857Y-134834819D01*
X139666666Y-133834819D02*
X139666666Y-134549104D01*
X139666666Y-134549104D02*
X139619047Y-134691961D01*
X139619047Y-134691961D02*
X139523809Y-134787200D01*
X139523809Y-134787200D02*
X139380952Y-134834819D01*
X139380952Y-134834819D02*
X139285714Y-134834819D01*
X140047619Y-133834819D02*
X140714285Y-133834819D01*
X140714285Y-133834819D02*
X140285714Y-134834819D01*
X111960476Y-135344819D02*
X111960476Y-136059104D01*
X111960476Y-136059104D02*
X111912857Y-136201961D01*
X111912857Y-136201961D02*
X111817619Y-136297200D01*
X111817619Y-136297200D02*
X111674762Y-136344819D01*
X111674762Y-136344819D02*
X111579524Y-136344819D01*
X112960476Y-136344819D02*
X112389048Y-136344819D01*
X112674762Y-136344819D02*
X112674762Y-135344819D01*
X112674762Y-135344819D02*
X112579524Y-135487676D01*
X112579524Y-135487676D02*
X112484286Y-135582914D01*
X112484286Y-135582914D02*
X112389048Y-135630533D01*
X113817619Y-135678152D02*
X113817619Y-136344819D01*
X113579524Y-135297200D02*
X113341429Y-136011485D01*
X113341429Y-136011485D02*
X113960476Y-136011485D01*
X167114819Y-108711904D02*
X167924342Y-108711904D01*
X167924342Y-108711904D02*
X168019580Y-108664285D01*
X168019580Y-108664285D02*
X168067200Y-108616666D01*
X168067200Y-108616666D02*
X168114819Y-108521428D01*
X168114819Y-108521428D02*
X168114819Y-108330952D01*
X168114819Y-108330952D02*
X168067200Y-108235714D01*
X168067200Y-108235714D02*
X168019580Y-108188095D01*
X168019580Y-108188095D02*
X167924342Y-108140476D01*
X167924342Y-108140476D02*
X167114819Y-108140476D01*
X167210057Y-107711904D02*
X167162438Y-107664285D01*
X167162438Y-107664285D02*
X167114819Y-107569047D01*
X167114819Y-107569047D02*
X167114819Y-107330952D01*
X167114819Y-107330952D02*
X167162438Y-107235714D01*
X167162438Y-107235714D02*
X167210057Y-107188095D01*
X167210057Y-107188095D02*
X167305295Y-107140476D01*
X167305295Y-107140476D02*
X167400533Y-107140476D01*
X167400533Y-107140476D02*
X167543390Y-107188095D01*
X167543390Y-107188095D02*
X168114819Y-107759523D01*
X168114819Y-107759523D02*
X168114819Y-107140476D01*
%TO.C,R7*%
D10*
X128952936Y-131415000D02*
X129407064Y-131415000D01*
X128952936Y-132885000D02*
X129407064Y-132885000D01*
%TO.C,R12*%
X148752936Y-131415000D02*
X149207064Y-131415000D01*
X148752936Y-132885000D02*
X149207064Y-132885000D01*
%TO.C,R19*%
X164832936Y-61715000D02*
X165287064Y-61715000D01*
X164832936Y-63185000D02*
X165287064Y-63185000D01*
%TO.C,C2*%
X114499759Y-109451000D02*
X115129759Y-109451000D01*
X114814759Y-109136000D02*
X114814759Y-109766000D01*
X118000000Y-108060000D02*
X118000000Y-114520000D01*
X118040000Y-108060000D02*
X118040000Y-114520000D01*
X118080000Y-108061000D02*
X118080000Y-114519000D01*
X118120000Y-108062000D02*
X118120000Y-114518000D01*
X118160000Y-108064000D02*
X118160000Y-114516000D01*
X118200000Y-108066000D02*
X118200000Y-114514000D01*
X118240000Y-108069000D02*
X118240000Y-110250000D01*
X118240000Y-112330000D02*
X118240000Y-114511000D01*
X118280000Y-108072000D02*
X118280000Y-110250000D01*
X118280000Y-112330000D02*
X118280000Y-114508000D01*
X118320000Y-108076000D02*
X118320000Y-110250000D01*
X118320000Y-112330000D02*
X118320000Y-114504000D01*
X118360000Y-108080000D02*
X118360000Y-110250000D01*
X118360000Y-112330000D02*
X118360000Y-114500000D01*
X118400000Y-108085000D02*
X118400000Y-110250000D01*
X118400000Y-112330000D02*
X118400000Y-114495000D01*
X118440000Y-108090000D02*
X118440000Y-110250000D01*
X118440000Y-112330000D02*
X118440000Y-114490000D01*
X118480000Y-108095000D02*
X118480000Y-110250000D01*
X118480000Y-112330000D02*
X118480000Y-114485000D01*
X118520000Y-108102000D02*
X118520000Y-110250000D01*
X118520000Y-112330000D02*
X118520000Y-114478000D01*
X118560000Y-108108000D02*
X118560000Y-110250000D01*
X118560000Y-112330000D02*
X118560000Y-114472000D01*
X118600000Y-108116000D02*
X118600000Y-110250000D01*
X118600000Y-112330000D02*
X118600000Y-114464000D01*
X118640000Y-108123000D02*
X118640000Y-110250000D01*
X118640000Y-112330000D02*
X118640000Y-114457000D01*
X118680000Y-108131000D02*
X118680000Y-110250000D01*
X118680000Y-112330000D02*
X118680000Y-114449000D01*
X118720000Y-108140000D02*
X118720000Y-110250000D01*
X118720000Y-112330000D02*
X118720000Y-114440000D01*
X118760000Y-108150000D02*
X118760000Y-110250000D01*
X118760000Y-112330000D02*
X118760000Y-114430000D01*
X118800000Y-108159000D02*
X118800000Y-110250000D01*
X118800000Y-112330000D02*
X118800000Y-114421000D01*
X118840000Y-108170000D02*
X118840000Y-110250000D01*
X118840000Y-112330000D02*
X118840000Y-114410000D01*
X118880000Y-108181000D02*
X118880000Y-110250000D01*
X118880000Y-112330000D02*
X118880000Y-114399000D01*
X118920000Y-108192000D02*
X118920000Y-110250000D01*
X118920000Y-112330000D02*
X118920000Y-114388000D01*
X118960000Y-108204000D02*
X118960000Y-110250000D01*
X118960000Y-112330000D02*
X118960000Y-114376000D01*
X119000000Y-108217000D02*
X119000000Y-110250000D01*
X119000000Y-112330000D02*
X119000000Y-114363000D01*
X119040000Y-108230000D02*
X119040000Y-110250000D01*
X119040000Y-112330000D02*
X119040000Y-114350000D01*
X119080000Y-108243000D02*
X119080000Y-110250000D01*
X119080000Y-112330000D02*
X119080000Y-114337000D01*
X119120000Y-108258000D02*
X119120000Y-110250000D01*
X119120000Y-112330000D02*
X119120000Y-114322000D01*
X119160000Y-108273000D02*
X119160000Y-110250000D01*
X119160000Y-112330000D02*
X119160000Y-114307000D01*
X119200000Y-108288000D02*
X119200000Y-110250000D01*
X119200000Y-112330000D02*
X119200000Y-114292000D01*
X119240000Y-108304000D02*
X119240000Y-110250000D01*
X119240000Y-112330000D02*
X119240000Y-114276000D01*
X119280000Y-108321000D02*
X119280000Y-110250000D01*
X119280000Y-112330000D02*
X119280000Y-114259000D01*
X119320000Y-108338000D02*
X119320000Y-110250000D01*
X119320000Y-112330000D02*
X119320000Y-114242000D01*
X119360000Y-108356000D02*
X119360000Y-110250000D01*
X119360000Y-112330000D02*
X119360000Y-114224000D01*
X119400000Y-108375000D02*
X119400000Y-110250000D01*
X119400000Y-112330000D02*
X119400000Y-114205000D01*
X119440000Y-108394000D02*
X119440000Y-110250000D01*
X119440000Y-112330000D02*
X119440000Y-114186000D01*
X119480000Y-108414000D02*
X119480000Y-110250000D01*
X119480000Y-112330000D02*
X119480000Y-114166000D01*
X119520000Y-108435000D02*
X119520000Y-110250000D01*
X119520000Y-112330000D02*
X119520000Y-114145000D01*
X119560000Y-108456000D02*
X119560000Y-110250000D01*
X119560000Y-112330000D02*
X119560000Y-114124000D01*
X119600000Y-108478000D02*
X119600000Y-110250000D01*
X119600000Y-112330000D02*
X119600000Y-114102000D01*
X119640000Y-108501000D02*
X119640000Y-110250000D01*
X119640000Y-112330000D02*
X119640000Y-114079000D01*
X119680000Y-108525000D02*
X119680000Y-110250000D01*
X119680000Y-112330000D02*
X119680000Y-114055000D01*
X119720000Y-108549000D02*
X119720000Y-110250000D01*
X119720000Y-112330000D02*
X119720000Y-114031000D01*
X119760000Y-108574000D02*
X119760000Y-110250000D01*
X119760000Y-112330000D02*
X119760000Y-114006000D01*
X119800000Y-108600000D02*
X119800000Y-110250000D01*
X119800000Y-112330000D02*
X119800000Y-113980000D01*
X119840000Y-108627000D02*
X119840000Y-110250000D01*
X119840000Y-112330000D02*
X119840000Y-113953000D01*
X119880000Y-108654000D02*
X119880000Y-110250000D01*
X119880000Y-112330000D02*
X119880000Y-113926000D01*
X119920000Y-108683000D02*
X119920000Y-110250000D01*
X119920000Y-112330000D02*
X119920000Y-113897000D01*
X119960000Y-108713000D02*
X119960000Y-110250000D01*
X119960000Y-112330000D02*
X119960000Y-113867000D01*
X120000000Y-108743000D02*
X120000000Y-110250000D01*
X120000000Y-112330000D02*
X120000000Y-113837000D01*
X120040000Y-108774000D02*
X120040000Y-110250000D01*
X120040000Y-112330000D02*
X120040000Y-113806000D01*
X120080000Y-108807000D02*
X120080000Y-110250000D01*
X120080000Y-112330000D02*
X120080000Y-113773000D01*
X120120000Y-108840000D02*
X120120000Y-110250000D01*
X120120000Y-112330000D02*
X120120000Y-113740000D01*
X120160000Y-108875000D02*
X120160000Y-110250000D01*
X120160000Y-112330000D02*
X120160000Y-113705000D01*
X120200000Y-108911000D02*
X120200000Y-110250000D01*
X120200000Y-112330000D02*
X120200000Y-113669000D01*
X120240000Y-108948000D02*
X120240000Y-110250000D01*
X120240000Y-112330000D02*
X120240000Y-113632000D01*
X120280000Y-108986000D02*
X120280000Y-110250000D01*
X120280000Y-112330000D02*
X120280000Y-113594000D01*
X120320000Y-109026000D02*
X120320000Y-113554000D01*
X120360000Y-109067000D02*
X120360000Y-113513000D01*
X120400000Y-109109000D02*
X120400000Y-113471000D01*
X120440000Y-109153000D02*
X120440000Y-113427000D01*
X120480000Y-109199000D02*
X120480000Y-113381000D01*
X120520000Y-109246000D02*
X120520000Y-113334000D01*
X120560000Y-109295000D02*
X120560000Y-113285000D01*
X120600000Y-109347000D02*
X120600000Y-113233000D01*
X120640000Y-109400000D02*
X120640000Y-113180000D01*
X120680000Y-109456000D02*
X120680000Y-113124000D01*
X120720000Y-109515000D02*
X120720000Y-113065000D01*
X120760000Y-109576000D02*
X120760000Y-113004000D01*
X120800000Y-109641000D02*
X120800000Y-112939000D01*
X120840000Y-109709000D02*
X120840000Y-112871000D01*
X120880000Y-109781000D02*
X120880000Y-112799000D01*
X120920000Y-109858000D02*
X120920000Y-112722000D01*
X120960000Y-109940000D02*
X120960000Y-112640000D01*
X121000000Y-110029000D02*
X121000000Y-112551000D01*
X121040000Y-110125000D02*
X121040000Y-112455000D01*
X121080000Y-110232000D02*
X121080000Y-112348000D01*
X121120000Y-110351000D02*
X121120000Y-112229000D01*
X121160000Y-110489000D02*
X121160000Y-112091000D01*
X121200000Y-110657000D02*
X121200000Y-111923000D01*
X121240000Y-110888000D02*
X121240000Y-111692000D01*
X121270000Y-111290000D02*
G75*
G02*
X114730000Y-111290000I-3270000J0D01*
G01*
X114730000Y-111290000D02*
G75*
G02*
X121270000Y-111290000I3270000J0D01*
G01*
%TO.C,R16*%
X152952936Y-61715000D02*
X153407064Y-61715000D01*
X152952936Y-63185000D02*
X153407064Y-63185000D01*
%TO.C,J2*%
X145580000Y-51610000D02*
X150650000Y-51610000D01*
X145580000Y-59450000D02*
X145580000Y-51610000D01*
X151250000Y-51610000D02*
X152820000Y-51610000D01*
X152820000Y-51610000D02*
X152820000Y-59450000D01*
X152820000Y-52130000D02*
X145580000Y-52130000D01*
X152820000Y-53230000D02*
X145580000Y-53230000D01*
X152820000Y-59450000D02*
X145580000Y-59450000D01*
X150950000Y-51610000D02*
X150510000Y-51000000D01*
X151390000Y-51000000D01*
X150950000Y-51610000D01*
G36*
X150950000Y-51610000D02*
G01*
X150510000Y-51000000D01*
X151390000Y-51000000D01*
X150950000Y-51610000D01*
G37*
%TO.C,C3*%
X114500225Y-95845000D02*
X115000225Y-95845000D01*
X114750225Y-95595000D02*
X114750225Y-96095000D01*
X117305000Y-94740000D02*
X117305000Y-99900000D01*
X117345000Y-94740000D02*
X117345000Y-99900000D01*
X117385000Y-94741000D02*
X117385000Y-99899000D01*
X117425000Y-94743000D02*
X117425000Y-99897000D01*
X117465000Y-94745000D02*
X117465000Y-99895000D01*
X117505000Y-94748000D02*
X117505000Y-99892000D01*
X117545000Y-94751000D02*
X117545000Y-96280000D01*
X117545000Y-98360000D02*
X117545000Y-99889000D01*
X117585000Y-94755000D02*
X117585000Y-96280000D01*
X117585000Y-98360000D02*
X117585000Y-99885000D01*
X117625000Y-94760000D02*
X117625000Y-96280000D01*
X117625000Y-98360000D02*
X117625000Y-99880000D01*
X117665000Y-94765000D02*
X117665000Y-96280000D01*
X117665000Y-98360000D02*
X117665000Y-99875000D01*
X117705000Y-94771000D02*
X117705000Y-96280000D01*
X117705000Y-98360000D02*
X117705000Y-99869000D01*
X117745000Y-94777000D02*
X117745000Y-96280000D01*
X117745000Y-98360000D02*
X117745000Y-99863000D01*
X117785000Y-94784000D02*
X117785000Y-96280000D01*
X117785000Y-98360000D02*
X117785000Y-99856000D01*
X117825000Y-94792000D02*
X117825000Y-96280000D01*
X117825000Y-98360000D02*
X117825000Y-99848000D01*
X117865000Y-94801000D02*
X117865000Y-96280000D01*
X117865000Y-98360000D02*
X117865000Y-99839000D01*
X117905000Y-94810000D02*
X117905000Y-96280000D01*
X117905000Y-98360000D02*
X117905000Y-99830000D01*
X117945000Y-94819000D02*
X117945000Y-96280000D01*
X117945000Y-98360000D02*
X117945000Y-99821000D01*
X117985000Y-94830000D02*
X117985000Y-96280000D01*
X117985000Y-98360000D02*
X117985000Y-99810000D01*
X118025000Y-94841000D02*
X118025000Y-96280000D01*
X118025000Y-98360000D02*
X118025000Y-99799000D01*
X118065000Y-94853000D02*
X118065000Y-96280000D01*
X118065000Y-98360000D02*
X118065000Y-99787000D01*
X118105000Y-94865000D02*
X118105000Y-96280000D01*
X118105000Y-98360000D02*
X118105000Y-99775000D01*
X118145000Y-94878000D02*
X118145000Y-96280000D01*
X118145000Y-98360000D02*
X118145000Y-99762000D01*
X118185000Y-94892000D02*
X118185000Y-96280000D01*
X118185000Y-98360000D02*
X118185000Y-99748000D01*
X118225000Y-94907000D02*
X118225000Y-96280000D01*
X118225000Y-98360000D02*
X118225000Y-99733000D01*
X118265000Y-94922000D02*
X118265000Y-96280000D01*
X118265000Y-98360000D02*
X118265000Y-99718000D01*
X118305000Y-94938000D02*
X118305000Y-96280000D01*
X118305000Y-98360000D02*
X118305000Y-99702000D01*
X118345000Y-94955000D02*
X118345000Y-96280000D01*
X118345000Y-98360000D02*
X118345000Y-99685000D01*
X118385000Y-94973000D02*
X118385000Y-96280000D01*
X118385000Y-98360000D02*
X118385000Y-99667000D01*
X118425000Y-94991000D02*
X118425000Y-96280000D01*
X118425000Y-98360000D02*
X118425000Y-99649000D01*
X118465000Y-95011000D02*
X118465000Y-96280000D01*
X118465000Y-98360000D02*
X118465000Y-99629000D01*
X118505000Y-95031000D02*
X118505000Y-96280000D01*
X118505000Y-98360000D02*
X118505000Y-99609000D01*
X118545000Y-95052000D02*
X118545000Y-96280000D01*
X118545000Y-98360000D02*
X118545000Y-99588000D01*
X118585000Y-95074000D02*
X118585000Y-96280000D01*
X118585000Y-98360000D02*
X118585000Y-99566000D01*
X118625000Y-95097000D02*
X118625000Y-96280000D01*
X118625000Y-98360000D02*
X118625000Y-99543000D01*
X118665000Y-95121000D02*
X118665000Y-96280000D01*
X118665000Y-98360000D02*
X118665000Y-99519000D01*
X118705000Y-95145000D02*
X118705000Y-96280000D01*
X118705000Y-98360000D02*
X118705000Y-99495000D01*
X118745000Y-95171000D02*
X118745000Y-96280000D01*
X118745000Y-98360000D02*
X118745000Y-99469000D01*
X118785000Y-95198000D02*
X118785000Y-96280000D01*
X118785000Y-98360000D02*
X118785000Y-99442000D01*
X118825000Y-95226000D02*
X118825000Y-96280000D01*
X118825000Y-98360000D02*
X118825000Y-99414000D01*
X118865000Y-95255000D02*
X118865000Y-96280000D01*
X118865000Y-98360000D02*
X118865000Y-99385000D01*
X118905000Y-95285000D02*
X118905000Y-96280000D01*
X118905000Y-98360000D02*
X118905000Y-99355000D01*
X118945000Y-95317000D02*
X118945000Y-96280000D01*
X118945000Y-98360000D02*
X118945000Y-99323000D01*
X118985000Y-95350000D02*
X118985000Y-96280000D01*
X118985000Y-98360000D02*
X118985000Y-99290000D01*
X119025000Y-95384000D02*
X119025000Y-96280000D01*
X119025000Y-98360000D02*
X119025000Y-99256000D01*
X119065000Y-95419000D02*
X119065000Y-96280000D01*
X119065000Y-98360000D02*
X119065000Y-99221000D01*
X119105000Y-95456000D02*
X119105000Y-96280000D01*
X119105000Y-98360000D02*
X119105000Y-99184000D01*
X119145000Y-95495000D02*
X119145000Y-96280000D01*
X119145000Y-98360000D02*
X119145000Y-99145000D01*
X119185000Y-95535000D02*
X119185000Y-96280000D01*
X119185000Y-98360000D02*
X119185000Y-99105000D01*
X119225000Y-95577000D02*
X119225000Y-96280000D01*
X119225000Y-98360000D02*
X119225000Y-99063000D01*
X119265000Y-95621000D02*
X119265000Y-96280000D01*
X119265000Y-98360000D02*
X119265000Y-99019000D01*
X119305000Y-95668000D02*
X119305000Y-96280000D01*
X119305000Y-98360000D02*
X119305000Y-98972000D01*
X119345000Y-95716000D02*
X119345000Y-96280000D01*
X119345000Y-98360000D02*
X119345000Y-98924000D01*
X119385000Y-95767000D02*
X119385000Y-96280000D01*
X119385000Y-98360000D02*
X119385000Y-98873000D01*
X119425000Y-95821000D02*
X119425000Y-96280000D01*
X119425000Y-98360000D02*
X119425000Y-98819000D01*
X119465000Y-95877000D02*
X119465000Y-96280000D01*
X119465000Y-98360000D02*
X119465000Y-98763000D01*
X119505000Y-95937000D02*
X119505000Y-96280000D01*
X119505000Y-98360000D02*
X119505000Y-98703000D01*
X119545000Y-96001000D02*
X119545000Y-96280000D01*
X119545000Y-98360000D02*
X119545000Y-98639000D01*
X119585000Y-96069000D02*
X119585000Y-96280000D01*
X119585000Y-98360000D02*
X119585000Y-98571000D01*
X119625000Y-96143000D02*
X119625000Y-98497000D01*
X119665000Y-96222000D02*
X119665000Y-98418000D01*
X119705000Y-96309000D02*
X119705000Y-98331000D01*
X119745000Y-96406000D02*
X119745000Y-98234000D01*
X119785000Y-96515000D02*
X119785000Y-98125000D01*
X119825000Y-96643000D02*
X119825000Y-97997000D01*
X119865000Y-96803000D02*
X119865000Y-97837000D01*
X119905000Y-97037000D02*
X119905000Y-97603000D01*
X119925000Y-97320000D02*
G75*
G02*
X114685000Y-97320000I-2620000J0D01*
G01*
X114685000Y-97320000D02*
G75*
G02*
X119925000Y-97320000I2620000J0D01*
G01*
%TO.C,R22*%
X152952936Y-131415000D02*
X153407064Y-131415000D01*
X152952936Y-132885000D02*
X153407064Y-132885000D01*
%TO.C,M2*%
X123710000Y-63620000D02*
X125090000Y-63620000D01*
X123710000Y-65000000D02*
X123710000Y-63620000D01*
X123710000Y-66270000D02*
X123710000Y-79080000D01*
X123710000Y-66270000D02*
X126470000Y-66270000D01*
X123710000Y-79080000D02*
X126470000Y-79080000D01*
X126470000Y-66270000D02*
X126470000Y-79080000D01*
%TO.C,U3*%
X117050000Y-86230000D02*
X120810000Y-86230000D01*
X117050000Y-93050000D02*
X120810000Y-93050000D01*
X120810000Y-86230000D02*
X120810000Y-87490000D01*
X120810000Y-93050000D02*
X120810000Y-91790000D01*
X115770000Y-86330000D02*
X115530000Y-86000000D01*
X116010000Y-86000000D01*
X115770000Y-86330000D01*
G36*
X115770000Y-86330000D02*
G01*
X115530000Y-86000000D01*
X116010000Y-86000000D01*
X115770000Y-86330000D01*
G37*
%TO.C,C7*%
X127438748Y-86245000D02*
X127961252Y-86245000D01*
X127438748Y-87715000D02*
X127961252Y-87715000D01*
%TO.C,R17*%
X156912936Y-61715000D02*
X157367064Y-61715000D01*
X156912936Y-63185000D02*
X157367064Y-63185000D01*
%TO.C,C1*%
X103000354Y-113775000D02*
X104000354Y-113775000D01*
X103500354Y-113275000D02*
X103500354Y-114275000D01*
X108480000Y-111570000D02*
X108480000Y-121730000D01*
X108520000Y-111570000D02*
X108520000Y-121730000D01*
X108560000Y-111571000D02*
X108560000Y-121729000D01*
X108600000Y-111571000D02*
X108600000Y-121729000D01*
X108640000Y-111573000D02*
X108640000Y-121727000D01*
X108680000Y-111574000D02*
X108680000Y-121726000D01*
X108720000Y-111576000D02*
X108720000Y-121724000D01*
X108760000Y-111578000D02*
X108760000Y-121722000D01*
X108800000Y-111580000D02*
X108800000Y-121720000D01*
X108840000Y-111583000D02*
X108840000Y-121717000D01*
X108880000Y-111586000D02*
X108880000Y-121714000D01*
X108920000Y-111589000D02*
X108920000Y-121711000D01*
X108960000Y-111593000D02*
X108960000Y-121707000D01*
X109000000Y-111596000D02*
X109000000Y-115410000D01*
X109000000Y-117890000D02*
X109000000Y-121704000D01*
X109040000Y-111601000D02*
X109040000Y-115410000D01*
X109040000Y-117890000D02*
X109040000Y-121699000D01*
X109080000Y-111605000D02*
X109080000Y-115410000D01*
X109080000Y-117890000D02*
X109080000Y-121695000D01*
X109120000Y-111610000D02*
X109120000Y-115410000D01*
X109120000Y-117890000D02*
X109120000Y-121690000D01*
X109160000Y-111615000D02*
X109160000Y-115410000D01*
X109160000Y-117890000D02*
X109160000Y-121685000D01*
X109200000Y-111621000D02*
X109200000Y-115410000D01*
X109200000Y-117890000D02*
X109200000Y-121679000D01*
X109240000Y-111627000D02*
X109240000Y-115410000D01*
X109240000Y-117890000D02*
X109240000Y-121673000D01*
X109280000Y-111633000D02*
X109280000Y-115410000D01*
X109280000Y-117890000D02*
X109280000Y-121667000D01*
X109320000Y-111639000D02*
X109320000Y-115410000D01*
X109320000Y-117890000D02*
X109320000Y-121661000D01*
X109360000Y-111646000D02*
X109360000Y-115410000D01*
X109360000Y-117890000D02*
X109360000Y-121654000D01*
X109400000Y-111653000D02*
X109400000Y-115410000D01*
X109400000Y-117890000D02*
X109400000Y-121647000D01*
X109440000Y-111661000D02*
X109440000Y-115410000D01*
X109440000Y-117890000D02*
X109440000Y-121639000D01*
X109480000Y-111669000D02*
X109480000Y-115410000D01*
X109480000Y-117890000D02*
X109480000Y-121631000D01*
X109520000Y-111677000D02*
X109520000Y-115410000D01*
X109520000Y-117890000D02*
X109520000Y-121623000D01*
X109560000Y-111685000D02*
X109560000Y-115410000D01*
X109560000Y-117890000D02*
X109560000Y-121615000D01*
X109600000Y-111694000D02*
X109600000Y-115410000D01*
X109600000Y-117890000D02*
X109600000Y-121606000D01*
X109640000Y-111703000D02*
X109640000Y-115410000D01*
X109640000Y-117890000D02*
X109640000Y-121597000D01*
X109680000Y-111713000D02*
X109680000Y-115410000D01*
X109680000Y-117890000D02*
X109680000Y-121587000D01*
X109720000Y-111722000D02*
X109720000Y-115410000D01*
X109720000Y-117890000D02*
X109720000Y-121578000D01*
X109760000Y-111733000D02*
X109760000Y-115410000D01*
X109760000Y-117890000D02*
X109760000Y-121567000D01*
X109800000Y-111743000D02*
X109800000Y-115410000D01*
X109800000Y-117890000D02*
X109800000Y-121557000D01*
X109840000Y-111754000D02*
X109840000Y-115410000D01*
X109840000Y-117890000D02*
X109840000Y-121546000D01*
X109880000Y-111765000D02*
X109880000Y-115410000D01*
X109880000Y-117890000D02*
X109880000Y-121535000D01*
X109920000Y-111777000D02*
X109920000Y-115410000D01*
X109920000Y-117890000D02*
X109920000Y-121523000D01*
X109960000Y-111789000D02*
X109960000Y-115410000D01*
X109960000Y-117890000D02*
X109960000Y-121511000D01*
X110000000Y-111801000D02*
X110000000Y-115410000D01*
X110000000Y-117890000D02*
X110000000Y-121499000D01*
X110040000Y-111813000D02*
X110040000Y-115410000D01*
X110040000Y-117890000D02*
X110040000Y-121487000D01*
X110080000Y-111826000D02*
X110080000Y-115410000D01*
X110080000Y-117890000D02*
X110080000Y-121474000D01*
X110120000Y-111840000D02*
X110120000Y-115410000D01*
X110120000Y-117890000D02*
X110120000Y-121460000D01*
X110160000Y-111853000D02*
X110160000Y-115410000D01*
X110160000Y-117890000D02*
X110160000Y-121447000D01*
X110200000Y-111868000D02*
X110200000Y-115410000D01*
X110200000Y-117890000D02*
X110200000Y-121432000D01*
X110240000Y-111882000D02*
X110240000Y-115410000D01*
X110240000Y-117890000D02*
X110240000Y-121418000D01*
X110280000Y-111897000D02*
X110280000Y-115410000D01*
X110280000Y-117890000D02*
X110280000Y-121403000D01*
X110320000Y-111912000D02*
X110320000Y-115410000D01*
X110320000Y-117890000D02*
X110320000Y-121388000D01*
X110360000Y-111928000D02*
X110360000Y-115410000D01*
X110360000Y-117890000D02*
X110360000Y-121372000D01*
X110400000Y-111944000D02*
X110400000Y-115410000D01*
X110400000Y-117890000D02*
X110400000Y-121356000D01*
X110440000Y-111960000D02*
X110440000Y-115410000D01*
X110440000Y-117890000D02*
X110440000Y-121340000D01*
X110480000Y-111977000D02*
X110480000Y-115410000D01*
X110480000Y-117890000D02*
X110480000Y-121323000D01*
X110520000Y-111994000D02*
X110520000Y-115410000D01*
X110520000Y-117890000D02*
X110520000Y-121306000D01*
X110560000Y-112012000D02*
X110560000Y-115410000D01*
X110560000Y-117890000D02*
X110560000Y-121288000D01*
X110600000Y-112030000D02*
X110600000Y-115410000D01*
X110600000Y-117890000D02*
X110600000Y-121270000D01*
X110640000Y-112048000D02*
X110640000Y-115410000D01*
X110640000Y-117890000D02*
X110640000Y-121252000D01*
X110680000Y-112067000D02*
X110680000Y-115410000D01*
X110680000Y-117890000D02*
X110680000Y-121233000D01*
X110720000Y-112086000D02*
X110720000Y-115410000D01*
X110720000Y-117890000D02*
X110720000Y-121214000D01*
X110760000Y-112106000D02*
X110760000Y-115410000D01*
X110760000Y-117890000D02*
X110760000Y-121194000D01*
X110800000Y-112126000D02*
X110800000Y-115410000D01*
X110800000Y-117890000D02*
X110800000Y-121174000D01*
X110840000Y-112146000D02*
X110840000Y-115410000D01*
X110840000Y-117890000D02*
X110840000Y-121154000D01*
X110880000Y-112167000D02*
X110880000Y-115410000D01*
X110880000Y-117890000D02*
X110880000Y-121133000D01*
X110920000Y-112189000D02*
X110920000Y-115410000D01*
X110920000Y-117890000D02*
X110920000Y-121111000D01*
X110960000Y-112211000D02*
X110960000Y-115410000D01*
X110960000Y-117890000D02*
X110960000Y-121089000D01*
X111000000Y-112233000D02*
X111000000Y-115410000D01*
X111000000Y-117890000D02*
X111000000Y-121067000D01*
X111040000Y-112256000D02*
X111040000Y-115410000D01*
X111040000Y-117890000D02*
X111040000Y-121044000D01*
X111080000Y-112279000D02*
X111080000Y-115410000D01*
X111080000Y-117890000D02*
X111080000Y-121021000D01*
X111120000Y-112303000D02*
X111120000Y-115410000D01*
X111120000Y-117890000D02*
X111120000Y-120997000D01*
X111160000Y-112327000D02*
X111160000Y-115410000D01*
X111160000Y-117890000D02*
X111160000Y-120973000D01*
X111200000Y-112352000D02*
X111200000Y-115410000D01*
X111200000Y-117890000D02*
X111200000Y-120948000D01*
X111240000Y-112378000D02*
X111240000Y-115410000D01*
X111240000Y-117890000D02*
X111240000Y-120922000D01*
X111280000Y-112403000D02*
X111280000Y-115410000D01*
X111280000Y-117890000D02*
X111280000Y-120897000D01*
X111320000Y-112430000D02*
X111320000Y-115410000D01*
X111320000Y-117890000D02*
X111320000Y-120870000D01*
X111360000Y-112457000D02*
X111360000Y-115410000D01*
X111360000Y-117890000D02*
X111360000Y-120843000D01*
X111400000Y-112484000D02*
X111400000Y-115410000D01*
X111400000Y-117890000D02*
X111400000Y-120816000D01*
X111440000Y-112512000D02*
X111440000Y-115410000D01*
X111440000Y-117890000D02*
X111440000Y-120788000D01*
X111480000Y-112541000D02*
X111480000Y-120759000D01*
X111520000Y-112570000D02*
X111520000Y-120730000D01*
X111560000Y-112600000D02*
X111560000Y-120700000D01*
X111600000Y-112630000D02*
X111600000Y-120670000D01*
X111640000Y-112662000D02*
X111640000Y-120638000D01*
X111680000Y-112693000D02*
X111680000Y-120607000D01*
X111720000Y-112726000D02*
X111720000Y-120574000D01*
X111760000Y-112759000D02*
X111760000Y-120541000D01*
X111800000Y-112792000D02*
X111800000Y-120508000D01*
X111840000Y-112827000D02*
X111840000Y-120473000D01*
X111880000Y-112862000D02*
X111880000Y-120438000D01*
X111920000Y-112898000D02*
X111920000Y-120402000D01*
X111960000Y-112934000D02*
X111960000Y-120366000D01*
X112000000Y-112972000D02*
X112000000Y-120328000D01*
X112040000Y-113010000D02*
X112040000Y-120290000D01*
X112080000Y-113049000D02*
X112080000Y-120251000D01*
X112120000Y-113089000D02*
X112120000Y-120211000D01*
X112160000Y-113130000D02*
X112160000Y-120170000D01*
X112200000Y-113172000D02*
X112200000Y-120128000D01*
X112240000Y-113215000D02*
X112240000Y-120085000D01*
X112280000Y-113259000D02*
X112280000Y-120041000D01*
X112320000Y-113303000D02*
X112320000Y-119997000D01*
X112360000Y-113349000D02*
X112360000Y-119951000D01*
X112400000Y-113396000D02*
X112400000Y-119904000D01*
X112440000Y-113445000D02*
X112440000Y-119855000D01*
X112480000Y-113494000D02*
X112480000Y-119806000D01*
X112520000Y-113545000D02*
X112520000Y-119755000D01*
X112560000Y-113597000D02*
X112560000Y-119703000D01*
X112600000Y-113650000D02*
X112600000Y-119650000D01*
X112640000Y-113705000D02*
X112640000Y-119595000D01*
X112680000Y-113762000D02*
X112680000Y-119538000D01*
X112720000Y-113820000D02*
X112720000Y-119480000D01*
X112760000Y-113880000D02*
X112760000Y-119420000D01*
X112800000Y-113942000D02*
X112800000Y-119358000D01*
X112840000Y-114006000D02*
X112840000Y-119294000D01*
X112880000Y-114072000D02*
X112880000Y-119228000D01*
X112920000Y-114140000D02*
X112920000Y-119160000D01*
X112960000Y-114211000D02*
X112960000Y-119089000D01*
X113000000Y-114285000D02*
X113000000Y-119015000D01*
X113040000Y-114362000D02*
X113040000Y-118938000D01*
X113080000Y-114442000D02*
X113080000Y-118858000D01*
X113120000Y-114526000D02*
X113120000Y-118774000D01*
X113160000Y-114613000D02*
X113160000Y-118687000D01*
X113200000Y-114706000D02*
X113200000Y-118594000D01*
X113240000Y-114804000D02*
X113240000Y-118496000D01*
X113280000Y-114908000D02*
X113280000Y-118392000D01*
X113320000Y-115020000D02*
X113320000Y-118280000D01*
X113360000Y-115141000D02*
X113360000Y-118159000D01*
X113400000Y-115273000D02*
X113400000Y-118027000D01*
X113440000Y-115420000D02*
X113440000Y-117880000D01*
X113480000Y-115588000D02*
X113480000Y-117712000D01*
X113520000Y-115788000D02*
X113520000Y-117512000D01*
X113560000Y-116051000D02*
X113560000Y-117249000D01*
X113600000Y-116650000D02*
G75*
G02*
X103360000Y-116650000I-5120000J0D01*
G01*
X103360000Y-116650000D02*
G75*
G02*
X113600000Y-116650000I5120000J0D01*
G01*
%TO.C,J1*%
X136380000Y-51610000D02*
X141450000Y-51610000D01*
X136380000Y-59450000D02*
X136380000Y-51610000D01*
X142050000Y-51610000D02*
X143620000Y-51610000D01*
X143620000Y-51610000D02*
X143620000Y-59450000D01*
X143620000Y-52130000D02*
X136380000Y-52130000D01*
X143620000Y-53230000D02*
X136380000Y-53230000D01*
X143620000Y-59450000D02*
X136380000Y-59450000D01*
X141750000Y-51610000D02*
X141310000Y-51000000D01*
X142190000Y-51000000D01*
X141750000Y-51610000D01*
G36*
X141750000Y-51610000D02*
G01*
X141310000Y-51000000D01*
X142190000Y-51000000D01*
X141750000Y-51610000D01*
G37*
%TO.C,R9*%
X136872936Y-131415000D02*
X137327064Y-131415000D01*
X136872936Y-132885000D02*
X137327064Y-132885000D01*
%TO.C,R1*%
X128952936Y-61715000D02*
X129407064Y-61715000D01*
X128952936Y-63185000D02*
X129407064Y-63185000D01*
%TO.C,J13*%
X101610000Y-86380000D02*
X111650000Y-86380000D01*
X101610000Y-88740000D02*
X101610000Y-86380000D01*
X101610000Y-96780000D02*
X101610000Y-89340000D01*
X102230000Y-86380000D02*
X102230000Y-96780000D01*
X103730000Y-86380000D02*
X103730000Y-96780000D01*
X108630000Y-86380000D02*
X108630000Y-96780000D01*
X111650000Y-86380000D02*
X111650000Y-96780000D01*
X111650000Y-96780000D02*
X101610000Y-96780000D01*
X101610000Y-89040000D02*
X101000000Y-89480000D01*
X101000000Y-88600000D01*
X101610000Y-89040000D01*
G36*
X101610000Y-89040000D02*
G01*
X101000000Y-89480000D01*
X101000000Y-88600000D01*
X101610000Y-89040000D01*
G37*
%TO.C,Q1*%
X104170000Y-98810000D02*
X105690000Y-98810000D01*
X104170000Y-98860000D02*
X104170000Y-98810000D01*
X104170000Y-100760000D02*
X104170000Y-99980000D01*
X104170000Y-101930000D02*
X104170000Y-101880000D01*
X105690000Y-98810000D02*
X105690000Y-99810000D01*
X105690000Y-100930000D02*
X105690000Y-101930000D01*
X105690000Y-101930000D02*
X104170000Y-101930000D01*
X103630000Y-99990000D02*
X103870000Y-100320000D01*
X103390000Y-100320000D01*
X103630000Y-99990000D01*
G36*
X103870000Y-100320000D02*
G01*
X103390000Y-100320000D01*
X103630000Y-99990000D01*
X103870000Y-100320000D01*
G37*
%TO.C,R6*%
X148752936Y-61715000D02*
X149207064Y-61715000D01*
X148752936Y-63185000D02*
X149207064Y-63185000D01*
%TO.C,C6*%
X184438748Y-97245000D02*
X184961252Y-97245000D01*
X184438748Y-98715000D02*
X184961252Y-98715000D01*
%TO.C,M1*%
X103390000Y-63620000D02*
X104770000Y-63620000D01*
X103390000Y-65000000D02*
X103390000Y-63620000D01*
X103390000Y-66270000D02*
X103390000Y-79080000D01*
X103390000Y-66270000D02*
X106150000Y-66270000D01*
X103390000Y-79080000D02*
X106150000Y-79080000D01*
X106150000Y-66270000D02*
X106150000Y-79080000D01*
%TO.C,J9*%
X154780000Y-135380000D02*
X162020000Y-135380000D01*
X154780000Y-141600000D02*
X162020000Y-141600000D01*
X154780000Y-142700000D02*
X162020000Y-142700000D01*
X154780000Y-143220000D02*
X154780000Y-135380000D01*
X156350000Y-143220000D02*
X154780000Y-143220000D01*
X162020000Y-135380000D02*
X162020000Y-143220000D01*
X162020000Y-143220000D02*
X156950000Y-143220000D01*
X156650000Y-143220000D02*
X157090000Y-143830000D01*
X156210000Y-143830000D01*
X156650000Y-143220000D01*
G36*
X157090000Y-143830000D02*
G01*
X156210000Y-143830000D01*
X156650000Y-143220000D01*
X157090000Y-143830000D01*
G37*
%TO.C,J10*%
X163980000Y-135380000D02*
X171220000Y-135380000D01*
X163980000Y-141600000D02*
X171220000Y-141600000D01*
X163980000Y-142700000D02*
X171220000Y-142700000D01*
X163980000Y-143220000D02*
X163980000Y-135380000D01*
X165550000Y-143220000D02*
X163980000Y-143220000D01*
X171220000Y-135380000D02*
X171220000Y-143220000D01*
X171220000Y-143220000D02*
X166150000Y-143220000D01*
X165850000Y-143220000D02*
X166290000Y-143830000D01*
X165410000Y-143830000D01*
X165850000Y-143220000D01*
G36*
X166290000Y-143830000D02*
G01*
X165410000Y-143830000D01*
X165850000Y-143220000D01*
X166290000Y-143830000D01*
G37*
%TO.C,R13*%
X127452936Y-98095000D02*
X127907064Y-98095000D01*
X127452936Y-99565000D02*
X127907064Y-99565000D01*
%TO.C,J5*%
X173180000Y-51610000D02*
X178250000Y-51610000D01*
X173180000Y-59450000D02*
X173180000Y-51610000D01*
X178850000Y-51610000D02*
X180420000Y-51610000D01*
X180420000Y-51610000D02*
X180420000Y-59450000D01*
X180420000Y-52130000D02*
X173180000Y-52130000D01*
X180420000Y-53230000D02*
X173180000Y-53230000D01*
X180420000Y-59450000D02*
X173180000Y-59450000D01*
X178550000Y-51610000D02*
X178110000Y-51000000D01*
X178990000Y-51000000D01*
X178550000Y-51610000D01*
G36*
X178550000Y-51610000D02*
G01*
X178110000Y-51000000D01*
X178990000Y-51000000D01*
X178550000Y-51610000D01*
G37*
%TO.C,R23*%
X156912936Y-131415000D02*
X157367064Y-131415000D01*
X156912936Y-132885000D02*
X157367064Y-132885000D01*
%TO.C,J6*%
X182380000Y-51610000D02*
X187450000Y-51610000D01*
X182380000Y-59450000D02*
X182380000Y-51610000D01*
X188050000Y-51610000D02*
X189620000Y-51610000D01*
X189620000Y-51610000D02*
X189620000Y-59450000D01*
X189620000Y-52130000D02*
X182380000Y-52130000D01*
X189620000Y-53230000D02*
X182380000Y-53230000D01*
X189620000Y-59450000D02*
X182380000Y-59450000D01*
X187750000Y-51610000D02*
X187310000Y-51000000D01*
X188190000Y-51000000D01*
X187750000Y-51610000D01*
G36*
X187750000Y-51610000D02*
G01*
X187310000Y-51000000D01*
X188190000Y-51000000D01*
X187750000Y-51610000D01*
G37*
%TO.C,R3*%
X136872936Y-61715000D02*
X137327064Y-61715000D01*
X136872936Y-63185000D02*
X137327064Y-63185000D01*
%TO.C,R5*%
X144792936Y-61715000D02*
X145247064Y-61715000D01*
X144792936Y-63185000D02*
X145247064Y-63185000D01*
%TO.C,R26*%
X168792936Y-131415000D02*
X169247064Y-131415000D01*
X168792936Y-132885000D02*
X169247064Y-132885000D01*
%TO.C,J11*%
X173180000Y-135380000D02*
X180420000Y-135380000D01*
X173180000Y-141600000D02*
X180420000Y-141600000D01*
X173180000Y-142700000D02*
X180420000Y-142700000D01*
X173180000Y-143220000D02*
X173180000Y-135380000D01*
X174750000Y-143220000D02*
X173180000Y-143220000D01*
X180420000Y-135380000D02*
X180420000Y-143220000D01*
X180420000Y-143220000D02*
X175350000Y-143220000D01*
X175050000Y-143220000D02*
X175490000Y-143830000D01*
X174610000Y-143830000D01*
X175050000Y-143220000D01*
G36*
X175490000Y-143830000D02*
G01*
X174610000Y-143830000D01*
X175050000Y-143220000D01*
X175490000Y-143830000D01*
G37*
%TO.C,R11*%
X144792936Y-131415000D02*
X145247064Y-131415000D01*
X144792936Y-132885000D02*
X145247064Y-132885000D01*
%TO.C,R24*%
X160872936Y-131415000D02*
X161327064Y-131415000D01*
X160872936Y-132885000D02*
X161327064Y-132885000D01*
%TO.C,L1*%
X103400000Y-103720000D02*
X103400000Y-104170000D01*
X103400000Y-103720000D02*
X109600000Y-103720000D01*
X103400000Y-109920000D02*
X103400000Y-109470000D01*
X109600000Y-103720000D02*
X109600000Y-104170000D01*
X109600000Y-109920000D02*
X103400000Y-109920000D01*
X109600000Y-109920000D02*
X109600000Y-109470000D01*
%TO.C,C8*%
X127438748Y-94165000D02*
X127961252Y-94165000D01*
X127438748Y-95635000D02*
X127961252Y-95635000D01*
%TO.C,R10*%
X140832936Y-131415000D02*
X141287064Y-131415000D01*
X140832936Y-132885000D02*
X141287064Y-132885000D01*
%TO.C,J8*%
X145580000Y-135380000D02*
X152820000Y-135380000D01*
X145580000Y-141600000D02*
X152820000Y-141600000D01*
X145580000Y-142700000D02*
X152820000Y-142700000D01*
X145580000Y-143220000D02*
X145580000Y-135380000D01*
X147150000Y-143220000D02*
X145580000Y-143220000D01*
X152820000Y-135380000D02*
X152820000Y-143220000D01*
X152820000Y-143220000D02*
X147750000Y-143220000D01*
X147450000Y-143220000D02*
X147890000Y-143830000D01*
X147010000Y-143830000D01*
X147450000Y-143220000D01*
G36*
X147890000Y-143830000D02*
G01*
X147010000Y-143830000D01*
X147450000Y-143220000D01*
X147890000Y-143830000D01*
G37*
%TO.C,R20*%
X168792936Y-61715000D02*
X169247064Y-61715000D01*
X168792936Y-63185000D02*
X169247064Y-63185000D01*
%TO.C,J4*%
X163980000Y-51610000D02*
X169050000Y-51610000D01*
X163980000Y-59450000D02*
X163980000Y-51610000D01*
X169650000Y-51610000D02*
X171220000Y-51610000D01*
X171220000Y-51610000D02*
X171220000Y-59450000D01*
X171220000Y-52130000D02*
X163980000Y-52130000D01*
X171220000Y-53230000D02*
X163980000Y-53230000D01*
X171220000Y-59450000D02*
X163980000Y-59450000D01*
X169350000Y-51610000D02*
X168910000Y-51000000D01*
X169790000Y-51000000D01*
X169350000Y-51610000D01*
G36*
X169350000Y-51610000D02*
G01*
X168910000Y-51000000D01*
X169790000Y-51000000D01*
X169350000Y-51610000D01*
G37*
%TO.C,C9*%
X127438748Y-90205000D02*
X127961252Y-90205000D01*
X127438748Y-91675000D02*
X127961252Y-91675000D01*
%TO.C,C5*%
X184438748Y-67245000D02*
X184961252Y-67245000D01*
X184438748Y-68715000D02*
X184961252Y-68715000D01*
%TO.C,R25*%
X164832936Y-131415000D02*
X165287064Y-131415000D01*
X164832936Y-132885000D02*
X165287064Y-132885000D01*
%TO.C,R15*%
X192452936Y-80215000D02*
X192907064Y-80215000D01*
X192452936Y-81685000D02*
X192907064Y-81685000D01*
%TO.C,J3*%
X154780000Y-51610000D02*
X159850000Y-51610000D01*
X154780000Y-59450000D02*
X154780000Y-51610000D01*
X160450000Y-51610000D02*
X162020000Y-51610000D01*
X162020000Y-51610000D02*
X162020000Y-59450000D01*
X162020000Y-52130000D02*
X154780000Y-52130000D01*
X162020000Y-53230000D02*
X154780000Y-53230000D01*
X162020000Y-59450000D02*
X154780000Y-59450000D01*
X160150000Y-51610000D02*
X159710000Y-51000000D01*
X160590000Y-51000000D01*
X160150000Y-51610000D01*
G36*
X160150000Y-51610000D02*
G01*
X159710000Y-51000000D01*
X160590000Y-51000000D01*
X160150000Y-51610000D01*
G37*
%TO.C,R8*%
X132912936Y-131415000D02*
X133367064Y-131415000D01*
X132912936Y-132885000D02*
X133367064Y-132885000D01*
%TO.C,A1R*%
X157050000Y-65620000D02*
X158430000Y-65620000D01*
X157050000Y-67000000D02*
X157050000Y-65620000D01*
X157050000Y-68270000D02*
X157050000Y-121720000D01*
X157050000Y-68270000D02*
X159810000Y-68270000D01*
X157050000Y-121720000D02*
X159810000Y-121720000D01*
X159810000Y-68270000D02*
X159810000Y-121720000D01*
%TO.C,R18*%
X160872936Y-61715000D02*
X161327064Y-61715000D01*
X160872936Y-63185000D02*
X161327064Y-63185000D01*
%TO.C,U1*%
X171220000Y-65190000D02*
X171220000Y-90710000D01*
X171220000Y-90710000D02*
X176520000Y-90710000D01*
X172870000Y-65190000D02*
X171220000Y-65190000D01*
X176520000Y-65190000D02*
X174870000Y-65190000D01*
X176520000Y-90710000D02*
X176520000Y-65190000D01*
X174870000Y-65190000D02*
G75*
G02*
X172870000Y-65190000I-1000000J0D01*
G01*
%TO.C,A1L*%
X134190000Y-65620000D02*
X135570000Y-65620000D01*
X134190000Y-67000000D02*
X134190000Y-65620000D01*
X134190000Y-68270000D02*
X134190000Y-121720000D01*
X134190000Y-68270000D02*
X136950000Y-68270000D01*
X134190000Y-121720000D02*
X136950000Y-121720000D01*
X136950000Y-68270000D02*
X136950000Y-121720000D01*
%TO.C,R27*%
X172752936Y-131415000D02*
X173207064Y-131415000D01*
X172752936Y-132885000D02*
X173207064Y-132885000D01*
%TO.C,R4*%
X140832936Y-61715000D02*
X141287064Y-61715000D01*
X140832936Y-63185000D02*
X141287064Y-63185000D01*
%TO.C,J12*%
X182380000Y-135380000D02*
X189620000Y-135380000D01*
X182380000Y-141600000D02*
X189620000Y-141600000D01*
X182380000Y-142700000D02*
X189620000Y-142700000D01*
X182380000Y-143220000D02*
X182380000Y-135380000D01*
X183950000Y-143220000D02*
X182380000Y-143220000D01*
X189620000Y-135380000D02*
X189620000Y-143220000D01*
X189620000Y-143220000D02*
X184550000Y-143220000D01*
X184250000Y-143220000D02*
X184690000Y-143830000D01*
X183810000Y-143830000D01*
X184250000Y-143220000D01*
G36*
X184690000Y-143830000D02*
G01*
X183810000Y-143830000D01*
X184250000Y-143220000D01*
X184690000Y-143830000D01*
G37*
%TO.C,R21*%
X172752936Y-61715000D02*
X173207064Y-61715000D01*
X172752936Y-63185000D02*
X173207064Y-63185000D01*
%TO.C,R2*%
X132912936Y-61715000D02*
X133367064Y-61715000D01*
X132912936Y-63185000D02*
X133367064Y-63185000D01*
%TO.C,J7*%
X136380000Y-135380000D02*
X143620000Y-135380000D01*
X136380000Y-141600000D02*
X143620000Y-141600000D01*
X136380000Y-142700000D02*
X143620000Y-142700000D01*
X136380000Y-143220000D02*
X136380000Y-135380000D01*
X137950000Y-143220000D02*
X136380000Y-143220000D01*
X143620000Y-135380000D02*
X143620000Y-143220000D01*
X143620000Y-143220000D02*
X138550000Y-143220000D01*
X138250000Y-143220000D02*
X138690000Y-143830000D01*
X137810000Y-143830000D01*
X138250000Y-143220000D01*
G36*
X138690000Y-143830000D02*
G01*
X137810000Y-143830000D01*
X138250000Y-143220000D01*
X138690000Y-143830000D01*
G37*
%TO.C,R14*%
X127452936Y-101995000D02*
X127907064Y-101995000D01*
X127452936Y-103465000D02*
X127907064Y-103465000D01*
%TO.C,J14*%
X111390000Y-136890000D02*
X112770000Y-136890000D01*
X111390000Y-138270000D02*
X111390000Y-136890000D01*
X111390000Y-139540000D02*
X111390000Y-142190000D01*
X111390000Y-139540000D02*
X114150000Y-139540000D01*
X111390000Y-142190000D02*
X114150000Y-142190000D01*
X114150000Y-139540000D02*
X114150000Y-142190000D01*
%TO.C,C4*%
X114500225Y-102505000D02*
X115000225Y-102505000D01*
X114750225Y-102255000D02*
X114750225Y-102755000D01*
X117305000Y-101400000D02*
X117305000Y-106560000D01*
X117345000Y-101400000D02*
X117345000Y-106560000D01*
X117385000Y-101401000D02*
X117385000Y-106559000D01*
X117425000Y-101403000D02*
X117425000Y-106557000D01*
X117465000Y-101405000D02*
X117465000Y-106555000D01*
X117505000Y-101408000D02*
X117505000Y-106552000D01*
X117545000Y-101411000D02*
X117545000Y-102940000D01*
X117545000Y-105020000D02*
X117545000Y-106549000D01*
X117585000Y-101415000D02*
X117585000Y-102940000D01*
X117585000Y-105020000D02*
X117585000Y-106545000D01*
X117625000Y-101420000D02*
X117625000Y-102940000D01*
X117625000Y-105020000D02*
X117625000Y-106540000D01*
X117665000Y-101425000D02*
X117665000Y-102940000D01*
X117665000Y-105020000D02*
X117665000Y-106535000D01*
X117705000Y-101431000D02*
X117705000Y-102940000D01*
X117705000Y-105020000D02*
X117705000Y-106529000D01*
X117745000Y-101437000D02*
X117745000Y-102940000D01*
X117745000Y-105020000D02*
X117745000Y-106523000D01*
X117785000Y-101444000D02*
X117785000Y-102940000D01*
X117785000Y-105020000D02*
X117785000Y-106516000D01*
X117825000Y-101452000D02*
X117825000Y-102940000D01*
X117825000Y-105020000D02*
X117825000Y-106508000D01*
X117865000Y-101461000D02*
X117865000Y-102940000D01*
X117865000Y-105020000D02*
X117865000Y-106499000D01*
X117905000Y-101470000D02*
X117905000Y-102940000D01*
X117905000Y-105020000D02*
X117905000Y-106490000D01*
X117945000Y-101479000D02*
X117945000Y-102940000D01*
X117945000Y-105020000D02*
X117945000Y-106481000D01*
X117985000Y-101490000D02*
X117985000Y-102940000D01*
X117985000Y-105020000D02*
X117985000Y-106470000D01*
X118025000Y-101501000D02*
X118025000Y-102940000D01*
X118025000Y-105020000D02*
X118025000Y-106459000D01*
X118065000Y-101513000D02*
X118065000Y-102940000D01*
X118065000Y-105020000D02*
X118065000Y-106447000D01*
X118105000Y-101525000D02*
X118105000Y-102940000D01*
X118105000Y-105020000D02*
X118105000Y-106435000D01*
X118145000Y-101538000D02*
X118145000Y-102940000D01*
X118145000Y-105020000D02*
X118145000Y-106422000D01*
X118185000Y-101552000D02*
X118185000Y-102940000D01*
X118185000Y-105020000D02*
X118185000Y-106408000D01*
X118225000Y-101567000D02*
X118225000Y-102940000D01*
X118225000Y-105020000D02*
X118225000Y-106393000D01*
X118265000Y-101582000D02*
X118265000Y-102940000D01*
X118265000Y-105020000D02*
X118265000Y-106378000D01*
X118305000Y-101598000D02*
X118305000Y-102940000D01*
X118305000Y-105020000D02*
X118305000Y-106362000D01*
X118345000Y-101615000D02*
X118345000Y-102940000D01*
X118345000Y-105020000D02*
X118345000Y-106345000D01*
X118385000Y-101633000D02*
X118385000Y-102940000D01*
X118385000Y-105020000D02*
X118385000Y-106327000D01*
X118425000Y-101651000D02*
X118425000Y-102940000D01*
X118425000Y-105020000D02*
X118425000Y-106309000D01*
X118465000Y-101671000D02*
X118465000Y-102940000D01*
X118465000Y-105020000D02*
X118465000Y-106289000D01*
X118505000Y-101691000D02*
X118505000Y-102940000D01*
X118505000Y-105020000D02*
X118505000Y-106269000D01*
X118545000Y-101712000D02*
X118545000Y-102940000D01*
X118545000Y-105020000D02*
X118545000Y-106248000D01*
X118585000Y-101734000D02*
X118585000Y-102940000D01*
X118585000Y-105020000D02*
X118585000Y-106226000D01*
X118625000Y-101757000D02*
X118625000Y-102940000D01*
X118625000Y-105020000D02*
X118625000Y-106203000D01*
X118665000Y-101781000D02*
X118665000Y-102940000D01*
X118665000Y-105020000D02*
X118665000Y-106179000D01*
X118705000Y-101805000D02*
X118705000Y-102940000D01*
X118705000Y-105020000D02*
X118705000Y-106155000D01*
X118745000Y-101831000D02*
X118745000Y-102940000D01*
X118745000Y-105020000D02*
X118745000Y-106129000D01*
X118785000Y-101858000D02*
X118785000Y-102940000D01*
X118785000Y-105020000D02*
X118785000Y-106102000D01*
X118825000Y-101886000D02*
X118825000Y-102940000D01*
X118825000Y-105020000D02*
X118825000Y-106074000D01*
X118865000Y-101915000D02*
X118865000Y-102940000D01*
X118865000Y-105020000D02*
X118865000Y-106045000D01*
X118905000Y-101945000D02*
X118905000Y-102940000D01*
X118905000Y-105020000D02*
X118905000Y-106015000D01*
X118945000Y-101977000D02*
X118945000Y-102940000D01*
X118945000Y-105020000D02*
X118945000Y-105983000D01*
X118985000Y-102010000D02*
X118985000Y-102940000D01*
X118985000Y-105020000D02*
X118985000Y-105950000D01*
X119025000Y-102044000D02*
X119025000Y-102940000D01*
X119025000Y-105020000D02*
X119025000Y-105916000D01*
X119065000Y-102079000D02*
X119065000Y-102940000D01*
X119065000Y-105020000D02*
X119065000Y-105881000D01*
X119105000Y-102116000D02*
X119105000Y-102940000D01*
X119105000Y-105020000D02*
X119105000Y-105844000D01*
X119145000Y-102155000D02*
X119145000Y-102940000D01*
X119145000Y-105020000D02*
X119145000Y-105805000D01*
X119185000Y-102195000D02*
X119185000Y-102940000D01*
X119185000Y-105020000D02*
X119185000Y-105765000D01*
X119225000Y-102237000D02*
X119225000Y-102940000D01*
X119225000Y-105020000D02*
X119225000Y-105723000D01*
X119265000Y-102281000D02*
X119265000Y-102940000D01*
X119265000Y-105020000D02*
X119265000Y-105679000D01*
X119305000Y-102328000D02*
X119305000Y-102940000D01*
X119305000Y-105020000D02*
X119305000Y-105632000D01*
X119345000Y-102376000D02*
X119345000Y-102940000D01*
X119345000Y-105020000D02*
X119345000Y-105584000D01*
X119385000Y-102427000D02*
X119385000Y-102940000D01*
X119385000Y-105020000D02*
X119385000Y-105533000D01*
X119425000Y-102481000D02*
X119425000Y-102940000D01*
X119425000Y-105020000D02*
X119425000Y-105479000D01*
X119465000Y-102537000D02*
X119465000Y-102940000D01*
X119465000Y-105020000D02*
X119465000Y-105423000D01*
X119505000Y-102597000D02*
X119505000Y-102940000D01*
X119505000Y-105020000D02*
X119505000Y-105363000D01*
X119545000Y-102661000D02*
X119545000Y-102940000D01*
X119545000Y-105020000D02*
X119545000Y-105299000D01*
X119585000Y-102729000D02*
X119585000Y-102940000D01*
X119585000Y-105020000D02*
X119585000Y-105231000D01*
X119625000Y-102803000D02*
X119625000Y-105157000D01*
X119665000Y-102882000D02*
X119665000Y-105078000D01*
X119705000Y-102969000D02*
X119705000Y-104991000D01*
X119745000Y-103066000D02*
X119745000Y-104894000D01*
X119785000Y-103175000D02*
X119785000Y-104785000D01*
X119825000Y-103303000D02*
X119825000Y-104657000D01*
X119865000Y-103463000D02*
X119865000Y-104497000D01*
X119905000Y-103697000D02*
X119905000Y-104263000D01*
X119925000Y-103980000D02*
G75*
G02*
X114685000Y-103980000I-2620000J0D01*
G01*
X114685000Y-103980000D02*
G75*
G02*
X119925000Y-103980000I2620000J0D01*
G01*
%TO.C,U2*%
X171220000Y-95190000D02*
X171220000Y-120710000D01*
X171220000Y-120710000D02*
X176520000Y-120710000D01*
X172870000Y-95190000D02*
X171220000Y-95190000D01*
X176520000Y-95190000D02*
X174870000Y-95190000D01*
X176520000Y-120710000D02*
X176520000Y-95190000D01*
X174870000Y-95190000D02*
G75*
G02*
X172870000Y-95190000I-1000000J0D01*
G01*
%TD*%
%LPC*%
D13*
%TO.C,R7*%
X128267500Y-132150000D03*
X130092500Y-132150000D03*
%TD*%
%TO.C,R12*%
X148067500Y-132150000D03*
X149892500Y-132150000D03*
%TD*%
%TO.C,R19*%
X164147500Y-62450000D03*
X165972500Y-62450000D03*
%TD*%
D14*
%TO.C,C2*%
X116750000Y-111290000D03*
D15*
X119250000Y-111290000D03*
%TD*%
D16*
%TO.C,H3*%
X104400000Y-140600000D03*
%TD*%
D13*
%TO.C,R16*%
X152267500Y-62450000D03*
X154092500Y-62450000D03*
%TD*%
D17*
%TO.C,J2*%
X150950000Y-56230000D03*
D18*
X147450000Y-56230000D03*
%TD*%
D14*
%TO.C,C3*%
X116055000Y-97320000D03*
D15*
X118555000Y-97320000D03*
%TD*%
D13*
%TO.C,R22*%
X152267500Y-132150000D03*
X154092500Y-132150000D03*
%TD*%
D19*
%TO.C,M2*%
X125090000Y-65000000D03*
D20*
X125090000Y-67540000D03*
X125090000Y-70080000D03*
X125090000Y-72620000D03*
X125090000Y-75160000D03*
X125090000Y-77700000D03*
%TD*%
D21*
%TO.C,U3*%
X115750000Y-87340000D03*
X115750000Y-89640000D03*
D22*
X122050000Y-89640000D03*
D21*
X115750000Y-91940000D03*
%TD*%
D23*
%TO.C,C7*%
X126750000Y-86980000D03*
X128650000Y-86980000D03*
%TD*%
D13*
%TO.C,R17*%
X156227500Y-62450000D03*
X158052500Y-62450000D03*
%TD*%
D24*
%TO.C,C1*%
X106730000Y-116650000D03*
D25*
X110230000Y-116650000D03*
%TD*%
D17*
%TO.C,J1*%
X141750000Y-56230000D03*
D18*
X138250000Y-56230000D03*
%TD*%
D16*
%TO.C,H2*%
X195600000Y-54400000D03*
%TD*%
D13*
%TO.C,R9*%
X136187500Y-132150000D03*
X138012500Y-132150000D03*
%TD*%
%TO.C,R1*%
X128267500Y-62450000D03*
X130092500Y-62450000D03*
%TD*%
D26*
%TO.C,J13*%
X106330000Y-89040000D03*
D27*
X106330000Y-94120000D03*
%TD*%
D28*
%TO.C,Q1*%
X103992500Y-99420000D03*
X103992500Y-101320000D03*
X105867500Y-100370000D03*
%TD*%
D13*
%TO.C,R6*%
X148067500Y-62450000D03*
X149892500Y-62450000D03*
%TD*%
D23*
%TO.C,C6*%
X183750000Y-97980000D03*
X185650000Y-97980000D03*
%TD*%
D19*
%TO.C,M1*%
X104770000Y-65000000D03*
D20*
X104770000Y-67540000D03*
X104770000Y-70080000D03*
X104770000Y-72620000D03*
X104770000Y-75160000D03*
X104770000Y-77700000D03*
%TD*%
D17*
%TO.C,J9*%
X156650000Y-138600000D03*
D18*
X160150000Y-138600000D03*
%TD*%
D17*
%TO.C,J10*%
X165850000Y-138600000D03*
D18*
X169350000Y-138600000D03*
%TD*%
D13*
%TO.C,R13*%
X126767500Y-98830000D03*
X128592500Y-98830000D03*
%TD*%
D17*
%TO.C,J5*%
X178550000Y-56230000D03*
D18*
X175050000Y-56230000D03*
%TD*%
D13*
%TO.C,R23*%
X156227500Y-132150000D03*
X158052500Y-132150000D03*
%TD*%
D17*
%TO.C,J6*%
X187750000Y-56230000D03*
D18*
X184250000Y-56230000D03*
%TD*%
D13*
%TO.C,R3*%
X136187500Y-62450000D03*
X138012500Y-62450000D03*
%TD*%
%TO.C,R5*%
X144107500Y-62450000D03*
X145932500Y-62450000D03*
%TD*%
%TO.C,R26*%
X168107500Y-132150000D03*
X169932500Y-132150000D03*
%TD*%
D17*
%TO.C,J11*%
X175050000Y-138600000D03*
D18*
X178550000Y-138600000D03*
%TD*%
D13*
%TO.C,R11*%
X144107500Y-132150000D03*
X145932500Y-132150000D03*
%TD*%
%TO.C,R24*%
X160187500Y-132150000D03*
X162012500Y-132150000D03*
%TD*%
D16*
%TO.C,H4*%
X195600000Y-140600000D03*
%TD*%
D29*
%TO.C,L1*%
X104425000Y-106820000D03*
X108575000Y-106820000D03*
%TD*%
D23*
%TO.C,C8*%
X126750000Y-94900000D03*
X128650000Y-94900000D03*
%TD*%
D13*
%TO.C,R10*%
X140147500Y-132150000D03*
X141972500Y-132150000D03*
%TD*%
D16*
%TO.C,H1*%
X104400000Y-54400000D03*
%TD*%
D17*
%TO.C,J8*%
X147450000Y-138600000D03*
D18*
X150950000Y-138600000D03*
%TD*%
D13*
%TO.C,R20*%
X168107500Y-62450000D03*
X169932500Y-62450000D03*
%TD*%
D17*
%TO.C,J4*%
X169350000Y-56230000D03*
D18*
X165850000Y-56230000D03*
%TD*%
D23*
%TO.C,C9*%
X126750000Y-90940000D03*
X128650000Y-90940000D03*
%TD*%
%TO.C,C5*%
X183750000Y-67980000D03*
X185650000Y-67980000D03*
%TD*%
D13*
%TO.C,R25*%
X164147500Y-132150000D03*
X165972500Y-132150000D03*
%TD*%
%TO.C,R15*%
X191767500Y-80950000D03*
X193592500Y-80950000D03*
%TD*%
D17*
%TO.C,J3*%
X160150000Y-56230000D03*
D18*
X156650000Y-56230000D03*
%TD*%
D13*
%TO.C,R8*%
X132227500Y-132150000D03*
X134052500Y-132150000D03*
%TD*%
D19*
%TO.C,A1R*%
X158430000Y-67000000D03*
D20*
X158430000Y-69540000D03*
X158430000Y-72080000D03*
X158430000Y-74620000D03*
X158430000Y-77160000D03*
X158430000Y-79700000D03*
X158430000Y-82240000D03*
X158430000Y-84780000D03*
X158430000Y-87320000D03*
X158430000Y-89860000D03*
X158430000Y-92400000D03*
X158430000Y-94940000D03*
X158430000Y-97480000D03*
X158430000Y-100020000D03*
X158430000Y-102560000D03*
X158430000Y-105100000D03*
X158430000Y-107640000D03*
X158430000Y-110180000D03*
X158430000Y-112720000D03*
X158430000Y-115260000D03*
X158430000Y-117800000D03*
X158430000Y-120340000D03*
%TD*%
D13*
%TO.C,R18*%
X160187500Y-62450000D03*
X162012500Y-62450000D03*
%TD*%
D14*
%TO.C,U1*%
X170060000Y-66520000D03*
D15*
X170060000Y-69060000D03*
X170060000Y-71600000D03*
X170060000Y-74140000D03*
X170060000Y-76680000D03*
X170060000Y-79220000D03*
X170060000Y-81760000D03*
X170060000Y-84300000D03*
X170060000Y-86840000D03*
X170060000Y-89380000D03*
X177680000Y-89380000D03*
X177680000Y-86840000D03*
X177680000Y-84300000D03*
X177680000Y-81760000D03*
X177680000Y-79220000D03*
X177680000Y-76680000D03*
X177680000Y-74140000D03*
X177680000Y-71600000D03*
X177680000Y-69060000D03*
X177680000Y-66520000D03*
%TD*%
D19*
%TO.C,A1L*%
X135570000Y-67000000D03*
D20*
X135570000Y-69540000D03*
X135570000Y-72080000D03*
X135570000Y-74620000D03*
X135570000Y-77160000D03*
X135570000Y-79700000D03*
X135570000Y-82240000D03*
X135570000Y-84780000D03*
X135570000Y-87320000D03*
X135570000Y-89860000D03*
X135570000Y-92400000D03*
X135570000Y-94940000D03*
X135570000Y-97480000D03*
X135570000Y-100020000D03*
X135570000Y-102560000D03*
X135570000Y-105100000D03*
X135570000Y-107640000D03*
X135570000Y-110180000D03*
X135570000Y-112720000D03*
X135570000Y-115260000D03*
X135570000Y-117800000D03*
X135570000Y-120340000D03*
%TD*%
D13*
%TO.C,R27*%
X172067500Y-132150000D03*
X173892500Y-132150000D03*
%TD*%
%TO.C,R4*%
X140147500Y-62450000D03*
X141972500Y-62450000D03*
%TD*%
D17*
%TO.C,J12*%
X184250000Y-138600000D03*
D18*
X187750000Y-138600000D03*
%TD*%
D13*
%TO.C,R21*%
X172067500Y-62450000D03*
X173892500Y-62450000D03*
%TD*%
%TO.C,R2*%
X132227500Y-62450000D03*
X134052500Y-62450000D03*
%TD*%
D17*
%TO.C,J7*%
X138250000Y-138600000D03*
D18*
X141750000Y-138600000D03*
%TD*%
D13*
%TO.C,R14*%
X126767500Y-102730000D03*
X128592500Y-102730000D03*
%TD*%
D19*
%TO.C,J14*%
X112770000Y-138270000D03*
D20*
X112770000Y-140810000D03*
%TD*%
D14*
%TO.C,C4*%
X116055000Y-103980000D03*
D15*
X118555000Y-103980000D03*
%TD*%
D14*
%TO.C,U2*%
X170060000Y-96520000D03*
D15*
X170060000Y-99060000D03*
X170060000Y-101600000D03*
X170060000Y-104140000D03*
X170060000Y-106680000D03*
X170060000Y-109220000D03*
X170060000Y-111760000D03*
X170060000Y-114300000D03*
X170060000Y-116840000D03*
X170060000Y-119380000D03*
X177680000Y-119380000D03*
X177680000Y-116840000D03*
X177680000Y-114300000D03*
X177680000Y-111760000D03*
X177680000Y-109220000D03*
X177680000Y-106680000D03*
X177680000Y-104140000D03*
X177680000Y-101600000D03*
X177680000Y-99060000D03*
X177680000Y-96520000D03*
%TD*%
%LPD*%
M02*
